<?xml version="1.0" encoding="utf-8" ?>
<svg baseProfile="full" height="256" version="1.1" width="256" xmlns="http://www.w3.org/2000/svg" xmlns:ev="http://www.w3.org/2001/xml-events" xmlns:xlink="http://www.w3.org/1999/xlink"><defs /><g fill="black" id="shape"><line opacity="0.8" stroke="red" stroke-width="1" x1="160" x2="189" y1="56" y2="74" /><line opacity="0.8" stroke="red" stroke-width="1" x1="160" x2="54" y1="56" y2="122" /><line opacity="0.8" stroke="red" stroke-width="1" x1="189" x2="203" y1="74" y2="81" /><line opacity="0.8" stroke="red" stroke-width="1" x1="203" x2="241" y1="81" y2="109" /><line opacity="0.8" stroke="red" stroke-width="1" x1="203" x2="93" y1="81" y2="149" /><line opacity="0.8" stroke="red" stroke-width="1" x1="241" x2="133" y1="109" y2="175" /><line opacity="0.8" stroke="red" stroke-width="1" x1="54" x2="15" y1="122" y2="147" /><line opacity="0.8" stroke="red" stroke-width="1" x1="54" x2="93" y1="122" y2="149" /><line opacity="0.8" stroke="red" stroke-width="1" x1="15" x2="89" y1="147" y2="200" /><line opacity="0.8" stroke="red" stroke-width="1" x1="93" x2="133" y1="149" y2="175" /><line opacity="0.8" stroke="red" stroke-width="1" x1="133" x2="122" y1="175" y2="180" /><line opacity="0.8" stroke="red" stroke-width="1" x1="122" x2="89" y1="180" y2="200" /><circle cx="160" cy="56" fill="white" opacity="0.8" r="2" stroke="green" stroke-width="1" /><circle cx="189" cy="74" fill="white" opacity="0.8" r="2" stroke="green" stroke-width="1" /><circle cx="203" cy="81" fill="white" opacity="0.8" r="2" stroke="green" stroke-width="1" /><circle cx="241" cy="109" fill="white" opacity="0.8" r="2" stroke="green" stroke-width="1" /><circle cx="54" cy="122" fill="white" opacity="0.8" r="2" stroke="green" stroke-width="1" /><circle cx="15" cy="147" fill="white" opacity="0.8" r="2" stroke="green" stroke-width="1" /><circle cx="93" cy="149" fill="white" opacity="0.8" r="2" stroke="green" stroke-width="1" /><circle cx="133" cy="175" fill="white" opacity="0.8" r="2" stroke="green" stroke-width="1" /><circle cx="122" cy="180" fill="white" opacity="0.8" r="2" stroke="green" stroke-width="1" /><circle cx="89" cy="200" fill="white" opacity="0.8" r="2" stroke="green" stroke-width="1" /></g></svg>