<?xml version="1.0" encoding="utf-8" ?>
<svg baseProfile="full" height="256" version="1.1" width="256" xmlns="http://www.w3.org/2000/svg" xmlns:ev="http://www.w3.org/2001/xml-events" xmlns:xlink="http://www.w3.org/1999/xlink"><defs /><g fill="black" id="shape"><line opacity="0.8" stroke="red" stroke-width="1" x1="59" x2="57" y1="35" y2="46" /><line opacity="0.8" stroke="red" stroke-width="1" x1="59" x2="234" y1="35" y2="50" /><line opacity="0.8" stroke="red" stroke-width="1" x1="57" x2="80" y1="46" y2="49" /><line opacity="0.8" stroke="red" stroke-width="1" x1="57" x2="45" y1="46" y2="96" /><line opacity="0.8" stroke="red" stroke-width="1" x1="80" x2="224" y1="49" y2="71" /><line opacity="0.8" stroke="red" stroke-width="1" x1="80" x2="68" y1="49" y2="99" /><line opacity="0.8" stroke="red" stroke-width="1" x1="234" x2="228" y1="50" y2="61" /><line opacity="0.8" stroke="red" stroke-width="1" x1="228" x2="249" y1="61" y2="66" /><line opacity="0.8" stroke="red" stroke-width="1" x1="228" x2="224" y1="61" y2="71" /><line opacity="0.8" stroke="red" stroke-width="1" x1="224" x2="215" y1="71" y2="108" /><line opacity="0.8" stroke="red" stroke-width="1" x1="29" x2="45" y1="96" y2="96" /><line opacity="0.8" stroke="red" stroke-width="1" x1="45" x2="68" y1="96" y2="99" /><line opacity="0.8" stroke="red" stroke-width="1" x1="68" x2="56" y1="99" y2="146" /><line opacity="0.8" stroke="red" stroke-width="1" x1="215" x2="235" y1="108" y2="113" /><line opacity="0.8" stroke="red" stroke-width="1" x1="235" x2="228" y1="113" y2="138" /><line opacity="0.8" stroke="red" stroke-width="1" x1="209" x2="228" y1="137" y2="138" /><line opacity="0.8" stroke="red" stroke-width="1" x1="209" x2="193" y1="137" y2="200" /><line opacity="0.8" stroke="red" stroke-width="1" x1="34" x2="56" y1="143" y2="146" /><line opacity="0.8" stroke="red" stroke-width="1" x1="34" x2="25" y1="143" y2="179" /><line opacity="0.8" stroke="red" stroke-width="1" x1="56" x2="54" y1="146" y2="157" /><line opacity="0.8" stroke="red" stroke-width="1" x1="54" x2="50" y1="157" y2="180" /><line opacity="0.8" stroke="red" stroke-width="1" x1="25" x2="50" y1="179" y2="180" /><line opacity="0.8" stroke="red" stroke-width="1" x1="25" x2="23" y1="179" y2="191" /><line opacity="0.8" stroke="red" stroke-width="1" x1="50" x2="193" y1="180" y2="200" /><line opacity="0.8" stroke="red" stroke-width="1" x1="23" x2="186" y1="191" y2="215" /><line opacity="0.8" stroke="red" stroke-width="1" x1="193" x2="186" y1="200" y2="215" /><line opacity="0.8" stroke="red" stroke-width="1" x1="21" x2="186" y1="205" y2="230" /><line opacity="0.8" stroke="red" stroke-width="1" x1="186" x2="186" y1="215" y2="230" /><circle cx="59" cy="35" fill="white" opacity="0.8" r="2" stroke="green" stroke-width="1" /><circle cx="57" cy="46" fill="white" opacity="0.8" r="2" stroke="green" stroke-width="1" /><circle cx="80" cy="49" fill="white" opacity="0.8" r="2" stroke="green" stroke-width="1" /><circle cx="234" cy="50" fill="white" opacity="0.8" r="2" stroke="green" stroke-width="1" /><circle cx="228" cy="61" fill="white" opacity="0.8" r="2" stroke="green" stroke-width="1" /><circle cx="249" cy="66" fill="white" opacity="0.8" r="2" stroke="green" stroke-width="1" /><circle cx="224" cy="71" fill="white" opacity="0.8" r="2" stroke="green" stroke-width="1" /><circle cx="29" cy="96" fill="white" opacity="0.8" r="2" stroke="green" stroke-width="1" /><circle cx="45" cy="96" fill="white" opacity="0.8" r="2" stroke="green" stroke-width="1" /><circle cx="68" cy="99" fill="white" opacity="0.8" r="2" stroke="green" stroke-width="1" /><circle cx="215" cy="108" fill="white" opacity="0.8" r="2" stroke="green" stroke-width="1" /><circle cx="235" cy="113" fill="white" opacity="0.8" r="2" stroke="green" stroke-width="1" /><circle cx="209" cy="137" fill="white" opacity="0.8" r="2" stroke="green" stroke-width="1" /><circle cx="228" cy="138" fill="white" opacity="0.8" r="2" stroke="green" stroke-width="1" /><circle cx="34" cy="143" fill="white" opacity="0.8" r="2" stroke="green" stroke-width="1" /><circle cx="56" cy="146" fill="white" opacity="0.8" r="2" stroke="green" stroke-width="1" /><circle cx="54" cy="157" fill="white" opacity="0.8" r="2" stroke="green" stroke-width="1" /><circle cx="25" cy="179" fill="white" opacity="0.8" r="2" stroke="green" stroke-width="1" /><circle cx="50" cy="180" fill="white" opacity="0.8" r="2" stroke="green" stroke-width="1" /><circle cx="23" cy="191" fill="white" opacity="0.8" r="2" stroke="green" stroke-width="1" /><circle cx="193" cy="200" fill="white" opacity="0.8" r="2" stroke="green" stroke-width="1" /><circle cx="21" cy="205" fill="white" opacity="0.8" r="2" stroke="green" stroke-width="1" /><circle cx="186" cy="215" fill="white" opacity="0.8" r="2" stroke="green" stroke-width="1" /><circle cx="186" cy="230" fill="white" opacity="0.8" r="2" stroke="green" stroke-width="1" /></g></svg>