<?xml version="1.0" encoding="utf-8" ?>
<svg baseProfile="full" height="256" version="1.1" width="256" xmlns="http://www.w3.org/2000/svg" xmlns:ev="http://www.w3.org/2001/xml-events" xmlns:xlink="http://www.w3.org/1999/xlink"><defs /><g fill="black" id="shape"><line opacity="0.8" stroke="red" stroke-width="1" x1="186" x2="90" y1="12" y2="14" /><line opacity="0.8" stroke="red" stroke-width="1" x1="186" x2="181" y1="12" y2="210" /><line opacity="0.8" stroke="red" stroke-width="1" x1="90" x2="104" y1="14" y2="113" /><line opacity="0.8" stroke="red" stroke-width="1" x1="90" x2="92" y1="14" y2="156" /><line opacity="0.8" stroke="red" stroke-width="1" x1="126" x2="136" y1="30" y2="30" /><line opacity="0.8" stroke="red" stroke-width="1" x1="126" x2="128" y1="30" y2="46" /><line opacity="0.8" stroke="red" stroke-width="1" x1="128" x2="141" y1="46" y2="78" /><line opacity="0.8" stroke="red" stroke-width="1" x1="141" x2="142" y1="78" y2="112" /><line opacity="0.8" stroke="red" stroke-width="1" x1="142" x2="134" y1="112" y2="113" /><line opacity="0.8" stroke="red" stroke-width="1" x1="142" x2="161" y1="112" y2="115" /><line opacity="0.8" stroke="red" stroke-width="1" x1="142" x2="136" y1="112" y2="138" /><line opacity="0.8" stroke="red" stroke-width="1" x1="104" x2="134" y1="113" y2="113" /><line opacity="0.8" stroke="red" stroke-width="1" x1="134" x2="136" y1="113" y2="138" /><line opacity="0.8" stroke="red" stroke-width="1" x1="161" x2="164" y1="115" y2="128" /><line opacity="0.8" stroke="red" stroke-width="1" x1="152" x2="164" y1="128" y2="128" /><line opacity="0.8" stroke="red" stroke-width="1" x1="164" x2="163" y1="128" y2="141" /><line opacity="0.8" stroke="red" stroke-width="1" x1="124" x2="136" y1="138" y2="138" /><line opacity="0.8" stroke="red" stroke-width="1" x1="124" x2="115" y1="138" y2="160" /><line opacity="0.8" stroke="red" stroke-width="1" x1="136" x2="163" y1="138" y2="141" /><line opacity="0.8" stroke="red" stroke-width="1" x1="163" x2="166" y1="141" y2="163" /><line opacity="0.8" stroke="red" stroke-width="1" x1="70" x2="92" y1="156" y2="156" /><line opacity="0.8" stroke="red" stroke-width="1" x1="70" x2="70" y1="156" y2="210" /><line opacity="0.8" stroke="red" stroke-width="1" x1="115" x2="117" y1="160" y2="178" /><line opacity="0.8" stroke="red" stroke-width="1" x1="115" x2="105" y1="160" y2="180" /><line opacity="0.8" stroke="red" stroke-width="1" x1="167" x2="168" y1="173" y2="190" /><line opacity="0.8" stroke="red" stroke-width="1" x1="117" x2="125" y1="178" y2="179" /><line opacity="0.8" stroke="red" stroke-width="1" x1="117" x2="105" y1="178" y2="180" /><line opacity="0.8" stroke="red" stroke-width="1" x1="125" x2="121" y1="179" y2="210" /><line opacity="0.8" stroke="red" stroke-width="1" x1="180" x2="168" y1="181" y2="190" /><line opacity="0.8" stroke="red" stroke-width="1" x1="180" x2="181" y1="181" y2="210" /><line opacity="0.8" stroke="red" stroke-width="1" x1="70" x2="121" y1="210" y2="210" /><line opacity="0.8" stroke="red" stroke-width="1" x1="121" x2="181" y1="210" y2="210" /><circle cx="186" cy="12" fill="white" opacity="0.8" r="2" stroke="green" stroke-width="1" /><circle cx="90" cy="14" fill="white" opacity="0.8" r="2" stroke="green" stroke-width="1" /><circle cx="126" cy="30" fill="white" opacity="0.8" r="2" stroke="green" stroke-width="1" /><circle cx="136" cy="30" fill="white" opacity="0.8" r="2" stroke="green" stroke-width="1" /><circle cx="128" cy="46" fill="white" opacity="0.8" r="2" stroke="green" stroke-width="1" /><circle cx="141" cy="78" fill="white" opacity="0.8" r="2" stroke="green" stroke-width="1" /><circle cx="142" cy="112" fill="white" opacity="0.8" r="2" stroke="green" stroke-width="1" /><circle cx="104" cy="113" fill="white" opacity="0.8" r="2" stroke="green" stroke-width="1" /><circle cx="134" cy="113" fill="white" opacity="0.8" r="2" stroke="green" stroke-width="1" /><circle cx="161" cy="115" fill="white" opacity="0.8" r="2" stroke="green" stroke-width="1" /><circle cx="152" cy="128" fill="white" opacity="0.8" r="2" stroke="green" stroke-width="1" /><circle cx="164" cy="128" fill="white" opacity="0.8" r="2" stroke="green" stroke-width="1" /><circle cx="124" cy="138" fill="white" opacity="0.8" r="2" stroke="green" stroke-width="1" /><circle cx="136" cy="138" fill="white" opacity="0.8" r="2" stroke="green" stroke-width="1" /><circle cx="163" cy="141" fill="white" opacity="0.8" r="2" stroke="green" stroke-width="1" /><circle cx="70" cy="156" fill="white" opacity="0.8" r="2" stroke="green" stroke-width="1" /><circle cx="92" cy="156" fill="white" opacity="0.8" r="2" stroke="green" stroke-width="1" /><circle cx="115" cy="160" fill="white" opacity="0.8" r="2" stroke="green" stroke-width="1" /><circle cx="166" cy="163" fill="white" opacity="0.8" r="2" stroke="green" stroke-width="1" /><circle cx="167" cy="173" fill="white" opacity="0.8" r="2" stroke="green" stroke-width="1" /><circle cx="117" cy="178" fill="white" opacity="0.8" r="2" stroke="green" stroke-width="1" /><circle cx="125" cy="179" fill="white" opacity="0.8" r="2" stroke="green" stroke-width="1" /><circle cx="105" cy="180" fill="white" opacity="0.8" r="2" stroke="green" stroke-width="1" /><circle cx="180" cy="181" fill="white" opacity="0.8" r="2" stroke="green" stroke-width="1" /><circle cx="168" cy="190" fill="white" opacity="0.8" r="2" stroke="green" stroke-width="1" /><circle cx="70" cy="210" fill="white" opacity="0.8" r="2" stroke="green" stroke-width="1" /><circle cx="121" cy="210" fill="white" opacity="0.8" r="2" stroke="green" stroke-width="1" /><circle cx="181" cy="210" fill="white" opacity="0.8" r="2" stroke="green" stroke-width="1" /></g></svg>