<?xml version="1.0" encoding="utf-8" ?>
<svg baseProfile="full" height="256" version="1.1" width="256" xmlns="http://www.w3.org/2000/svg" xmlns:ev="http://www.w3.org/2001/xml-events" xmlns:xlink="http://www.w3.org/1999/xlink"><defs /><g fill="black" id="shape"><line opacity="0.8" stroke="red" stroke-width="1" x1="123" x2="115" y1="86" y2="94" /><line opacity="0.8" stroke="red" stroke-width="1" x1="123" x2="181" y1="86" y2="136" /><line opacity="0.8" stroke="red" stroke-width="1" x1="105" x2="88" y1="101" y2="114" /><line opacity="0.8" stroke="red" stroke-width="1" x1="105" x2="159" y1="101" y2="150" /><line opacity="0.8" stroke="red" stroke-width="1" x1="88" x2="73" y1="114" y2="125" /><line opacity="0.8" stroke="red" stroke-width="1" x1="73" x2="124" y1="125" y2="166" /><line opacity="0.8" stroke="red" stroke-width="1" x1="181" x2="159" y1="136" y2="150" /><line opacity="0.8" stroke="red" stroke-width="1" x1="159" x2="142" y1="150" y2="168" /><line opacity="0.8" stroke="red" stroke-width="1" x1="124" x2="142" y1="166" y2="168" /><circle cx="123" cy="86" fill="white" opacity="0.8" r="2" stroke="green" stroke-width="1" /><circle cx="115" cy="94" fill="white" opacity="0.8" r="2" stroke="green" stroke-width="1" /><circle cx="105" cy="101" fill="white" opacity="0.8" r="2" stroke="green" stroke-width="1" /><circle cx="88" cy="114" fill="white" opacity="0.8" r="2" stroke="green" stroke-width="1" /><circle cx="73" cy="125" fill="white" opacity="0.8" r="2" stroke="green" stroke-width="1" /><circle cx="181" cy="136" fill="white" opacity="0.8" r="2" stroke="green" stroke-width="1" /><circle cx="159" cy="150" fill="white" opacity="0.8" r="2" stroke="green" stroke-width="1" /><circle cx="124" cy="166" fill="white" opacity="0.8" r="2" stroke="green" stroke-width="1" /><circle cx="142" cy="168" fill="white" opacity="0.8" r="2" stroke="green" stroke-width="1" /></g></svg>