<?xml version="1.0" encoding="utf-8" ?>
<svg baseProfile="full" height="256" version="1.1" width="256" xmlns="http://www.w3.org/2000/svg" xmlns:ev="http://www.w3.org/2001/xml-events" xmlns:xlink="http://www.w3.org/1999/xlink"><defs /><g fill="black" id="shape"><line opacity="0.8" stroke="red" stroke-width="1" x1="227" x2="230" y1="13" y2="101" /><line opacity="0.8" stroke="red" stroke-width="1" x1="124" x2="23" y1="15" y2="18" /><line opacity="0.8" stroke="red" stroke-width="1" x1="124" x2="131" y1="15" y2="218" /><line opacity="0.8" stroke="red" stroke-width="1" x1="23" x2="29" y1="18" y2="241" /><line opacity="0.8" stroke="red" stroke-width="1" x1="230" x2="191" y1="101" y2="150" /><line opacity="0.8" stroke="red" stroke-width="1" x1="191" x2="204" y1="150" y2="161" /><line opacity="0.8" stroke="red" stroke-width="1" x1="204" x2="157" y1="161" y2="216" /><line opacity="0.8" stroke="red" stroke-width="1" x1="157" x2="131" y1="216" y2="218" /><line opacity="0.8" stroke="red" stroke-width="1" x1="131" x2="114" y1="218" y2="240" /><line opacity="0.8" stroke="red" stroke-width="1" x1="114" x2="29" y1="240" y2="241" /><circle cx="227" cy="13" fill="white" opacity="0.8" r="2" stroke="green" stroke-width="1" /><circle cx="124" cy="15" fill="white" opacity="0.8" r="2" stroke="green" stroke-width="1" /><circle cx="23" cy="18" fill="white" opacity="0.8" r="2" stroke="green" stroke-width="1" /><circle cx="230" cy="101" fill="white" opacity="0.8" r="2" stroke="green" stroke-width="1" /><circle cx="191" cy="150" fill="white" opacity="0.8" r="2" stroke="green" stroke-width="1" /><circle cx="204" cy="161" fill="white" opacity="0.8" r="2" stroke="green" stroke-width="1" /><circle cx="157" cy="216" fill="white" opacity="0.8" r="2" stroke="green" stroke-width="1" /><circle cx="131" cy="218" fill="white" opacity="0.8" r="2" stroke="green" stroke-width="1" /><circle cx="114" cy="240" fill="white" opacity="0.8" r="2" stroke="green" stroke-width="1" /><circle cx="29" cy="241" fill="white" opacity="0.8" r="2" stroke="green" stroke-width="1" /></g></svg>