<?xml version="1.0" encoding="utf-8" ?>
<svg baseProfile="full" height="256" version="1.1" width="256" xmlns="http://www.w3.org/2000/svg" xmlns:ev="http://www.w3.org/2001/xml-events" xmlns:xlink="http://www.w3.org/1999/xlink"><defs /><g fill="black" id="shape"><line opacity="0.8" stroke="red" stroke-width="1" x1="216" x2="153" y1="41" y2="55" /><line opacity="0.8" stroke="red" stroke-width="1" x1="216" x2="231" y1="41" y2="73" /><line opacity="0.8" stroke="red" stroke-width="1" x1="153" x2="168" y1="55" y2="87" /><line opacity="0.8" stroke="red" stroke-width="1" x1="231" x2="219" y1="73" y2="76" /><line opacity="0.8" stroke="red" stroke-width="1" x1="219" x2="223" y1="76" y2="86" /><line opacity="0.8" stroke="red" stroke-width="1" x1="193" x2="168" y1="81" y2="87" /><line opacity="0.8" stroke="red" stroke-width="1" x1="193" x2="199" y1="81" y2="92" /><line opacity="0.8" stroke="red" stroke-width="1" x1="223" x2="211" y1="86" y2="90" /><line opacity="0.8" stroke="red" stroke-width="1" x1="168" x2="175" y1="87" y2="98" /><line opacity="0.8" stroke="red" stroke-width="1" x1="211" x2="199" y1="90" y2="92" /><line opacity="0.8" stroke="red" stroke-width="1" x1="211" x2="242" y1="90" y2="149" /><line opacity="0.8" stroke="red" stroke-width="1" x1="199" x2="230" y1="92" y2="153" /><line opacity="0.8" stroke="red" stroke-width="1" x1="175" x2="142" y1="98" y2="123" /><line opacity="0.8" stroke="red" stroke-width="1" x1="85" x2="93" y1="107" y2="125" /><line opacity="0.8" stroke="red" stroke-width="1" x1="142" x2="164" y1="123" y2="166" /><line opacity="0.8" stroke="red" stroke-width="1" x1="93" x2="100" y1="125" y2="134" /><line opacity="0.8" stroke="red" stroke-width="1" x1="93" x2="13" y1="125" y2="143" /><line opacity="0.8" stroke="red" stroke-width="1" x1="125" x2="100" y1="128" y2="134" /><line opacity="0.8" stroke="red" stroke-width="1" x1="125" x2="139" y1="128" y2="154" /><line opacity="0.8" stroke="red" stroke-width="1" x1="100" x2="73" y1="134" y2="149" /><line opacity="0.8" stroke="red" stroke-width="1" x1="13" x2="48" y1="143" y2="215" /><line opacity="0.8" stroke="red" stroke-width="1" x1="193" x2="168" y1="143" y2="148" /><line opacity="0.8" stroke="red" stroke-width="1" x1="168" x2="178" y1="148" y2="162" /><line opacity="0.8" stroke="red" stroke-width="1" x1="73" x2="47" y1="149" y2="155" /><line opacity="0.8" stroke="red" stroke-width="1" x1="73" x2="95" y1="149" y2="184" /><line opacity="0.8" stroke="red" stroke-width="1" x1="242" x2="230" y1="149" y2="153" /><line opacity="0.8" stroke="red" stroke-width="1" x1="230" x2="178" y1="153" y2="162" /><line opacity="0.8" stroke="red" stroke-width="1" x1="47" x2="56" y1="155" y2="175" /><line opacity="0.8" stroke="red" stroke-width="1" x1="178" x2="164" y1="162" y2="166" /><line opacity="0.8" stroke="red" stroke-width="1" x1="164" x2="145" y1="166" y2="171" /><line opacity="0.8" stroke="red" stroke-width="1" x1="145" x2="125" y1="171" y2="174" /><line opacity="0.8" stroke="red" stroke-width="1" x1="145" x2="160" y1="171" y2="190" /><line opacity="0.8" stroke="red" stroke-width="1" x1="125" x2="112" y1="174" y2="183" /><line opacity="0.8" stroke="red" stroke-width="1" x1="56" x2="66" y1="175" y2="195" /><line opacity="0.8" stroke="red" stroke-width="1" x1="110" x2="101" y1="176" y2="177" /><line opacity="0.8" stroke="red" stroke-width="1" x1="110" x2="112" y1="176" y2="183" /><line opacity="0.8" stroke="red" stroke-width="1" x1="101" x2="95" y1="177" y2="184" /><line opacity="0.8" stroke="red" stroke-width="1" x1="112" x2="95" y1="183" y2="184" /><line opacity="0.8" stroke="red" stroke-width="1" x1="95" x2="66" y1="184" y2="195" /><line opacity="0.8" stroke="red" stroke-width="1" x1="160" x2="48" y1="190" y2="215" /><circle cx="216" cy="41" fill="white" opacity="0.8" r="2" stroke="green" stroke-width="1" /><circle cx="153" cy="55" fill="white" opacity="0.8" r="2" stroke="green" stroke-width="1" /><circle cx="231" cy="73" fill="white" opacity="0.8" r="2" stroke="green" stroke-width="1" /><circle cx="219" cy="76" fill="white" opacity="0.8" r="2" stroke="green" stroke-width="1" /><circle cx="193" cy="81" fill="white" opacity="0.8" r="2" stroke="green" stroke-width="1" /><circle cx="223" cy="86" fill="white" opacity="0.8" r="2" stroke="green" stroke-width="1" /><circle cx="168" cy="87" fill="white" opacity="0.8" r="2" stroke="green" stroke-width="1" /><circle cx="211" cy="90" fill="white" opacity="0.8" r="2" stroke="green" stroke-width="1" /><circle cx="199" cy="92" fill="white" opacity="0.8" r="2" stroke="green" stroke-width="1" /><circle cx="175" cy="98" fill="white" opacity="0.8" r="2" stroke="green" stroke-width="1" /><circle cx="85" cy="107" fill="white" opacity="0.8" r="2" stroke="green" stroke-width="1" /><circle cx="142" cy="123" fill="white" opacity="0.8" r="2" stroke="green" stroke-width="1" /><circle cx="93" cy="125" fill="white" opacity="0.8" r="2" stroke="green" stroke-width="1" /><circle cx="125" cy="128" fill="white" opacity="0.8" r="2" stroke="green" stroke-width="1" /><circle cx="100" cy="134" fill="white" opacity="0.8" r="2" stroke="green" stroke-width="1" /><circle cx="13" cy="143" fill="white" opacity="0.8" r="2" stroke="green" stroke-width="1" /><circle cx="193" cy="143" fill="white" opacity="0.8" r="2" stroke="green" stroke-width="1" /><circle cx="168" cy="148" fill="white" opacity="0.8" r="2" stroke="green" stroke-width="1" /><circle cx="73" cy="149" fill="white" opacity="0.8" r="2" stroke="green" stroke-width="1" /><circle cx="242" cy="149" fill="white" opacity="0.8" r="2" stroke="green" stroke-width="1" /><circle cx="230" cy="153" fill="white" opacity="0.8" r="2" stroke="green" stroke-width="1" /><circle cx="139" cy="154" fill="white" opacity="0.8" r="2" stroke="green" stroke-width="1" /><circle cx="47" cy="155" fill="white" opacity="0.8" r="2" stroke="green" stroke-width="1" /><circle cx="178" cy="162" fill="white" opacity="0.8" r="2" stroke="green" stroke-width="1" /><circle cx="164" cy="166" fill="white" opacity="0.8" r="2" stroke="green" stroke-width="1" /><circle cx="145" cy="171" fill="white" opacity="0.8" r="2" stroke="green" stroke-width="1" /><circle cx="125" cy="174" fill="white" opacity="0.8" r="2" stroke="green" stroke-width="1" /><circle cx="56" cy="175" fill="white" opacity="0.8" r="2" stroke="green" stroke-width="1" /><circle cx="110" cy="176" fill="white" opacity="0.8" r="2" stroke="green" stroke-width="1" /><circle cx="101" cy="177" fill="white" opacity="0.8" r="2" stroke="green" stroke-width="1" /><circle cx="112" cy="183" fill="white" opacity="0.8" r="2" stroke="green" stroke-width="1" /><circle cx="95" cy="184" fill="white" opacity="0.8" r="2" stroke="green" stroke-width="1" /><circle cx="160" cy="190" fill="white" opacity="0.8" r="2" stroke="green" stroke-width="1" /><circle cx="66" cy="195" fill="white" opacity="0.8" r="2" stroke="green" stroke-width="1" /><circle cx="48" cy="215" fill="white" opacity="0.8" r="2" stroke="green" stroke-width="1" /></g></svg>