<?xml version="1.0" encoding="utf-8" ?>
<svg baseProfile="full" height="256" version="1.1" width="256" xmlns="http://www.w3.org/2000/svg" xmlns:ev="http://www.w3.org/2001/xml-events" xmlns:xlink="http://www.w3.org/1999/xlink"><defs /><g fill="black" id="shape"><line opacity="0.8" stroke="red" stroke-width="1" x1="98" x2="188" y1="9" y2="20" /><line opacity="0.8" stroke="red" stroke-width="1" x1="98" x2="89" y1="9" y2="71" /><line opacity="0.8" stroke="red" stroke-width="1" x1="188" x2="177" y1="20" y2="84" /><line opacity="0.8" stroke="red" stroke-width="1" x1="89" x2="82" y1="71" y2="125" /><line opacity="0.8" stroke="red" stroke-width="1" x1="177" x2="172" y1="84" y2="138" /><line opacity="0.8" stroke="red" stroke-width="1" x1="82" x2="172" y1="125" y2="138" /><line opacity="0.8" stroke="red" stroke-width="1" x1="82" x2="75" y1="125" y2="181" /><line opacity="0.8" stroke="red" stroke-width="1" x1="75" x2="164" y1="181" y2="194" /><line opacity="0.8" stroke="red" stroke-width="1" x1="75" x2="69" y1="181" y2="234" /><line opacity="0.8" stroke="red" stroke-width="1" x1="164" x2="157" y1="194" y2="247" /><line opacity="0.8" stroke="red" stroke-width="1" x1="69" x2="157" y1="234" y2="247" /><circle cx="98" cy="9" fill="white" opacity="0.8" r="2" stroke="green" stroke-width="1" /><circle cx="188" cy="20" fill="white" opacity="0.8" r="2" stroke="green" stroke-width="1" /><circle cx="89" cy="71" fill="white" opacity="0.8" r="2" stroke="green" stroke-width="1" /><circle cx="177" cy="84" fill="white" opacity="0.8" r="2" stroke="green" stroke-width="1" /><circle cx="82" cy="125" fill="white" opacity="0.8" r="2" stroke="green" stroke-width="1" /><circle cx="172" cy="138" fill="white" opacity="0.8" r="2" stroke="green" stroke-width="1" /><circle cx="75" cy="181" fill="white" opacity="0.8" r="2" stroke="green" stroke-width="1" /><circle cx="164" cy="194" fill="white" opacity="0.8" r="2" stroke="green" stroke-width="1" /><circle cx="69" cy="234" fill="white" opacity="0.8" r="2" stroke="green" stroke-width="1" /><circle cx="157" cy="247" fill="white" opacity="0.8" r="2" stroke="green" stroke-width="1" /></g></svg>