<?xml version="1.0" encoding="utf-8" ?>
<svg baseProfile="full" height="256" version="1.1" width="256" xmlns="http://www.w3.org/2000/svg" xmlns:ev="http://www.w3.org/2001/xml-events" xmlns:xlink="http://www.w3.org/1999/xlink"><defs /><g fill="black" id="shape"><line opacity="0.8" stroke="red" stroke-width="1" x1="145" x2="135" y1="73" y2="74" /><line opacity="0.8" stroke="red" stroke-width="1" x1="135" x2="109" y1="74" y2="76" /><line opacity="0.8" stroke="red" stroke-width="1" x1="135" x2="142" y1="74" y2="122" /><line opacity="0.8" stroke="red" stroke-width="1" x1="109" x2="110" y1="76" y2="123" /><line opacity="0.8" stroke="red" stroke-width="1" x1="142" x2="147" y1="122" y2="172" /><line opacity="0.8" stroke="red" stroke-width="1" x1="110" x2="117" y1="123" y2="126" /><line opacity="0.8" stroke="red" stroke-width="1" x1="117" x2="121" y1="126" y2="175" /><line opacity="0.8" stroke="red" stroke-width="1" x1="147" x2="121" y1="172" y2="175" /><line opacity="0.8" stroke="red" stroke-width="1" x1="121" x2="111" y1="175" y2="176" /><circle cx="145" cy="73" fill="white" opacity="0.8" r="2" stroke="green" stroke-width="1" /><circle cx="135" cy="74" fill="white" opacity="0.8" r="2" stroke="green" stroke-width="1" /><circle cx="109" cy="76" fill="white" opacity="0.8" r="2" stroke="green" stroke-width="1" /><circle cx="142" cy="122" fill="white" opacity="0.8" r="2" stroke="green" stroke-width="1" /><circle cx="110" cy="123" fill="white" opacity="0.8" r="2" stroke="green" stroke-width="1" /><circle cx="117" cy="126" fill="white" opacity="0.8" r="2" stroke="green" stroke-width="1" /><circle cx="147" cy="172" fill="white" opacity="0.8" r="2" stroke="green" stroke-width="1" /><circle cx="121" cy="175" fill="white" opacity="0.8" r="2" stroke="green" stroke-width="1" /><circle cx="111" cy="176" fill="white" opacity="0.8" r="2" stroke="green" stroke-width="1" /></g></svg>