<?xml version="1.0" encoding="utf-8" ?>
<svg baseProfile="full" height="256" version="1.1" width="256" xmlns="http://www.w3.org/2000/svg" xmlns:ev="http://www.w3.org/2001/xml-events" xmlns:xlink="http://www.w3.org/1999/xlink"><defs /><g fill="black" id="shape"><line opacity="0.8" stroke="red" stroke-width="1" x1="104" x2="178" y1="69" y2="85" /><line opacity="0.8" stroke="red" stroke-width="1" x1="178" x2="177" y1="85" y2="114" /><line opacity="0.8" stroke="red" stroke-width="1" x1="97" x2="177" y1="103" y2="114" /><line opacity="0.8" stroke="red" stroke-width="1" x1="177" x2="79" y1="114" y2="115" /><line opacity="0.8" stroke="red" stroke-width="1" x1="177" x2="177" y1="114" y2="159" /><line opacity="0.8" stroke="red" stroke-width="1" x1="79" x2="78" y1="115" y2="186" /><line opacity="0.8" stroke="red" stroke-width="1" x1="155" x2="177" y1="158" y2="159" /><line opacity="0.8" stroke="red" stroke-width="1" x1="155" x2="156" y1="158" y2="183" /><line opacity="0.8" stroke="red" stroke-width="1" x1="156" x2="78" y1="183" y2="186" /><circle cx="104" cy="69" fill="white" opacity="0.8" r="2" stroke="green" stroke-width="1" /><circle cx="178" cy="85" fill="white" opacity="0.8" r="2" stroke="green" stroke-width="1" /><circle cx="97" cy="103" fill="white" opacity="0.8" r="2" stroke="green" stroke-width="1" /><circle cx="177" cy="114" fill="white" opacity="0.8" r="2" stroke="green" stroke-width="1" /><circle cx="79" cy="115" fill="white" opacity="0.8" r="2" stroke="green" stroke-width="1" /><circle cx="155" cy="158" fill="white" opacity="0.8" r="2" stroke="green" stroke-width="1" /><circle cx="177" cy="159" fill="white" opacity="0.8" r="2" stroke="green" stroke-width="1" /><circle cx="156" cy="183" fill="white" opacity="0.8" r="2" stroke="green" stroke-width="1" /><circle cx="78" cy="186" fill="white" opacity="0.8" r="2" stroke="green" stroke-width="1" /></g></svg>