<?xml version="1.0" encoding="utf-8" ?>
<svg baseProfile="full" height="256" version="1.1" width="256" xmlns="http://www.w3.org/2000/svg" xmlns:ev="http://www.w3.org/2001/xml-events" xmlns:xlink="http://www.w3.org/1999/xlink"><defs /><g fill="black" id="shape"><line opacity="0.8" stroke="red" stroke-width="1" x1="88" x2="100" y1="85" y2="85" /><line opacity="0.8" stroke="red" stroke-width="1" x1="88" x2="88" y1="85" y2="117" /><line opacity="0.8" stroke="red" stroke-width="1" x1="100" x2="156" y1="85" y2="85" /><line opacity="0.8" stroke="red" stroke-width="1" x1="100" x2="99" y1="85" y2="117" /><line opacity="0.8" stroke="red" stroke-width="1" x1="156" x2="158" y1="85" y2="118" /><line opacity="0.8" stroke="red" stroke-width="1" x1="88" x2="99" y1="117" y2="117" /><line opacity="0.8" stroke="red" stroke-width="1" x1="88" x2="89" y1="117" y2="170" /><line opacity="0.8" stroke="red" stroke-width="1" x1="99" x2="158" y1="117" y2="118" /><line opacity="0.8" stroke="red" stroke-width="1" x1="158" x2="157" y1="118" y2="133" /><line opacity="0.8" stroke="red" stroke-width="1" x1="157" x2="170" y1="133" y2="133" /><line opacity="0.8" stroke="red" stroke-width="1" x1="157" x2="157" y1="133" y2="164" /><line opacity="0.8" stroke="red" stroke-width="1" x1="157" x2="89" y1="164" y2="170" /><circle cx="88" cy="85" fill="white" opacity="0.8" r="2" stroke="green" stroke-width="1" /><circle cx="100" cy="85" fill="white" opacity="0.8" r="2" stroke="green" stroke-width="1" /><circle cx="156" cy="85" fill="white" opacity="0.8" r="2" stroke="green" stroke-width="1" /><circle cx="88" cy="117" fill="white" opacity="0.8" r="2" stroke="green" stroke-width="1" /><circle cx="99" cy="117" fill="white" opacity="0.8" r="2" stroke="green" stroke-width="1" /><circle cx="158" cy="118" fill="white" opacity="0.8" r="2" stroke="green" stroke-width="1" /><circle cx="157" cy="133" fill="white" opacity="0.8" r="2" stroke="green" stroke-width="1" /><circle cx="170" cy="133" fill="white" opacity="0.8" r="2" stroke="green" stroke-width="1" /><circle cx="157" cy="164" fill="white" opacity="0.8" r="2" stroke="green" stroke-width="1" /><circle cx="89" cy="170" fill="white" opacity="0.8" r="2" stroke="green" stroke-width="1" /></g></svg>