<?xml version="1.0" encoding="utf-8" ?>
<svg baseProfile="full" height="256" version="1.1" width="256" xmlns="http://www.w3.org/2000/svg" xmlns:ev="http://www.w3.org/2001/xml-events" xmlns:xlink="http://www.w3.org/1999/xlink"><defs /><g fill="black" id="shape"><line opacity="0.8" stroke="red" stroke-width="1" x1="158" x2="225" y1="80" y2="107" /><line opacity="0.8" stroke="red" stroke-width="1" x1="158" x2="139" y1="80" y2="112" /><line opacity="0.8" stroke="red" stroke-width="1" x1="64" x2="114" y1="86" y2="106" /><line opacity="0.8" stroke="red" stroke-width="1" x1="114" x2="139" y1="106" y2="112" /><line opacity="0.8" stroke="red" stroke-width="1" x1="114" x2="88" y1="106" y2="148" /><line opacity="0.8" stroke="red" stroke-width="1" x1="225" x2="181" y1="107" y2="176" /><line opacity="0.8" stroke="red" stroke-width="1" x1="88" x2="128" y1="148" y2="162" /><line opacity="0.8" stroke="red" stroke-width="1" x1="142" x2="134" y1="160" y2="170" /><line opacity="0.8" stroke="red" stroke-width="1" x1="142" x2="181" y1="160" y2="176" /><line opacity="0.8" stroke="red" stroke-width="1" x1="128" x2="134" y1="162" y2="170" /><circle cx="158" cy="80" fill="white" opacity="0.8" r="2" stroke="green" stroke-width="1" /><circle cx="64" cy="86" fill="white" opacity="0.8" r="2" stroke="green" stroke-width="1" /><circle cx="114" cy="106" fill="white" opacity="0.8" r="2" stroke="green" stroke-width="1" /><circle cx="225" cy="107" fill="white" opacity="0.8" r="2" stroke="green" stroke-width="1" /><circle cx="139" cy="112" fill="white" opacity="0.8" r="2" stroke="green" stroke-width="1" /><circle cx="88" cy="148" fill="white" opacity="0.8" r="2" stroke="green" stroke-width="1" /><circle cx="142" cy="160" fill="white" opacity="0.8" r="2" stroke="green" stroke-width="1" /><circle cx="128" cy="162" fill="white" opacity="0.8" r="2" stroke="green" stroke-width="1" /><circle cx="134" cy="170" fill="white" opacity="0.8" r="2" stroke="green" stroke-width="1" /><circle cx="181" cy="176" fill="white" opacity="0.8" r="2" stroke="green" stroke-width="1" /></g></svg>