<?xml version="1.0" encoding="utf-8" ?>
<svg baseProfile="full" height="256" version="1.1" width="256" xmlns="http://www.w3.org/2000/svg" xmlns:ev="http://www.w3.org/2001/xml-events" xmlns:xlink="http://www.w3.org/1999/xlink"><defs /><g fill="black" id="shape"><line opacity="0.8" stroke="red" stroke-width="1" x1="238" x2="58" y1="92" y2="96" /><line opacity="0.8" stroke="red" stroke-width="1" x1="238" x2="239" y1="92" y2="103" /><line opacity="0.8" stroke="red" stroke-width="1" x1="58" x2="60" y1="96" y2="159" /><line opacity="0.8" stroke="red" stroke-width="1" x1="239" x2="237" y1="103" y2="157" /><line opacity="0.8" stroke="red" stroke-width="1" x1="11" x2="53" y1="104" y2="105" /><line opacity="0.8" stroke="red" stroke-width="1" x1="11" x2="12" y1="104" y2="123" /><line opacity="0.8" stroke="red" stroke-width="1" x1="53" x2="50" y1="105" y2="124" /><line opacity="0.8" stroke="red" stroke-width="1" x1="12" x2="50" y1="123" y2="124" /><line opacity="0.8" stroke="red" stroke-width="1" x1="237" x2="60" y1="157" y2="159" /><circle cx="238" cy="92" fill="white" opacity="0.8" r="2" stroke="green" stroke-width="1" /><circle cx="58" cy="96" fill="white" opacity="0.8" r="2" stroke="green" stroke-width="1" /><circle cx="239" cy="103" fill="white" opacity="0.8" r="2" stroke="green" stroke-width="1" /><circle cx="11" cy="104" fill="white" opacity="0.8" r="2" stroke="green" stroke-width="1" /><circle cx="53" cy="105" fill="white" opacity="0.8" r="2" stroke="green" stroke-width="1" /><circle cx="12" cy="123" fill="white" opacity="0.8" r="2" stroke="green" stroke-width="1" /><circle cx="50" cy="124" fill="white" opacity="0.8" r="2" stroke="green" stroke-width="1" /><circle cx="237" cy="157" fill="white" opacity="0.8" r="2" stroke="green" stroke-width="1" /><circle cx="60" cy="159" fill="white" opacity="0.8" r="2" stroke="green" stroke-width="1" /></g></svg>