<?xml version="1.0" encoding="utf-8" ?>
<svg baseProfile="full" height="256" version="1.1" width="256" xmlns="http://www.w3.org/2000/svg" xmlns:ev="http://www.w3.org/2001/xml-events" xmlns:xlink="http://www.w3.org/1999/xlink"><defs /><g fill="black" id="shape"><line opacity="0.8" stroke="red" stroke-width="1" x1="169" x2="159" y1="74" y2="78" /><line opacity="0.8" stroke="red" stroke-width="1" x1="169" x2="185" y1="74" y2="97" /><line opacity="0.8" stroke="red" stroke-width="1" x1="159" x2="109" y1="78" y2="94" /><line opacity="0.8" stroke="red" stroke-width="1" x1="159" x2="169" y1="78" y2="94" /><line opacity="0.8" stroke="red" stroke-width="1" x1="230" x2="191" y1="90" y2="103" /><line opacity="0.8" stroke="red" stroke-width="1" x1="230" x2="248" y1="90" y2="121" /><line opacity="0.8" stroke="red" stroke-width="1" x1="109" x2="47" y1="94" y2="112" /><line opacity="0.8" stroke="red" stroke-width="1" x1="109" x2="140" y1="94" y2="136" /><line opacity="0.8" stroke="red" stroke-width="1" x1="169" x2="185" y1="94" y2="97" /><line opacity="0.8" stroke="red" stroke-width="1" x1="185" x2="191" y1="97" y2="103" /><line opacity="0.8" stroke="red" stroke-width="1" x1="191" x2="202" y1="103" y2="119" /><line opacity="0.8" stroke="red" stroke-width="1" x1="47" x2="8" y1="112" y2="122" /><line opacity="0.8" stroke="red" stroke-width="1" x1="47" x2="78" y1="112" y2="155" /><line opacity="0.8" stroke="red" stroke-width="1" x1="202" x2="213" y1="119" y2="132" /><line opacity="0.8" stroke="red" stroke-width="1" x1="202" x2="157" y1="119" y2="138" /><line opacity="0.8" stroke="red" stroke-width="1" x1="248" x2="213" y1="121" y2="132" /><line opacity="0.8" stroke="red" stroke-width="1" x1="8" x2="50" y1="122" y2="181" /><line opacity="0.8" stroke="red" stroke-width="1" x1="140" x2="150" y1="136" y2="150" /><line opacity="0.8" stroke="red" stroke-width="1" x1="157" x2="162" y1="138" y2="146" /><line opacity="0.8" stroke="red" stroke-width="1" x1="162" x2="150" y1="146" y2="150" /><line opacity="0.8" stroke="red" stroke-width="1" x1="150" x2="87" y1="150" y2="170" /><line opacity="0.8" stroke="red" stroke-width="1" x1="78" x2="87" y1="155" y2="170" /><line opacity="0.8" stroke="red" stroke-width="1" x1="87" x2="66" y1="170" y2="177" /><line opacity="0.8" stroke="red" stroke-width="1" x1="66" x2="50" y1="177" y2="181" /><circle cx="169" cy="74" fill="white" opacity="0.8" r="2" stroke="green" stroke-width="1" /><circle cx="159" cy="78" fill="white" opacity="0.8" r="2" stroke="green" stroke-width="1" /><circle cx="230" cy="90" fill="white" opacity="0.8" r="2" stroke="green" stroke-width="1" /><circle cx="109" cy="94" fill="white" opacity="0.8" r="2" stroke="green" stroke-width="1" /><circle cx="169" cy="94" fill="white" opacity="0.8" r="2" stroke="green" stroke-width="1" /><circle cx="185" cy="97" fill="white" opacity="0.8" r="2" stroke="green" stroke-width="1" /><circle cx="191" cy="103" fill="white" opacity="0.8" r="2" stroke="green" stroke-width="1" /><circle cx="47" cy="112" fill="white" opacity="0.8" r="2" stroke="green" stroke-width="1" /><circle cx="202" cy="119" fill="white" opacity="0.8" r="2" stroke="green" stroke-width="1" /><circle cx="248" cy="121" fill="white" opacity="0.8" r="2" stroke="green" stroke-width="1" /><circle cx="8" cy="122" fill="white" opacity="0.8" r="2" stroke="green" stroke-width="1" /><circle cx="213" cy="132" fill="white" opacity="0.8" r="2" stroke="green" stroke-width="1" /><circle cx="140" cy="136" fill="white" opacity="0.8" r="2" stroke="green" stroke-width="1" /><circle cx="157" cy="138" fill="white" opacity="0.8" r="2" stroke="green" stroke-width="1" /><circle cx="162" cy="146" fill="white" opacity="0.8" r="2" stroke="green" stroke-width="1" /><circle cx="150" cy="150" fill="white" opacity="0.8" r="2" stroke="green" stroke-width="1" /><circle cx="78" cy="155" fill="white" opacity="0.8" r="2" stroke="green" stroke-width="1" /><circle cx="87" cy="170" fill="white" opacity="0.8" r="2" stroke="green" stroke-width="1" /><circle cx="66" cy="177" fill="white" opacity="0.8" r="2" stroke="green" stroke-width="1" /><circle cx="50" cy="181" fill="white" opacity="0.8" r="2" stroke="green" stroke-width="1" /></g></svg>