<?xml version="1.0" encoding="utf-8" ?>
<svg baseProfile="full" height="256" version="1.1" width="256" xmlns="http://www.w3.org/2000/svg" xmlns:ev="http://www.w3.org/2001/xml-events" xmlns:xlink="http://www.w3.org/1999/xlink"><defs /><g fill="black" id="shape"><line opacity="0.8" stroke="red" stroke-width="1" x1="195" x2="137" y1="22" y2="25" /><line opacity="0.8" stroke="red" stroke-width="1" x1="195" x2="202" y1="22" y2="199" /><line opacity="0.8" stroke="red" stroke-width="1" x1="137" x2="74" y1="25" y2="26" /><line opacity="0.8" stroke="red" stroke-width="1" x1="74" x2="74" y1="26" y2="55" /><line opacity="0.8" stroke="red" stroke-width="1" x1="74" x2="52" y1="55" y2="56" /><line opacity="0.8" stroke="red" stroke-width="1" x1="74" x2="74" y1="55" y2="73" /><line opacity="0.8" stroke="red" stroke-width="1" x1="52" x2="53" y1="56" y2="77" /><line opacity="0.8" stroke="red" stroke-width="1" x1="74" x2="53" y1="73" y2="77" /><line opacity="0.8" stroke="red" stroke-width="1" x1="76" x2="79" y1="133" y2="176" /><line opacity="0.8" stroke="red" stroke-width="1" x1="79" x2="67" y1="176" y2="176" /><line opacity="0.8" stroke="red" stroke-width="1" x1="79" x2="80" y1="176" y2="195" /><line opacity="0.8" stroke="red" stroke-width="1" x1="67" x2="68" y1="176" y2="196" /><line opacity="0.8" stroke="red" stroke-width="1" x1="80" x2="68" y1="195" y2="196" /><line opacity="0.8" stroke="red" stroke-width="1" x1="202" x2="145" y1="199" y2="201" /><line opacity="0.8" stroke="red" stroke-width="1" x1="145" x2="77" y1="201" y2="203" /><line opacity="0.8" stroke="red" stroke-width="1" x1="145" x2="143" y1="201" y2="230" /><line opacity="0.8" stroke="red" stroke-width="1" x1="77" x2="78" y1="203" y2="232" /><line opacity="0.8" stroke="red" stroke-width="1" x1="143" x2="78" y1="230" y2="232" /><circle cx="195" cy="22" fill="white" opacity="0.8" r="2" stroke="green" stroke-width="1" /><circle cx="137" cy="25" fill="white" opacity="0.8" r="2" stroke="green" stroke-width="1" /><circle cx="74" cy="26" fill="white" opacity="0.8" r="2" stroke="green" stroke-width="1" /><circle cx="74" cy="55" fill="white" opacity="0.8" r="2" stroke="green" stroke-width="1" /><circle cx="52" cy="56" fill="white" opacity="0.8" r="2" stroke="green" stroke-width="1" /><circle cx="74" cy="73" fill="white" opacity="0.8" r="2" stroke="green" stroke-width="1" /><circle cx="53" cy="77" fill="white" opacity="0.8" r="2" stroke="green" stroke-width="1" /><circle cx="76" cy="133" fill="white" opacity="0.8" r="2" stroke="green" stroke-width="1" /><circle cx="79" cy="176" fill="white" opacity="0.8" r="2" stroke="green" stroke-width="1" /><circle cx="67" cy="176" fill="white" opacity="0.8" r="2" stroke="green" stroke-width="1" /><circle cx="80" cy="195" fill="white" opacity="0.8" r="2" stroke="green" stroke-width="1" /><circle cx="68" cy="196" fill="white" opacity="0.8" r="2" stroke="green" stroke-width="1" /><circle cx="202" cy="199" fill="white" opacity="0.8" r="2" stroke="green" stroke-width="1" /><circle cx="145" cy="201" fill="white" opacity="0.8" r="2" stroke="green" stroke-width="1" /><circle cx="77" cy="203" fill="white" opacity="0.8" r="2" stroke="green" stroke-width="1" /><circle cx="143" cy="230" fill="white" opacity="0.8" r="2" stroke="green" stroke-width="1" /><circle cx="78" cy="232" fill="white" opacity="0.8" r="2" stroke="green" stroke-width="1" /></g></svg>