<?xml version="1.0" encoding="utf-8" ?>
<svg baseProfile="full" height="256" version="1.1" width="256" xmlns="http://www.w3.org/2000/svg" xmlns:ev="http://www.w3.org/2001/xml-events" xmlns:xlink="http://www.w3.org/1999/xlink"><defs /><g fill="black" id="shape"><line opacity="0.8" stroke="red" stroke-width="1" x1="119" x2="170" y1="50" y2="57" /><line opacity="0.8" stroke="red" stroke-width="1" x1="119" x2="116" y1="50" y2="60" /><line opacity="0.8" stroke="red" stroke-width="1" x1="170" x2="237" y1="57" y2="91" /><line opacity="0.8" stroke="red" stroke-width="1" x1="108" x2="116" y1="59" y2="60" /><line opacity="0.8" stroke="red" stroke-width="1" x1="108" x2="102" y1="59" y2="72" /><line opacity="0.8" stroke="red" stroke-width="1" x1="148" x2="241" y1="64" y2="79" /><line opacity="0.8" stroke="red" stroke-width="1" x1="148" x2="137" y1="64" y2="90" /><line opacity="0.8" stroke="red" stroke-width="1" x1="102" x2="110" y1="72" y2="74" /><line opacity="0.8" stroke="red" stroke-width="1" x1="102" x2="93" y1="72" y2="94" /><line opacity="0.8" stroke="red" stroke-width="1" x1="110" x2="106" y1="74" y2="84" /><line opacity="0.8" stroke="red" stroke-width="1" x1="241" x2="237" y1="79" y2="91" /><line opacity="0.8" stroke="red" stroke-width="1" x1="106" x2="137" y1="84" y2="90" /><line opacity="0.8" stroke="red" stroke-width="1" x1="137" x2="153" y1="90" y2="93" /><line opacity="0.8" stroke="red" stroke-width="1" x1="237" x2="230" y1="91" y2="106" /><line opacity="0.8" stroke="red" stroke-width="1" x1="79" x2="93" y1="93" y2="94" /><line opacity="0.8" stroke="red" stroke-width="1" x1="79" x2="74" y1="93" y2="106" /><line opacity="0.8" stroke="red" stroke-width="1" x1="153" x2="148" y1="93" y2="105" /><line opacity="0.8" stroke="red" stroke-width="1" x1="93" x2="74" y1="94" y2="106" /><line opacity="0.8" stroke="red" stroke-width="1" x1="93" x2="88" y1="94" y2="108" /><line opacity="0.8" stroke="red" stroke-width="1" x1="44" x2="74" y1="102" y2="106" /><line opacity="0.8" stroke="red" stroke-width="1" x1="44" x2="42" y1="102" y2="115" /><line opacity="0.8" stroke="red" stroke-width="1" x1="148" x2="186" y1="105" y2="112" /><line opacity="0.8" stroke="red" stroke-width="1" x1="230" x2="225" y1="106" y2="119" /><line opacity="0.8" stroke="red" stroke-width="1" x1="74" x2="88" y1="106" y2="108" /><line opacity="0.8" stroke="red" stroke-width="1" x1="88" x2="185" y1="108" y2="124" /><line opacity="0.8" stroke="red" stroke-width="1" x1="186" x2="225" y1="112" y2="119" /><line opacity="0.8" stroke="red" stroke-width="1" x1="186" x2="185" y1="112" y2="124" /><line opacity="0.8" stroke="red" stroke-width="1" x1="42" x2="17" y1="115" y2="176" /><line opacity="0.8" stroke="red" stroke-width="1" x1="42" x2="5" y1="115" y2="178" /><line opacity="0.8" stroke="red" stroke-width="1" x1="185" x2="181" y1="124" y2="137" /><line opacity="0.8" stroke="red" stroke-width="1" x1="181" x2="225" y1="137" y2="145" /><line opacity="0.8" stroke="red" stroke-width="1" x1="225" x2="192" y1="145" y2="206" /><line opacity="0.8" stroke="red" stroke-width="1" x1="17" x2="5" y1="176" y2="178" /><line opacity="0.8" stroke="red" stroke-width="1" x1="17" x2="192" y1="176" y2="206" /><circle cx="119" cy="50" fill="white" opacity="0.8" r="2" stroke="green" stroke-width="1" /><circle cx="170" cy="57" fill="white" opacity="0.8" r="2" stroke="green" stroke-width="1" /><circle cx="108" cy="59" fill="white" opacity="0.8" r="2" stroke="green" stroke-width="1" /><circle cx="116" cy="60" fill="white" opacity="0.8" r="2" stroke="green" stroke-width="1" /><circle cx="148" cy="64" fill="white" opacity="0.8" r="2" stroke="green" stroke-width="1" /><circle cx="102" cy="72" fill="white" opacity="0.8" r="2" stroke="green" stroke-width="1" /><circle cx="110" cy="74" fill="white" opacity="0.8" r="2" stroke="green" stroke-width="1" /><circle cx="241" cy="79" fill="white" opacity="0.8" r="2" stroke="green" stroke-width="1" /><circle cx="106" cy="84" fill="white" opacity="0.8" r="2" stroke="green" stroke-width="1" /><circle cx="137" cy="90" fill="white" opacity="0.8" r="2" stroke="green" stroke-width="1" /><circle cx="237" cy="91" fill="white" opacity="0.8" r="2" stroke="green" stroke-width="1" /><circle cx="79" cy="93" fill="white" opacity="0.8" r="2" stroke="green" stroke-width="1" /><circle cx="153" cy="93" fill="white" opacity="0.8" r="2" stroke="green" stroke-width="1" /><circle cx="93" cy="94" fill="white" opacity="0.8" r="2" stroke="green" stroke-width="1" /><circle cx="44" cy="102" fill="white" opacity="0.8" r="2" stroke="green" stroke-width="1" /><circle cx="148" cy="105" fill="white" opacity="0.8" r="2" stroke="green" stroke-width="1" /><circle cx="230" cy="106" fill="white" opacity="0.8" r="2" stroke="green" stroke-width="1" /><circle cx="74" cy="106" fill="white" opacity="0.8" r="2" stroke="green" stroke-width="1" /><circle cx="88" cy="108" fill="white" opacity="0.8" r="2" stroke="green" stroke-width="1" /><circle cx="186" cy="112" fill="white" opacity="0.8" r="2" stroke="green" stroke-width="1" /><circle cx="42" cy="115" fill="white" opacity="0.8" r="2" stroke="green" stroke-width="1" /><circle cx="225" cy="119" fill="white" opacity="0.8" r="2" stroke="green" stroke-width="1" /><circle cx="185" cy="124" fill="white" opacity="0.8" r="2" stroke="green" stroke-width="1" /><circle cx="181" cy="137" fill="white" opacity="0.8" r="2" stroke="green" stroke-width="1" /><circle cx="225" cy="145" fill="white" opacity="0.8" r="2" stroke="green" stroke-width="1" /><circle cx="17" cy="176" fill="white" opacity="0.8" r="2" stroke="green" stroke-width="1" /><circle cx="5" cy="178" fill="white" opacity="0.8" r="2" stroke="green" stroke-width="1" /><circle cx="192" cy="206" fill="white" opacity="0.8" r="2" stroke="green" stroke-width="1" /></g></svg>