<?xml version="1.0" encoding="utf-8" ?>
<svg baseProfile="full" height="256" version="1.1" width="256" xmlns="http://www.w3.org/2000/svg" xmlns:ev="http://www.w3.org/2001/xml-events" xmlns:xlink="http://www.w3.org/1999/xlink"><defs /><g fill="black" id="shape"><line opacity="0.8" stroke="red" stroke-width="1" x1="37" x2="234" y1="77" y2="109" /><line opacity="0.8" stroke="red" stroke-width="1" x1="37" x2="23" y1="77" y2="150" /><line opacity="0.8" stroke="red" stroke-width="1" x1="47" x2="215" y1="90" y2="116" /><line opacity="0.8" stroke="red" stroke-width="1" x1="47" x2="38" y1="90" y2="126" /><line opacity="0.8" stroke="red" stroke-width="1" x1="234" x2="213" y1="109" y2="165" /><line opacity="0.8" stroke="red" stroke-width="1" x1="215" x2="206" y1="116" y2="153" /><line opacity="0.8" stroke="red" stroke-width="1" x1="38" x2="47" y1="126" y2="130" /><line opacity="0.8" stroke="red" stroke-width="1" x1="47" x2="42" y1="130" y2="153" /><line opacity="0.8" stroke="red" stroke-width="1" x1="78" x2="160" y1="146" y2="158" /><line opacity="0.8" stroke="red" stroke-width="1" x1="78" x2="76" y1="146" y2="159" /><line opacity="0.8" stroke="red" stroke-width="1" x1="23" x2="42" y1="150" y2="153" /><line opacity="0.8" stroke="red" stroke-width="1" x1="196" x2="206" y1="151" y2="153" /><line opacity="0.8" stroke="red" stroke-width="1" x1="196" x2="191" y1="151" y2="176" /><line opacity="0.8" stroke="red" stroke-width="1" x1="42" x2="76" y1="153" y2="159" /><line opacity="0.8" stroke="red" stroke-width="1" x1="160" x2="158" y1="158" y2="170" /><line opacity="0.8" stroke="red" stroke-width="1" x1="76" x2="158" y1="159" y2="170" /><line opacity="0.8" stroke="red" stroke-width="1" x1="213" x2="212" y1="165" y2="180" /><line opacity="0.8" stroke="red" stroke-width="1" x1="158" x2="191" y1="170" y2="176" /><circle cx="37" cy="77" fill="white" opacity="0.8" r="2" stroke="green" stroke-width="1" /><circle cx="47" cy="90" fill="white" opacity="0.8" r="2" stroke="green" stroke-width="1" /><circle cx="234" cy="109" fill="white" opacity="0.8" r="2" stroke="green" stroke-width="1" /><circle cx="215" cy="116" fill="white" opacity="0.8" r="2" stroke="green" stroke-width="1" /><circle cx="38" cy="126" fill="white" opacity="0.8" r="2" stroke="green" stroke-width="1" /><circle cx="47" cy="130" fill="white" opacity="0.8" r="2" stroke="green" stroke-width="1" /><circle cx="78" cy="146" fill="white" opacity="0.8" r="2" stroke="green" stroke-width="1" /><circle cx="23" cy="150" fill="white" opacity="0.8" r="2" stroke="green" stroke-width="1" /><circle cx="196" cy="151" fill="white" opacity="0.8" r="2" stroke="green" stroke-width="1" /><circle cx="206" cy="153" fill="white" opacity="0.8" r="2" stroke="green" stroke-width="1" /><circle cx="42" cy="153" fill="white" opacity="0.8" r="2" stroke="green" stroke-width="1" /><circle cx="160" cy="158" fill="white" opacity="0.8" r="2" stroke="green" stroke-width="1" /><circle cx="76" cy="159" fill="white" opacity="0.8" r="2" stroke="green" stroke-width="1" /><circle cx="213" cy="165" fill="white" opacity="0.8" r="2" stroke="green" stroke-width="1" /><circle cx="158" cy="170" fill="white" opacity="0.8" r="2" stroke="green" stroke-width="1" /><circle cx="191" cy="176" fill="white" opacity="0.8" r="2" stroke="green" stroke-width="1" /><circle cx="212" cy="180" fill="white" opacity="0.8" r="2" stroke="green" stroke-width="1" /></g></svg>