<?xml version="1.0" encoding="utf-8" ?>
<svg baseProfile="full" height="256" version="1.1" width="256" xmlns="http://www.w3.org/2000/svg" xmlns:ev="http://www.w3.org/2001/xml-events" xmlns:xlink="http://www.w3.org/1999/xlink"><defs /><g fill="black" id="shape"><line opacity="0.8" stroke="red" stroke-width="1" x1="117" x2="112" y1="59" y2="68" /><line opacity="0.8" stroke="red" stroke-width="1" x1="117" x2="142" y1="59" y2="74" /><line opacity="0.8" stroke="red" stroke-width="1" x1="163" x2="142" y1="62" y2="74" /><line opacity="0.8" stroke="red" stroke-width="1" x1="163" x2="242" y1="62" y2="111" /><line opacity="0.8" stroke="red" stroke-width="1" x1="112" x2="133" y1="68" y2="82" /><line opacity="0.8" stroke="red" stroke-width="1" x1="112" x2="17" y1="68" y2="133" /><line opacity="0.8" stroke="red" stroke-width="1" x1="142" x2="133" y1="74" y2="82" /><line opacity="0.8" stroke="red" stroke-width="1" x1="133" x2="211" y1="82" y2="131" /><line opacity="0.8" stroke="red" stroke-width="1" x1="242" x2="211" y1="111" y2="131" /><line opacity="0.8" stroke="red" stroke-width="1" x1="211" x2="116" y1="131" y2="196" /><line opacity="0.8" stroke="red" stroke-width="1" x1="17" x2="116" y1="133" y2="196" /><circle cx="117" cy="59" fill="white" opacity="0.8" r="2" stroke="green" stroke-width="1" /><circle cx="163" cy="62" fill="white" opacity="0.8" r="2" stroke="green" stroke-width="1" /><circle cx="112" cy="68" fill="white" opacity="0.8" r="2" stroke="green" stroke-width="1" /><circle cx="142" cy="74" fill="white" opacity="0.8" r="2" stroke="green" stroke-width="1" /><circle cx="157" cy="81" fill="white" opacity="0.8" r="2" stroke="green" stroke-width="1" /><circle cx="133" cy="82" fill="white" opacity="0.8" r="2" stroke="green" stroke-width="1" /><circle cx="242" cy="111" fill="white" opacity="0.8" r="2" stroke="green" stroke-width="1" /><circle cx="211" cy="131" fill="white" opacity="0.8" r="2" stroke="green" stroke-width="1" /><circle cx="60" cy="132" fill="white" opacity="0.8" r="2" stroke="green" stroke-width="1" /><circle cx="17" cy="133" fill="white" opacity="0.8" r="2" stroke="green" stroke-width="1" /><circle cx="237" cy="157" fill="white" opacity="0.8" r="2" stroke="green" stroke-width="1" /><circle cx="116" cy="196" fill="white" opacity="0.8" r="2" stroke="green" stroke-width="1" /></g></svg>