<?xml version="1.0" encoding="utf-8" ?>
<svg baseProfile="full" height="256" version="1.1" width="256" xmlns="http://www.w3.org/2000/svg" xmlns:ev="http://www.w3.org/2001/xml-events" xmlns:xlink="http://www.w3.org/1999/xlink"><defs /><g fill="black" id="shape"><line opacity="0.8" stroke="red" stroke-width="1" x1="120" x2="28" y1="103" y2="104" /><line opacity="0.8" stroke="red" stroke-width="1" x1="120" x2="229" y1="103" y2="105" /><line opacity="0.8" stroke="red" stroke-width="1" x1="120" x2="119" y1="103" y2="118" /><line opacity="0.8" stroke="red" stroke-width="1" x1="28" x2="27" y1="104" y2="153" /><line opacity="0.8" stroke="red" stroke-width="1" x1="229" x2="229" y1="105" y2="132" /><line opacity="0.8" stroke="red" stroke-width="1" x1="119" x2="120" y1="118" y2="151" /><line opacity="0.8" stroke="red" stroke-width="1" x1="215" x2="229" y1="131" y2="132" /><line opacity="0.8" stroke="red" stroke-width="1" x1="215" x2="216" y1="131" y2="142" /><line opacity="0.8" stroke="red" stroke-width="1" x1="216" x2="202" y1="142" y2="142" /><line opacity="0.8" stroke="red" stroke-width="1" x1="202" x2="203" y1="142" y2="156" /><line opacity="0.8" stroke="red" stroke-width="1" x1="120" x2="186" y1="151" y2="151" /><line opacity="0.8" stroke="red" stroke-width="1" x1="120" x2="27" y1="151" y2="153" /><line opacity="0.8" stroke="red" stroke-width="1" x1="186" x2="203" y1="151" y2="156" /><circle cx="120" cy="103" fill="white" opacity="0.8" r="2" stroke="green" stroke-width="1" /><circle cx="28" cy="104" fill="white" opacity="0.8" r="2" stroke="green" stroke-width="1" /><circle cx="229" cy="105" fill="white" opacity="0.8" r="2" stroke="green" stroke-width="1" /><circle cx="119" cy="118" fill="white" opacity="0.8" r="2" stroke="green" stroke-width="1" /><circle cx="215" cy="131" fill="white" opacity="0.8" r="2" stroke="green" stroke-width="1" /><circle cx="229" cy="132" fill="white" opacity="0.8" r="2" stroke="green" stroke-width="1" /><circle cx="216" cy="142" fill="white" opacity="0.8" r="2" stroke="green" stroke-width="1" /><circle cx="202" cy="142" fill="white" opacity="0.8" r="2" stroke="green" stroke-width="1" /><circle cx="120" cy="151" fill="white" opacity="0.8" r="2" stroke="green" stroke-width="1" /><circle cx="186" cy="151" fill="white" opacity="0.8" r="2" stroke="green" stroke-width="1" /><circle cx="27" cy="153" fill="white" opacity="0.8" r="2" stroke="green" stroke-width="1" /><circle cx="203" cy="156" fill="white" opacity="0.8" r="2" stroke="green" stroke-width="1" /></g></svg>