<?xml version="1.0" encoding="utf-8" ?>
<svg baseProfile="full" height="256" version="1.1" width="256" xmlns="http://www.w3.org/2000/svg" xmlns:ev="http://www.w3.org/2001/xml-events" xmlns:xlink="http://www.w3.org/1999/xlink"><defs /><g fill="black" id="shape"><line opacity="0.8" stroke="red" stroke-width="1" x1="113" x2="148" y1="80" y2="84" /><line opacity="0.8" stroke="red" stroke-width="1" x1="113" x2="105" y1="80" y2="116" /><line opacity="0.8" stroke="red" stroke-width="1" x1="148" x2="143" y1="84" y2="109" /><line opacity="0.8" stroke="red" stroke-width="1" x1="143" x2="173" y1="109" y2="112" /><line opacity="0.8" stroke="red" stroke-width="1" x1="173" x2="163" y1="112" y2="168" /><line opacity="0.8" stroke="red" stroke-width="1" x1="92" x2="105" y1="115" y2="116" /><line opacity="0.8" stroke="red" stroke-width="1" x1="92" x2="84" y1="115" y2="160" /><line opacity="0.8" stroke="red" stroke-width="1" x1="84" x2="111" y1="160" y2="163" /><line opacity="0.8" stroke="red" stroke-width="1" x1="111" x2="146" y1="163" y2="165" /><line opacity="0.8" stroke="red" stroke-width="1" x1="111" x2="109" y1="163" y2="173" /><line opacity="0.8" stroke="red" stroke-width="1" x1="146" x2="163" y1="165" y2="168" /><line opacity="0.8" stroke="red" stroke-width="1" x1="146" x2="146" y1="165" y2="178" /><line opacity="0.8" stroke="red" stroke-width="1" x1="109" x2="146" y1="173" y2="178" /><circle cx="113" cy="80" fill="white" opacity="0.8" r="2" stroke="green" stroke-width="1" /><circle cx="148" cy="84" fill="white" opacity="0.8" r="2" stroke="green" stroke-width="1" /><circle cx="143" cy="109" fill="white" opacity="0.8" r="2" stroke="green" stroke-width="1" /><circle cx="173" cy="112" fill="white" opacity="0.8" r="2" stroke="green" stroke-width="1" /><circle cx="92" cy="115" fill="white" opacity="0.8" r="2" stroke="green" stroke-width="1" /><circle cx="105" cy="116" fill="white" opacity="0.8" r="2" stroke="green" stroke-width="1" /><circle cx="84" cy="160" fill="white" opacity="0.8" r="2" stroke="green" stroke-width="1" /><circle cx="111" cy="163" fill="white" opacity="0.8" r="2" stroke="green" stroke-width="1" /><circle cx="146" cy="165" fill="white" opacity="0.8" r="2" stroke="green" stroke-width="1" /><circle cx="163" cy="168" fill="white" opacity="0.8" r="2" stroke="green" stroke-width="1" /><circle cx="109" cy="173" fill="white" opacity="0.8" r="2" stroke="green" stroke-width="1" /><circle cx="146" cy="178" fill="white" opacity="0.8" r="2" stroke="green" stroke-width="1" /></g></svg>