<?xml version="1.0" encoding="utf-8" ?>
<svg baseProfile="full" height="256" version="1.1" width="256" xmlns="http://www.w3.org/2000/svg" xmlns:ev="http://www.w3.org/2001/xml-events" xmlns:xlink="http://www.w3.org/1999/xlink"><defs /><g fill="black" id="shape"><line opacity="0.8" stroke="red" stroke-width="1" x1="92" x2="78" y1="72" y2="87" /><line opacity="0.8" stroke="red" stroke-width="1" x1="92" x2="141" y1="72" y2="91" /><line opacity="0.8" stroke="red" stroke-width="1" x1="44" x2="78" y1="73" y2="87" /><line opacity="0.8" stroke="red" stroke-width="1" x1="44" x2="13" y1="73" y2="109" /><line opacity="0.8" stroke="red" stroke-width="1" x1="78" x2="148" y1="87" y2="115" /><line opacity="0.8" stroke="red" stroke-width="1" x1="185" x2="167" y1="102" y2="122" /><line opacity="0.8" stroke="red" stroke-width="1" x1="185" x2="240" y1="102" y2="125" /><line opacity="0.8" stroke="red" stroke-width="1" x1="13" x2="67" y1="109" y2="132" /><line opacity="0.8" stroke="red" stroke-width="1" x1="86" x2="138" y1="113" y2="129" /><line opacity="0.8" stroke="red" stroke-width="1" x1="86" x2="67" y1="113" y2="132" /><line opacity="0.8" stroke="red" stroke-width="1" x1="148" x2="167" y1="115" y2="122" /><line opacity="0.8" stroke="red" stroke-width="1" x1="148" x2="138" y1="115" y2="129" /><line opacity="0.8" stroke="red" stroke-width="1" x1="167" x2="221" y1="122" y2="144" /><line opacity="0.8" stroke="red" stroke-width="1" x1="240" x2="221" y1="125" y2="144" /><line opacity="0.8" stroke="red" stroke-width="1" x1="138" x2="117" y1="129" y2="151" /><line opacity="0.8" stroke="red" stroke-width="1" x1="138" x2="210" y1="129" y2="160" /><line opacity="0.8" stroke="red" stroke-width="1" x1="67" x2="117" y1="132" y2="151" /><line opacity="0.8" stroke="red" stroke-width="1" x1="221" x2="210" y1="144" y2="160" /><line opacity="0.8" stroke="red" stroke-width="1" x1="117" x2="188" y1="151" y2="181" /><line opacity="0.8" stroke="red" stroke-width="1" x1="210" x2="188" y1="160" y2="181" /><circle cx="92" cy="72" fill="white" opacity="0.8" r="2" stroke="green" stroke-width="1" /><circle cx="44" cy="73" fill="white" opacity="0.8" r="2" stroke="green" stroke-width="1" /><circle cx="78" cy="87" fill="white" opacity="0.8" r="2" stroke="green" stroke-width="1" /><circle cx="141" cy="91" fill="white" opacity="0.8" r="2" stroke="green" stroke-width="1" /><circle cx="185" cy="102" fill="white" opacity="0.8" r="2" stroke="green" stroke-width="1" /><circle cx="13" cy="109" fill="white" opacity="0.8" r="2" stroke="green" stroke-width="1" /><circle cx="86" cy="113" fill="white" opacity="0.8" r="2" stroke="green" stroke-width="1" /><circle cx="148" cy="115" fill="white" opacity="0.8" r="2" stroke="green" stroke-width="1" /><circle cx="167" cy="122" fill="white" opacity="0.8" r="2" stroke="green" stroke-width="1" /><circle cx="240" cy="125" fill="white" opacity="0.8" r="2" stroke="green" stroke-width="1" /><circle cx="138" cy="129" fill="white" opacity="0.8" r="2" stroke="green" stroke-width="1" /><circle cx="67" cy="132" fill="white" opacity="0.8" r="2" stroke="green" stroke-width="1" /><circle cx="221" cy="144" fill="white" opacity="0.8" r="2" stroke="green" stroke-width="1" /><circle cx="117" cy="151" fill="white" opacity="0.8" r="2" stroke="green" stroke-width="1" /><circle cx="210" cy="160" fill="white" opacity="0.8" r="2" stroke="green" stroke-width="1" /><circle cx="188" cy="181" fill="white" opacity="0.8" r="2" stroke="green" stroke-width="1" /></g></svg>