<?xml version="1.0" encoding="utf-8" ?>
<svg baseProfile="full" height="256" version="1.1" width="256" xmlns="http://www.w3.org/2000/svg" xmlns:ev="http://www.w3.org/2001/xml-events" xmlns:xlink="http://www.w3.org/1999/xlink"><defs /><g fill="black" id="shape"><line opacity="0.8" stroke="red" stroke-width="1" x1="117" x2="155" y1="50" y2="50" /><line opacity="0.8" stroke="red" stroke-width="1" x1="117" x2="117" y1="50" y2="120" /><line opacity="0.8" stroke="red" stroke-width="1" x1="155" x2="156" y1="50" y2="107" /><line opacity="0.8" stroke="red" stroke-width="1" x1="97" x2="117" y1="119" y2="120" /><line opacity="0.8" stroke="red" stroke-width="1" x1="97" x2="99" y1="119" y2="193" /><line opacity="0.8" stroke="red" stroke-width="1" x1="155" x2="156" y1="142" y2="204" /><line opacity="0.8" stroke="red" stroke-width="1" x1="99" x2="117" y1="193" y2="193" /><line opacity="0.8" stroke="red" stroke-width="1" x1="117" x2="117" y1="193" y2="204" /><line opacity="0.8" stroke="red" stroke-width="1" x1="117" x2="156" y1="204" y2="204" /><circle cx="117" cy="50" fill="white" opacity="0.8" r="2" stroke="green" stroke-width="1" /><circle cx="155" cy="50" fill="white" opacity="0.8" r="2" stroke="green" stroke-width="1" /><circle cx="156" cy="107" fill="white" opacity="0.8" r="2" stroke="green" stroke-width="1" /><circle cx="97" cy="119" fill="white" opacity="0.8" r="2" stroke="green" stroke-width="1" /><circle cx="117" cy="120" fill="white" opacity="0.8" r="2" stroke="green" stroke-width="1" /><circle cx="155" cy="142" fill="white" opacity="0.8" r="2" stroke="green" stroke-width="1" /><circle cx="99" cy="193" fill="white" opacity="0.8" r="2" stroke="green" stroke-width="1" /><circle cx="117" cy="193" fill="white" opacity="0.8" r="2" stroke="green" stroke-width="1" /><circle cx="117" cy="204" fill="white" opacity="0.8" r="2" stroke="green" stroke-width="1" /><circle cx="156" cy="204" fill="white" opacity="0.8" r="2" stroke="green" stroke-width="1" /></g></svg>