<?xml version="1.0" encoding="utf-8" ?>
<svg baseProfile="full" height="256" version="1.1" width="256" xmlns="http://www.w3.org/2000/svg" xmlns:ev="http://www.w3.org/2001/xml-events" xmlns:xlink="http://www.w3.org/1999/xlink"><defs /><g fill="black" id="shape"><line opacity="0.8" stroke="red" stroke-width="1" x1="108" x2="145" y1="79" y2="79" /><line opacity="0.8" stroke="red" stroke-width="1" x1="108" x2="109" y1="79" y2="88" /><line opacity="0.8" stroke="red" stroke-width="1" x1="145" x2="145" y1="79" y2="88" /><line opacity="0.8" stroke="red" stroke-width="1" x1="232" x2="145" y1="87" y2="88" /><line opacity="0.8" stroke="red" stroke-width="1" x1="232" x2="199" y1="87" y2="107" /><line opacity="0.8" stroke="red" stroke-width="1" x1="232" x2="232" y1="87" y2="146" /><line opacity="0.8" stroke="red" stroke-width="1" x1="109" x2="20" y1="88" y2="90" /><line opacity="0.8" stroke="red" stroke-width="1" x1="20" x2="22" y1="90" y2="175" /><line opacity="0.8" stroke="red" stroke-width="1" x1="199" x2="202" y1="107" y2="141" /><line opacity="0.8" stroke="red" stroke-width="1" x1="142" x2="146" y1="112" y2="125" /><line opacity="0.8" stroke="red" stroke-width="1" x1="41" x2="49" y1="114" y2="115" /><line opacity="0.8" stroke="red" stroke-width="1" x1="41" x2="44" y1="114" y2="127" /><line opacity="0.8" stroke="red" stroke-width="1" x1="49" x2="52" y1="115" y2="124" /><line opacity="0.8" stroke="red" stroke-width="1" x1="52" x2="44" y1="124" y2="127" /><line opacity="0.8" stroke="red" stroke-width="1" x1="109" x2="146" y1="124" y2="125" /><line opacity="0.8" stroke="red" stroke-width="1" x1="109" x2="110" y1="124" y2="148" /><line opacity="0.8" stroke="red" stroke-width="1" x1="146" x2="146" y1="125" y2="141" /><line opacity="0.8" stroke="red" stroke-width="1" x1="44" x2="45" y1="127" y2="150" /><line opacity="0.8" stroke="red" stroke-width="1" x1="146" x2="202" y1="141" y2="141" /><line opacity="0.8" stroke="red" stroke-width="1" x1="146" x2="146" y1="141" y2="149" /><line opacity="0.8" stroke="red" stroke-width="1" x1="202" x2="232" y1="141" y2="146" /><line opacity="0.8" stroke="red" stroke-width="1" x1="232" x2="232" y1="146" y2="174" /><line opacity="0.8" stroke="red" stroke-width="1" x1="110" x2="146" y1="148" y2="149" /><line opacity="0.8" stroke="red" stroke-width="1" x1="110" x2="45" y1="148" y2="150" /><line opacity="0.8" stroke="red" stroke-width="1" x1="110" x2="110" y1="148" y2="164" /><line opacity="0.8" stroke="red" stroke-width="1" x1="145" x2="110" y1="164" y2="164" /><line opacity="0.8" stroke="red" stroke-width="1" x1="145" x2="144" y1="164" y2="175" /><line opacity="0.8" stroke="red" stroke-width="1" x1="110" x2="111" y1="164" y2="178" /><line opacity="0.8" stroke="red" stroke-width="1" x1="232" x2="144" y1="174" y2="175" /><line opacity="0.8" stroke="red" stroke-width="1" x1="22" x2="111" y1="175" y2="178" /><circle cx="108" cy="79" fill="white" opacity="0.8" r="2" stroke="green" stroke-width="1" /><circle cx="145" cy="79" fill="white" opacity="0.8" r="2" stroke="green" stroke-width="1" /><circle cx="232" cy="87" fill="white" opacity="0.8" r="2" stroke="green" stroke-width="1" /><circle cx="109" cy="88" fill="white" opacity="0.8" r="2" stroke="green" stroke-width="1" /><circle cx="145" cy="88" fill="white" opacity="0.8" r="2" stroke="green" stroke-width="1" /><circle cx="20" cy="90" fill="white" opacity="0.8" r="2" stroke="green" stroke-width="1" /><circle cx="199" cy="107" fill="white" opacity="0.8" r="2" stroke="green" stroke-width="1" /><circle cx="142" cy="112" fill="white" opacity="0.8" r="2" stroke="green" stroke-width="1" /><circle cx="41" cy="114" fill="white" opacity="0.8" r="2" stroke="green" stroke-width="1" /><circle cx="49" cy="115" fill="white" opacity="0.8" r="2" stroke="green" stroke-width="1" /><circle cx="52" cy="124" fill="white" opacity="0.8" r="2" stroke="green" stroke-width="1" /><circle cx="109" cy="124" fill="white" opacity="0.8" r="2" stroke="green" stroke-width="1" /><circle cx="146" cy="125" fill="white" opacity="0.8" r="2" stroke="green" stroke-width="1" /><circle cx="44" cy="127" fill="white" opacity="0.8" r="2" stroke="green" stroke-width="1" /><circle cx="146" cy="141" fill="white" opacity="0.8" r="2" stroke="green" stroke-width="1" /><circle cx="202" cy="141" fill="white" opacity="0.8" r="2" stroke="green" stroke-width="1" /><circle cx="232" cy="146" fill="white" opacity="0.8" r="2" stroke="green" stroke-width="1" /><circle cx="110" cy="148" fill="white" opacity="0.8" r="2" stroke="green" stroke-width="1" /><circle cx="146" cy="149" fill="white" opacity="0.8" r="2" stroke="green" stroke-width="1" /><circle cx="45" cy="150" fill="white" opacity="0.8" r="2" stroke="green" stroke-width="1" /><circle cx="145" cy="164" fill="white" opacity="0.8" r="2" stroke="green" stroke-width="1" /><circle cx="110" cy="164" fill="white" opacity="0.8" r="2" stroke="green" stroke-width="1" /><circle cx="232" cy="174" fill="white" opacity="0.8" r="2" stroke="green" stroke-width="1" /><circle cx="22" cy="175" fill="white" opacity="0.8" r="2" stroke="green" stroke-width="1" /><circle cx="144" cy="175" fill="white" opacity="0.8" r="2" stroke="green" stroke-width="1" /><circle cx="111" cy="178" fill="white" opacity="0.8" r="2" stroke="green" stroke-width="1" /></g></svg>