<?xml version="1.0" encoding="utf-8" ?>
<svg baseProfile="full" height="256" version="1.1" width="256" xmlns="http://www.w3.org/2000/svg" xmlns:ev="http://www.w3.org/2001/xml-events" xmlns:xlink="http://www.w3.org/1999/xlink"><defs /><g fill="black" id="shape"><line opacity="0.8" stroke="red" stroke-width="1" x1="117" x2="170" y1="43" y2="89" /><line opacity="0.8" stroke="red" stroke-width="1" x1="117" x2="18" y1="43" y2="93" /><line opacity="0.8" stroke="red" stroke-width="1" x1="170" x2="208" y1="89" y2="120" /><line opacity="0.8" stroke="red" stroke-width="1" x1="18" x2="24" y1="93" y2="122" /><line opacity="0.8" stroke="red" stroke-width="1" x1="204" x2="208" y1="103" y2="120" /><line opacity="0.8" stroke="red" stroke-width="1" x1="208" x2="226" y1="120" y2="137" /><line opacity="0.8" stroke="red" stroke-width="1" x1="24" x2="23" y1="122" y2="133" /><line opacity="0.8" stroke="red" stroke-width="1" x1="23" x2="30" y1="133" y2="178" /><line opacity="0.8" stroke="red" stroke-width="1" x1="226" x2="238" y1="137" y2="148" /><line opacity="0.8" stroke="red" stroke-width="1" x1="238" x2="150" y1="148" y2="191" /><line opacity="0.8" stroke="red" stroke-width="1" x1="30" x2="63" y1="178" y2="203" /><line opacity="0.8" stroke="red" stroke-width="1" x1="140" x2="150" y1="181" y2="191" /><line opacity="0.8" stroke="red" stroke-width="1" x1="140" x2="72" y1="181" y2="213" /><line opacity="0.8" stroke="red" stroke-width="1" x1="63" x2="72" y1="203" y2="213" /><circle cx="117" cy="43" fill="white" opacity="0.8" r="2" stroke="green" stroke-width="1" /><circle cx="170" cy="89" fill="white" opacity="0.8" r="2" stroke="green" stroke-width="1" /><circle cx="18" cy="93" fill="white" opacity="0.8" r="2" stroke="green" stroke-width="1" /><circle cx="204" cy="103" fill="white" opacity="0.8" r="2" stroke="green" stroke-width="1" /><circle cx="208" cy="120" fill="white" opacity="0.8" r="2" stroke="green" stroke-width="1" /><circle cx="24" cy="122" fill="white" opacity="0.8" r="2" stroke="green" stroke-width="1" /><circle cx="23" cy="133" fill="white" opacity="0.8" r="2" stroke="green" stroke-width="1" /><circle cx="226" cy="137" fill="white" opacity="0.8" r="2" stroke="green" stroke-width="1" /><circle cx="238" cy="148" fill="white" opacity="0.8" r="2" stroke="green" stroke-width="1" /><circle cx="30" cy="178" fill="white" opacity="0.8" r="2" stroke="green" stroke-width="1" /><circle cx="140" cy="181" fill="white" opacity="0.8" r="2" stroke="green" stroke-width="1" /><circle cx="150" cy="191" fill="white" opacity="0.8" r="2" stroke="green" stroke-width="1" /><circle cx="63" cy="203" fill="white" opacity="0.8" r="2" stroke="green" stroke-width="1" /><circle cx="72" cy="213" fill="white" opacity="0.8" r="2" stroke="green" stroke-width="1" /></g></svg>