<?xml version="1.0" encoding="utf-8" ?>
<svg baseProfile="full" height="256" version="1.1" width="256" xmlns="http://www.w3.org/2000/svg" xmlns:ev="http://www.w3.org/2001/xml-events" xmlns:xlink="http://www.w3.org/1999/xlink"><defs /><g fill="black" id="shape"><line opacity="0.8" stroke="red" stroke-width="1" x1="129" x2="101" y1="83" y2="92" /><line opacity="0.8" stroke="red" stroke-width="1" x1="129" x2="157" y1="83" y2="162" /><line opacity="0.8" stroke="red" stroke-width="1" x1="101" x2="105" y1="92" y2="109" /><line opacity="0.8" stroke="red" stroke-width="1" x1="105" x2="116" y1="109" y2="138" /><line opacity="0.8" stroke="red" stroke-width="1" x1="116" x2="98" y1="138" y2="145" /><line opacity="0.8" stroke="red" stroke-width="1" x1="116" x2="123" y1="138" y2="164" /><line opacity="0.8" stroke="red" stroke-width="1" x1="98" x2="106" y1="145" y2="170" /><line opacity="0.8" stroke="red" stroke-width="1" x1="157" x2="127" y1="162" y2="174" /><line opacity="0.8" stroke="red" stroke-width="1" x1="123" x2="106" y1="164" y2="170" /><line opacity="0.8" stroke="red" stroke-width="1" x1="123" x2="127" y1="164" y2="174" /><circle cx="129" cy="83" fill="white" opacity="0.8" r="2" stroke="green" stroke-width="1" /><circle cx="101" cy="92" fill="white" opacity="0.8" r="2" stroke="green" stroke-width="1" /><circle cx="105" cy="109" fill="white" opacity="0.8" r="2" stroke="green" stroke-width="1" /><circle cx="116" cy="138" fill="white" opacity="0.8" r="2" stroke="green" stroke-width="1" /><circle cx="98" cy="145" fill="white" opacity="0.8" r="2" stroke="green" stroke-width="1" /><circle cx="157" cy="162" fill="white" opacity="0.8" r="2" stroke="green" stroke-width="1" /><circle cx="123" cy="164" fill="white" opacity="0.8" r="2" stroke="green" stroke-width="1" /><circle cx="106" cy="170" fill="white" opacity="0.8" r="2" stroke="green" stroke-width="1" /><circle cx="127" cy="174" fill="white" opacity="0.8" r="2" stroke="green" stroke-width="1" /></g></svg>