<?xml version="1.0" encoding="utf-8" ?>
<svg baseProfile="full" height="256" version="1.1" width="256" xmlns="http://www.w3.org/2000/svg" xmlns:ev="http://www.w3.org/2001/xml-events" xmlns:xlink="http://www.w3.org/1999/xlink"><defs /><g fill="black" id="shape"><line opacity="0.8" stroke="red" stroke-width="1" x1="59" x2="180" y1="40" y2="46" /><line opacity="0.8" stroke="red" stroke-width="1" x1="59" x2="21" y1="40" y2="94" /><line opacity="0.8" stroke="red" stroke-width="1" x1="59" x2="183" y1="40" y2="123" /><line opacity="0.8" stroke="red" stroke-width="1" x1="21" x2="30" y1="94" y2="100" /><line opacity="0.8" stroke="red" stroke-width="1" x1="30" x2="24" y1="100" y2="111" /><line opacity="0.8" stroke="red" stroke-width="1" x1="24" x2="183" y1="111" y2="215" /><line opacity="0.8" stroke="red" stroke-width="1" x1="183" x2="234" y1="123" y2="158" /><line opacity="0.8" stroke="red" stroke-width="1" x1="234" x2="196" y1="158" y2="214" /><line opacity="0.8" stroke="red" stroke-width="1" x1="189" x2="196" y1="208" y2="214" /><line opacity="0.8" stroke="red" stroke-width="1" x1="189" x2="183" y1="208" y2="215" /><circle cx="59" cy="40" fill="white" opacity="0.8" r="2" stroke="green" stroke-width="1" /><circle cx="180" cy="46" fill="white" opacity="0.8" r="2" stroke="green" stroke-width="1" /><circle cx="21" cy="94" fill="white" opacity="0.8" r="2" stroke="green" stroke-width="1" /><circle cx="30" cy="100" fill="white" opacity="0.8" r="2" stroke="green" stroke-width="1" /><circle cx="24" cy="111" fill="white" opacity="0.8" r="2" stroke="green" stroke-width="1" /><circle cx="183" cy="123" fill="white" opacity="0.8" r="2" stroke="green" stroke-width="1" /><circle cx="234" cy="158" fill="white" opacity="0.8" r="2" stroke="green" stroke-width="1" /><circle cx="189" cy="208" fill="white" opacity="0.8" r="2" stroke="green" stroke-width="1" /><circle cx="196" cy="214" fill="white" opacity="0.8" r="2" stroke="green" stroke-width="1" /><circle cx="183" cy="215" fill="white" opacity="0.8" r="2" stroke="green" stroke-width="1" /></g></svg>