<?xml version="1.0" encoding="utf-8" ?>
<svg baseProfile="full" height="256" version="1.1" width="256" xmlns="http://www.w3.org/2000/svg" xmlns:ev="http://www.w3.org/2001/xml-events" xmlns:xlink="http://www.w3.org/1999/xlink"><defs /><g fill="black" id="shape"><line opacity="0.8" stroke="red" stroke-width="1" x1="74" x2="142" y1="85" y2="87" /><line opacity="0.8" stroke="red" stroke-width="1" x1="74" x2="74" y1="85" y2="118" /><line opacity="0.8" stroke="red" stroke-width="1" x1="142" x2="180" y1="87" y2="87" /><line opacity="0.8" stroke="red" stroke-width="1" x1="142" x2="140" y1="87" y2="118" /><line opacity="0.8" stroke="red" stroke-width="1" x1="180" x2="182" y1="87" y2="119" /><line opacity="0.8" stroke="red" stroke-width="1" x1="74" x2="105" y1="118" y2="118" /><line opacity="0.8" stroke="red" stroke-width="1" x1="74" x2="73" y1="118" y2="136" /><line opacity="0.8" stroke="red" stroke-width="1" x1="140" x2="182" y1="118" y2="119" /><line opacity="0.8" stroke="red" stroke-width="1" x1="182" x2="182" y1="119" y2="138" /><line opacity="0.8" stroke="red" stroke-width="1" x1="73" x2="71" y1="136" y2="170" /><line opacity="0.8" stroke="red" stroke-width="1" x1="123" x2="182" y1="136" y2="138" /><line opacity="0.8" stroke="red" stroke-width="1" x1="123" x2="125" y1="136" y2="169" /><line opacity="0.8" stroke="red" stroke-width="1" x1="182" x2="183" y1="138" y2="170" /><line opacity="0.8" stroke="red" stroke-width="1" x1="108" x2="125" y1="162" y2="169" /><line opacity="0.8" stroke="red" stroke-width="1" x1="108" x2="71" y1="162" y2="170" /><line opacity="0.8" stroke="red" stroke-width="1" x1="125" x2="171" y1="169" y2="170" /><line opacity="0.8" stroke="red" stroke-width="1" x1="171" x2="183" y1="170" y2="170" /><circle cx="74" cy="85" fill="white" opacity="0.8" r="2" stroke="green" stroke-width="1" /><circle cx="142" cy="87" fill="white" opacity="0.8" r="2" stroke="green" stroke-width="1" /><circle cx="180" cy="87" fill="white" opacity="0.8" r="2" stroke="green" stroke-width="1" /><circle cx="74" cy="118" fill="white" opacity="0.8" r="2" stroke="green" stroke-width="1" /><circle cx="105" cy="118" fill="white" opacity="0.8" r="2" stroke="green" stroke-width="1" /><circle cx="140" cy="118" fill="white" opacity="0.8" r="2" stroke="green" stroke-width="1" /><circle cx="182" cy="119" fill="white" opacity="0.8" r="2" stroke="green" stroke-width="1" /><circle cx="73" cy="136" fill="white" opacity="0.8" r="2" stroke="green" stroke-width="1" /><circle cx="123" cy="136" fill="white" opacity="0.8" r="2" stroke="green" stroke-width="1" /><circle cx="182" cy="138" fill="white" opacity="0.8" r="2" stroke="green" stroke-width="1" /><circle cx="108" cy="162" fill="white" opacity="0.8" r="2" stroke="green" stroke-width="1" /><circle cx="125" cy="169" fill="white" opacity="0.8" r="2" stroke="green" stroke-width="1" /><circle cx="71" cy="170" fill="white" opacity="0.8" r="2" stroke="green" stroke-width="1" /><circle cx="171" cy="170" fill="white" opacity="0.8" r="2" stroke="green" stroke-width="1" /><circle cx="183" cy="170" fill="white" opacity="0.8" r="2" stroke="green" stroke-width="1" /></g></svg>