<?xml version="1.0" encoding="utf-8" ?>
<svg baseProfile="full" height="256" version="1.1" width="256" xmlns="http://www.w3.org/2000/svg" xmlns:ev="http://www.w3.org/2001/xml-events" xmlns:xlink="http://www.w3.org/1999/xlink"><defs /><g fill="black" id="shape"><line opacity="0.8" stroke="red" stroke-width="1" x1="193" x2="54" y1="67" y2="96" /><line opacity="0.8" stroke="red" stroke-width="1" x1="193" x2="220" y1="67" y2="128" /><line opacity="0.8" stroke="red" stroke-width="1" x1="54" x2="66" y1="96" y2="122" /><line opacity="0.8" stroke="red" stroke-width="1" x1="66" x2="32" y1="122" y2="129" /><line opacity="0.8" stroke="red" stroke-width="1" x1="220" x2="227" y1="128" y2="147" /><line opacity="0.8" stroke="red" stroke-width="1" x1="32" x2="45" y1="129" y2="155" /><line opacity="0.8" stroke="red" stroke-width="1" x1="227" x2="162" y1="147" y2="161" /><line opacity="0.8" stroke="red" stroke-width="1" x1="45" x2="23" y1="155" y2="160" /><line opacity="0.8" stroke="red" stroke-width="1" x1="23" x2="35" y1="160" y2="187" /><line opacity="0.8" stroke="red" stroke-width="1" x1="162" x2="151" y1="161" y2="166" /><line opacity="0.8" stroke="red" stroke-width="1" x1="151" x2="85" y1="166" y2="169" /><line opacity="0.8" stroke="red" stroke-width="1" x1="85" x2="86" y1="169" y2="177" /><line opacity="0.8" stroke="red" stroke-width="1" x1="86" x2="35" y1="177" y2="187" /><circle cx="193" cy="67" fill="white" opacity="0.8" r="2" stroke="green" stroke-width="1" /><circle cx="54" cy="96" fill="white" opacity="0.8" r="2" stroke="green" stroke-width="1" /><circle cx="66" cy="122" fill="white" opacity="0.8" r="2" stroke="green" stroke-width="1" /><circle cx="220" cy="128" fill="white" opacity="0.8" r="2" stroke="green" stroke-width="1" /><circle cx="32" cy="129" fill="white" opacity="0.8" r="2" stroke="green" stroke-width="1" /><circle cx="227" cy="147" fill="white" opacity="0.8" r="2" stroke="green" stroke-width="1" /><circle cx="45" cy="155" fill="white" opacity="0.8" r="2" stroke="green" stroke-width="1" /><circle cx="23" cy="160" fill="white" opacity="0.8" r="2" stroke="green" stroke-width="1" /><circle cx="162" cy="161" fill="white" opacity="0.8" r="2" stroke="green" stroke-width="1" /><circle cx="151" cy="166" fill="white" opacity="0.8" r="2" stroke="green" stroke-width="1" /><circle cx="85" cy="169" fill="white" opacity="0.8" r="2" stroke="green" stroke-width="1" /><circle cx="86" cy="177" fill="white" opacity="0.8" r="2" stroke="green" stroke-width="1" /><circle cx="35" cy="187" fill="white" opacity="0.8" r="2" stroke="green" stroke-width="1" /></g></svg>