<?xml version="1.0" encoding="utf-8" ?>
<svg baseProfile="full" height="256" version="1.1" width="256" xmlns="http://www.w3.org/2000/svg" xmlns:ev="http://www.w3.org/2001/xml-events" xmlns:xlink="http://www.w3.org/1999/xlink"><defs /><g fill="black" id="shape"><line opacity="0.8" stroke="red" stroke-width="1" x1="12" x2="17" y1="53" y2="61" /><line opacity="0.8" stroke="red" stroke-width="1" x1="12" x2="12" y1="53" y2="152" /><line opacity="0.8" stroke="red" stroke-width="1" x1="190" x2="146" y1="59" y2="61" /><line opacity="0.8" stroke="red" stroke-width="1" x1="190" x2="194" y1="59" y2="78" /><line opacity="0.8" stroke="red" stroke-width="1" x1="146" x2="147" y1="61" y2="72" /><line opacity="0.8" stroke="red" stroke-width="1" x1="147" x2="116" y1="72" y2="76" /><line opacity="0.8" stroke="red" stroke-width="1" x1="225" x2="194" y1="74" y2="78" /><line opacity="0.8" stroke="red" stroke-width="1" x1="225" x2="236" y1="74" y2="133" /><line opacity="0.8" stroke="red" stroke-width="1" x1="116" x2="116" y1="76" y2="102" /><line opacity="0.8" stroke="red" stroke-width="1" x1="116" x2="125" y1="102" y2="113" /><line opacity="0.8" stroke="red" stroke-width="1" x1="125" x2="82" y1="113" y2="118" /><line opacity="0.8" stroke="red" stroke-width="1" x1="125" x2="135" y1="113" y2="164" /><line opacity="0.8" stroke="red" stroke-width="1" x1="82" x2="84" y1="118" y2="128" /><line opacity="0.8" stroke="red" stroke-width="1" x1="84" x2="40" y1="128" y2="132" /><line opacity="0.8" stroke="red" stroke-width="1" x1="40" x2="43" y1="132" y2="146" /><line opacity="0.8" stroke="red" stroke-width="1" x1="236" x2="163" y1="133" y2="142" /><line opacity="0.8" stroke="red" stroke-width="1" x1="163" x2="166" y1="142" y2="160" /><line opacity="0.8" stroke="red" stroke-width="1" x1="105" x2="73" y1="144" y2="147" /><line opacity="0.8" stroke="red" stroke-width="1" x1="105" x2="94" y1="144" y2="157" /><line opacity="0.8" stroke="red" stroke-width="1" x1="43" x2="73" y1="146" y2="147" /><line opacity="0.8" stroke="red" stroke-width="1" x1="43" x2="29" y1="146" y2="149" /><line opacity="0.8" stroke="red" stroke-width="1" x1="73" x2="94" y1="147" y2="157" /><line opacity="0.8" stroke="red" stroke-width="1" x1="73" x2="77" y1="147" y2="168" /><line opacity="0.8" stroke="red" stroke-width="1" x1="29" x2="12" y1="149" y2="152" /><line opacity="0.8" stroke="red" stroke-width="1" x1="29" x2="30" y1="149" y2="159" /><line opacity="0.8" stroke="red" stroke-width="1" x1="30" x2="32" y1="159" y2="171" /><line opacity="0.8" stroke="red" stroke-width="1" x1="166" x2="135" y1="160" y2="164" /><line opacity="0.8" stroke="red" stroke-width="1" x1="135" x2="140" y1="164" y2="182" /><line opacity="0.8" stroke="red" stroke-width="1" x1="32" x2="12" y1="171" y2="174" /><line opacity="0.8" stroke="red" stroke-width="1" x1="32" x2="38" y1="171" y2="195" /><line opacity="0.8" stroke="red" stroke-width="1" x1="12" x2="16" y1="174" y2="199" /><line opacity="0.8" stroke="red" stroke-width="1" x1="140" x2="38" y1="182" y2="195" /><line opacity="0.8" stroke="red" stroke-width="1" x1="38" x2="16" y1="195" y2="199" /><circle cx="12" cy="53" fill="white" opacity="0.8" r="2" stroke="green" stroke-width="1" /><circle cx="190" cy="59" fill="white" opacity="0.8" r="2" stroke="green" stroke-width="1" /><circle cx="17" cy="61" fill="white" opacity="0.8" r="2" stroke="green" stroke-width="1" /><circle cx="146" cy="61" fill="white" opacity="0.8" r="2" stroke="green" stroke-width="1" /><circle cx="147" cy="72" fill="white" opacity="0.8" r="2" stroke="green" stroke-width="1" /><circle cx="225" cy="74" fill="white" opacity="0.8" r="2" stroke="green" stroke-width="1" /><circle cx="116" cy="76" fill="white" opacity="0.8" r="2" stroke="green" stroke-width="1" /><circle cx="194" cy="78" fill="white" opacity="0.8" r="2" stroke="green" stroke-width="1" /><circle cx="116" cy="102" fill="white" opacity="0.8" r="2" stroke="green" stroke-width="1" /><circle cx="125" cy="113" fill="white" opacity="0.8" r="2" stroke="green" stroke-width="1" /><circle cx="82" cy="118" fill="white" opacity="0.8" r="2" stroke="green" stroke-width="1" /><circle cx="84" cy="128" fill="white" opacity="0.8" r="2" stroke="green" stroke-width="1" /><circle cx="40" cy="132" fill="white" opacity="0.8" r="2" stroke="green" stroke-width="1" /><circle cx="236" cy="133" fill="white" opacity="0.8" r="2" stroke="green" stroke-width="1" /><circle cx="163" cy="142" fill="white" opacity="0.8" r="2" stroke="green" stroke-width="1" /><circle cx="105" cy="144" fill="white" opacity="0.8" r="2" stroke="green" stroke-width="1" /><circle cx="43" cy="146" fill="white" opacity="0.8" r="2" stroke="green" stroke-width="1" /><circle cx="73" cy="147" fill="white" opacity="0.8" r="2" stroke="green" stroke-width="1" /><circle cx="29" cy="149" fill="white" opacity="0.8" r="2" stroke="green" stroke-width="1" /><circle cx="12" cy="152" fill="white" opacity="0.8" r="2" stroke="green" stroke-width="1" /><circle cx="94" cy="157" fill="white" opacity="0.8" r="2" stroke="green" stroke-width="1" /><circle cx="30" cy="159" fill="white" opacity="0.8" r="2" stroke="green" stroke-width="1" /><circle cx="166" cy="160" fill="white" opacity="0.8" r="2" stroke="green" stroke-width="1" /><circle cx="135" cy="164" fill="white" opacity="0.8" r="2" stroke="green" stroke-width="1" /><circle cx="77" cy="168" fill="white" opacity="0.8" r="2" stroke="green" stroke-width="1" /><circle cx="32" cy="171" fill="white" opacity="0.8" r="2" stroke="green" stroke-width="1" /><circle cx="12" cy="174" fill="white" opacity="0.8" r="2" stroke="green" stroke-width="1" /><circle cx="140" cy="182" fill="white" opacity="0.8" r="2" stroke="green" stroke-width="1" /><circle cx="38" cy="195" fill="white" opacity="0.8" r="2" stroke="green" stroke-width="1" /><circle cx="16" cy="199" fill="white" opacity="0.8" r="2" stroke="green" stroke-width="1" /></g></svg>