<?xml version="1.0" encoding="utf-8" ?>
<svg baseProfile="full" height="256" version="1.1" width="256" xmlns="http://www.w3.org/2000/svg" xmlns:ev="http://www.w3.org/2001/xml-events" xmlns:xlink="http://www.w3.org/1999/xlink"><defs /><g fill="black" id="shape"><line opacity="0.8" stroke="red" stroke-width="1" x1="166" x2="117" y1="70" y2="84" /><line opacity="0.8" stroke="red" stroke-width="1" x1="166" x2="176" y1="70" y2="106" /><line opacity="0.8" stroke="red" stroke-width="1" x1="117" x2="78" y1="84" y2="95" /><line opacity="0.8" stroke="red" stroke-width="1" x1="117" x2="128" y1="84" y2="120" /><line opacity="0.8" stroke="red" stroke-width="1" x1="78" x2="103" y1="95" y2="187" /><line opacity="0.8" stroke="red" stroke-width="1" x1="176" x2="128" y1="106" y2="120" /><line opacity="0.8" stroke="red" stroke-width="1" x1="128" x2="134" y1="120" y2="130" /><line opacity="0.8" stroke="red" stroke-width="1" x1="134" x2="142" y1="130" y2="177" /><line opacity="0.8" stroke="red" stroke-width="1" x1="142" x2="103" y1="177" y2="187" /><circle cx="166" cy="70" fill="white" opacity="0.8" r="2" stroke="green" stroke-width="1" /><circle cx="117" cy="84" fill="white" opacity="0.8" r="2" stroke="green" stroke-width="1" /><circle cx="78" cy="95" fill="white" opacity="0.8" r="2" stroke="green" stroke-width="1" /><circle cx="176" cy="106" fill="white" opacity="0.8" r="2" stroke="green" stroke-width="1" /><circle cx="128" cy="120" fill="white" opacity="0.8" r="2" stroke="green" stroke-width="1" /><circle cx="134" cy="130" fill="white" opacity="0.8" r="2" stroke="green" stroke-width="1" /><circle cx="142" cy="177" fill="white" opacity="0.8" r="2" stroke="green" stroke-width="1" /><circle cx="103" cy="187" fill="white" opacity="0.8" r="2" stroke="green" stroke-width="1" /></g></svg>