<?xml version="1.0" encoding="utf-8" ?>
<svg baseProfile="full" height="256" version="1.1" width="256" xmlns="http://www.w3.org/2000/svg" xmlns:ev="http://www.w3.org/2001/xml-events" xmlns:xlink="http://www.w3.org/1999/xlink"><defs /><g fill="black" id="shape"><line opacity="0.8" stroke="red" stroke-width="1" x1="113" x2="170" y1="80" y2="88" /><line opacity="0.8" stroke="red" stroke-width="1" x1="170" x2="146" y1="88" y2="140" /><line opacity="0.8" stroke="red" stroke-width="1" x1="103" x2="86" y1="101" y2="136" /><line opacity="0.8" stroke="red" stroke-width="1" x1="86" x2="97" y1="136" y2="137" /><line opacity="0.8" stroke="red" stroke-width="1" x1="97" x2="87" y1="137" y2="164" /><line opacity="0.8" stroke="red" stroke-width="1" x1="146" x2="159" y1="140" y2="142" /><line opacity="0.8" stroke="red" stroke-width="1" x1="159" x2="148" y1="142" y2="173" /><line opacity="0.8" stroke="red" stroke-width="1" x1="87" x2="148" y1="164" y2="173" /><circle cx="113" cy="80" fill="white" opacity="0.8" r="2" stroke="green" stroke-width="1" /><circle cx="170" cy="88" fill="white" opacity="0.8" r="2" stroke="green" stroke-width="1" /><circle cx="103" cy="101" fill="white" opacity="0.8" r="2" stroke="green" stroke-width="1" /><circle cx="86" cy="136" fill="white" opacity="0.8" r="2" stroke="green" stroke-width="1" /><circle cx="97" cy="137" fill="white" opacity="0.8" r="2" stroke="green" stroke-width="1" /><circle cx="146" cy="140" fill="white" opacity="0.8" r="2" stroke="green" stroke-width="1" /><circle cx="159" cy="142" fill="white" opacity="0.8" r="2" stroke="green" stroke-width="1" /><circle cx="87" cy="164" fill="white" opacity="0.8" r="2" stroke="green" stroke-width="1" /><circle cx="148" cy="173" fill="white" opacity="0.8" r="2" stroke="green" stroke-width="1" /></g></svg>