<?xml version="1.0" encoding="utf-8" ?>
<svg baseProfile="full" height="256" version="1.1" width="256" xmlns="http://www.w3.org/2000/svg" xmlns:ev="http://www.w3.org/2001/xml-events" xmlns:xlink="http://www.w3.org/1999/xlink"><defs /><g fill="black" id="shape"><line opacity="0.8" stroke="red" stroke-width="1" x1="84" x2="172" y1="69" y2="70" /><line opacity="0.8" stroke="red" stroke-width="1" x1="84" x2="103" y1="69" y2="83" /><line opacity="0.8" stroke="red" stroke-width="1" x1="84" x2="83" y1="69" y2="186" /><line opacity="0.8" stroke="red" stroke-width="1" x1="172" x2="148" y1="70" y2="83" /><line opacity="0.8" stroke="red" stroke-width="1" x1="172" x2="169" y1="70" y2="187" /><line opacity="0.8" stroke="red" stroke-width="1" x1="103" x2="148" y1="83" y2="83" /><line opacity="0.8" stroke="red" stroke-width="1" x1="103" x2="100" y1="83" y2="166" /><line opacity="0.8" stroke="red" stroke-width="1" x1="148" x2="147" y1="83" y2="167" /><line opacity="0.8" stroke="red" stroke-width="1" x1="100" x2="147" y1="166" y2="167" /><line opacity="0.8" stroke="red" stroke-width="1" x1="100" x2="83" y1="166" y2="186" /><line opacity="0.8" stroke="red" stroke-width="1" x1="147" x2="169" y1="167" y2="187" /><line opacity="0.8" stroke="red" stroke-width="1" x1="83" x2="169" y1="186" y2="187" /><circle cx="84" cy="69" fill="white" opacity="0.8" r="2" stroke="green" stroke-width="1" /><circle cx="172" cy="70" fill="white" opacity="0.8" r="2" stroke="green" stroke-width="1" /><circle cx="103" cy="83" fill="white" opacity="0.8" r="2" stroke="green" stroke-width="1" /><circle cx="148" cy="83" fill="white" opacity="0.8" r="2" stroke="green" stroke-width="1" /><circle cx="100" cy="166" fill="white" opacity="0.8" r="2" stroke="green" stroke-width="1" /><circle cx="147" cy="167" fill="white" opacity="0.8" r="2" stroke="green" stroke-width="1" /><circle cx="83" cy="186" fill="white" opacity="0.8" r="2" stroke="green" stroke-width="1" /><circle cx="169" cy="187" fill="white" opacity="0.8" r="2" stroke="green" stroke-width="1" /></g></svg>