<?xml version="1.0" encoding="utf-8" ?>
<svg baseProfile="full" height="256" version="1.1" width="256" xmlns="http://www.w3.org/2000/svg" xmlns:ev="http://www.w3.org/2001/xml-events" xmlns:xlink="http://www.w3.org/1999/xlink"><defs /><g fill="black" id="shape"><line opacity="0.8" stroke="red" stroke-width="1" x1="192" x2="62" y1="39" y2="41" /><line opacity="0.8" stroke="red" stroke-width="1" x1="192" x2="193" y1="39" y2="99" /><line opacity="0.8" stroke="red" stroke-width="1" x1="62" x2="65" y1="41" y2="99" /><line opacity="0.8" stroke="red" stroke-width="1" x1="65" x2="79" y1="99" y2="100" /><line opacity="0.8" stroke="red" stroke-width="1" x1="65" x2="64" y1="99" y2="120" /><line opacity="0.8" stroke="red" stroke-width="1" x1="140" x2="193" y1="99" y2="99" /><line opacity="0.8" stroke="red" stroke-width="1" x1="140" x2="79" y1="99" y2="100" /><line opacity="0.8" stroke="red" stroke-width="1" x1="140" x2="142" y1="99" y2="125" /><line opacity="0.8" stroke="red" stroke-width="1" x1="193" x2="191" y1="99" y2="126" /><line opacity="0.8" stroke="red" stroke-width="1" x1="79" x2="78" y1="100" y2="119" /><line opacity="0.8" stroke="red" stroke-width="1" x1="78" x2="64" y1="119" y2="120" /><line opacity="0.8" stroke="red" stroke-width="1" x1="142" x2="191" y1="125" y2="126" /><line opacity="0.8" stroke="red" stroke-width="1" x1="142" x2="142" y1="125" y2="189" /><line opacity="0.8" stroke="red" stroke-width="1" x1="104" x2="118" y1="187" y2="188" /><line opacity="0.8" stroke="red" stroke-width="1" x1="104" x2="63" y1="187" y2="188" /><line opacity="0.8" stroke="red" stroke-width="1" x1="118" x2="142" y1="188" y2="189" /><line opacity="0.8" stroke="red" stroke-width="1" x1="63" x2="63" y1="188" y2="215" /><line opacity="0.8" stroke="red" stroke-width="1" x1="142" x2="159" y1="189" y2="193" /><line opacity="0.8" stroke="red" stroke-width="1" x1="142" x2="134" y1="189" y2="212" /><line opacity="0.8" stroke="red" stroke-width="1" x1="159" x2="162" y1="193" y2="207" /><line opacity="0.8" stroke="red" stroke-width="1" x1="162" x2="134" y1="207" y2="212" /><line opacity="0.8" stroke="red" stroke-width="1" x1="134" x2="63" y1="212" y2="215" /><circle cx="192" cy="39" fill="white" opacity="0.8" r="2" stroke="green" stroke-width="1" /><circle cx="62" cy="41" fill="white" opacity="0.8" r="2" stroke="green" stroke-width="1" /><circle cx="65" cy="99" fill="white" opacity="0.8" r="2" stroke="green" stroke-width="1" /><circle cx="140" cy="99" fill="white" opacity="0.8" r="2" stroke="green" stroke-width="1" /><circle cx="193" cy="99" fill="white" opacity="0.8" r="2" stroke="green" stroke-width="1" /><circle cx="79" cy="100" fill="white" opacity="0.8" r="2" stroke="green" stroke-width="1" /><circle cx="78" cy="119" fill="white" opacity="0.8" r="2" stroke="green" stroke-width="1" /><circle cx="64" cy="120" fill="white" opacity="0.8" r="2" stroke="green" stroke-width="1" /><circle cx="142" cy="125" fill="white" opacity="0.8" r="2" stroke="green" stroke-width="1" /><circle cx="191" cy="126" fill="white" opacity="0.8" r="2" stroke="green" stroke-width="1" /><circle cx="104" cy="187" fill="white" opacity="0.8" r="2" stroke="green" stroke-width="1" /><circle cx="118" cy="188" fill="white" opacity="0.8" r="2" stroke="green" stroke-width="1" /><circle cx="63" cy="188" fill="white" opacity="0.8" r="2" stroke="green" stroke-width="1" /><circle cx="142" cy="189" fill="white" opacity="0.8" r="2" stroke="green" stroke-width="1" /><circle cx="159" cy="193" fill="white" opacity="0.8" r="2" stroke="green" stroke-width="1" /><circle cx="162" cy="207" fill="white" opacity="0.8" r="2" stroke="green" stroke-width="1" /><circle cx="134" cy="212" fill="white" opacity="0.8" r="2" stroke="green" stroke-width="1" /><circle cx="63" cy="215" fill="white" opacity="0.8" r="2" stroke="green" stroke-width="1" /></g></svg>