<?xml version="1.0" encoding="utf-8" ?>
<svg baseProfile="full" height="256" version="1.1" width="256" xmlns="http://www.w3.org/2000/svg" xmlns:ev="http://www.w3.org/2001/xml-events" xmlns:xlink="http://www.w3.org/1999/xlink"><defs /><g fill="black" id="shape"><line opacity="0.8" stroke="red" stroke-width="1" x1="110" x2="106" y1="95" y2="101" /><line opacity="0.8" stroke="red" stroke-width="1" x1="110" x2="137" y1="95" y2="114" /><line opacity="0.8" stroke="red" stroke-width="1" x1="106" x2="84" y1="101" y2="124" /><line opacity="0.8" stroke="red" stroke-width="1" x1="137" x2="166" y1="114" y2="136" /><line opacity="0.8" stroke="red" stroke-width="1" x1="137" x2="116" y1="114" y2="142" /><line opacity="0.8" stroke="red" stroke-width="1" x1="84" x2="116" y1="124" y2="142" /><line opacity="0.8" stroke="red" stroke-width="1" x1="172" x2="166" y1="130" y2="136" /><line opacity="0.8" stroke="red" stroke-width="1" x1="172" x2="191" y1="130" y2="147" /><line opacity="0.8" stroke="red" stroke-width="1" x1="116" x2="140" y1="142" y2="163" /><line opacity="0.8" stroke="red" stroke-width="1" x1="191" x2="169" y1="147" y2="173" /><line opacity="0.8" stroke="red" stroke-width="1" x1="146" x2="136" y1="156" y2="170" /><line opacity="0.8" stroke="red" stroke-width="1" x1="146" x2="169" y1="156" y2="173" /><line opacity="0.8" stroke="red" stroke-width="1" x1="140" x2="136" y1="163" y2="170" /><circle cx="110" cy="95" fill="white" opacity="0.8" r="2" stroke="green" stroke-width="1" /><circle cx="106" cy="101" fill="white" opacity="0.8" r="2" stroke="green" stroke-width="1" /><circle cx="137" cy="114" fill="white" opacity="0.8" r="2" stroke="green" stroke-width="1" /><circle cx="84" cy="124" fill="white" opacity="0.8" r="2" stroke="green" stroke-width="1" /><circle cx="172" cy="130" fill="white" opacity="0.8" r="2" stroke="green" stroke-width="1" /><circle cx="166" cy="136" fill="white" opacity="0.8" r="2" stroke="green" stroke-width="1" /><circle cx="116" cy="142" fill="white" opacity="0.8" r="2" stroke="green" stroke-width="1" /><circle cx="191" cy="147" fill="white" opacity="0.8" r="2" stroke="green" stroke-width="1" /><circle cx="146" cy="156" fill="white" opacity="0.8" r="2" stroke="green" stroke-width="1" /><circle cx="140" cy="163" fill="white" opacity="0.8" r="2" stroke="green" stroke-width="1" /><circle cx="136" cy="170" fill="white" opacity="0.8" r="2" stroke="green" stroke-width="1" /><circle cx="169" cy="173" fill="white" opacity="0.8" r="2" stroke="green" stroke-width="1" /></g></svg>