<?xml version="1.0" encoding="utf-8" ?>
<svg baseProfile="full" height="256" version="1.1" width="256" xmlns="http://www.w3.org/2000/svg" xmlns:ev="http://www.w3.org/2001/xml-events" xmlns:xlink="http://www.w3.org/1999/xlink"><defs /><g fill="black" id="shape"><line opacity="0.8" stroke="red" stroke-width="1" x1="68" x2="116" y1="66" y2="67" /><line opacity="0.8" stroke="red" stroke-width="1" x1="68" x2="93" y1="66" y2="91" /><line opacity="0.8" stroke="red" stroke-width="1" x1="68" x2="66" y1="66" y2="189" /><line opacity="0.8" stroke="red" stroke-width="1" x1="116" x2="117" y1="67" y2="76" /><line opacity="0.8" stroke="red" stroke-width="1" x1="116" x2="93" y1="67" y2="91" /><line opacity="0.8" stroke="red" stroke-width="1" x1="117" x2="93" y1="76" y2="91" /><line opacity="0.8" stroke="red" stroke-width="1" x1="117" x2="119" y1="76" y2="133" /><line opacity="0.8" stroke="red" stroke-width="1" x1="93" x2="95" y1="91" y2="156" /><line opacity="0.8" stroke="red" stroke-width="1" x1="188" x2="119" y1="131" y2="133" /><line opacity="0.8" stroke="red" stroke-width="1" x1="188" x2="168" y1="131" y2="155" /><line opacity="0.8" stroke="red" stroke-width="1" x1="168" x2="95" y1="155" y2="156" /><line opacity="0.8" stroke="red" stroke-width="1" x1="168" x2="179" y1="155" y2="176" /><line opacity="0.8" stroke="red" stroke-width="1" x1="95" x2="95" y1="156" y2="165" /><line opacity="0.8" stroke="red" stroke-width="1" x1="95" x2="66" y1="165" y2="189" /><line opacity="0.8" stroke="red" stroke-width="1" x1="179" x2="66" y1="176" y2="189" /><circle cx="68" cy="66" fill="white" opacity="0.8" r="2" stroke="green" stroke-width="1" /><circle cx="116" cy="67" fill="white" opacity="0.8" r="2" stroke="green" stroke-width="1" /><circle cx="117" cy="76" fill="white" opacity="0.8" r="2" stroke="green" stroke-width="1" /><circle cx="93" cy="91" fill="white" opacity="0.8" r="2" stroke="green" stroke-width="1" /><circle cx="188" cy="131" fill="white" opacity="0.8" r="2" stroke="green" stroke-width="1" /><circle cx="119" cy="133" fill="white" opacity="0.8" r="2" stroke="green" stroke-width="1" /><circle cx="168" cy="155" fill="white" opacity="0.8" r="2" stroke="green" stroke-width="1" /><circle cx="95" cy="156" fill="white" opacity="0.8" r="2" stroke="green" stroke-width="1" /><circle cx="95" cy="165" fill="white" opacity="0.8" r="2" stroke="green" stroke-width="1" /><circle cx="179" cy="176" fill="white" opacity="0.8" r="2" stroke="green" stroke-width="1" /><circle cx="66" cy="189" fill="white" opacity="0.8" r="2" stroke="green" stroke-width="1" /></g></svg>