<?xml version="1.0" encoding="utf-8" ?>
<svg baseProfile="full" height="256" version="1.1" width="256" xmlns="http://www.w3.org/2000/svg" xmlns:ev="http://www.w3.org/2001/xml-events" xmlns:xlink="http://www.w3.org/1999/xlink"><defs /><g fill="black" id="shape"><line opacity="0.8" stroke="red" stroke-width="1" x1="152" x2="182" y1="89" y2="90" /><line opacity="0.8" stroke="red" stroke-width="1" x1="152" x2="152" y1="89" y2="99" /><line opacity="0.8" stroke="red" stroke-width="1" x1="182" x2="182" y1="90" y2="140" /><line opacity="0.8" stroke="red" stroke-width="1" x1="152" x2="95" y1="99" y2="101" /><line opacity="0.8" stroke="red" stroke-width="1" x1="152" x2="152" y1="99" y2="139" /><line opacity="0.8" stroke="red" stroke-width="1" x1="95" x2="79" y1="101" y2="114" /><line opacity="0.8" stroke="red" stroke-width="1" x1="79" x2="74" y1="114" y2="165" /><line opacity="0.8" stroke="red" stroke-width="1" x1="152" x2="182" y1="139" y2="140" /><line opacity="0.8" stroke="red" stroke-width="1" x1="152" x2="153" y1="139" y2="166" /><circle cx="152" cy="89" fill="white" opacity="0.8" r="2" stroke="green" stroke-width="1" /><circle cx="182" cy="90" fill="white" opacity="0.8" r="2" stroke="green" stroke-width="1" /><circle cx="152" cy="99" fill="white" opacity="0.8" r="2" stroke="green" stroke-width="1" /><circle cx="95" cy="101" fill="white" opacity="0.8" r="2" stroke="green" stroke-width="1" /><circle cx="79" cy="114" fill="white" opacity="0.8" r="2" stroke="green" stroke-width="1" /><circle cx="152" cy="139" fill="white" opacity="0.8" r="2" stroke="green" stroke-width="1" /><circle cx="182" cy="140" fill="white" opacity="0.8" r="2" stroke="green" stroke-width="1" /><circle cx="74" cy="165" fill="white" opacity="0.8" r="2" stroke="green" stroke-width="1" /><circle cx="153" cy="166" fill="white" opacity="0.8" r="2" stroke="green" stroke-width="1" /></g></svg>