<?xml version="1.0" encoding="utf-8" ?>
<svg baseProfile="full" height="256" version="1.1" width="256" xmlns="http://www.w3.org/2000/svg" xmlns:ev="http://www.w3.org/2001/xml-events" xmlns:xlink="http://www.w3.org/1999/xlink"><defs /><g fill="black" id="shape"><line opacity="0.8" stroke="red" stroke-width="1" x1="162" x2="90" y1="72" y2="73" /><line opacity="0.8" stroke="red" stroke-width="1" x1="162" x2="164" y1="72" y2="125" /><line opacity="0.8" stroke="red" stroke-width="1" x1="90" x2="91" y1="73" y2="85" /><line opacity="0.8" stroke="red" stroke-width="1" x1="58" x2="91" y1="85" y2="85" /><line opacity="0.8" stroke="red" stroke-width="1" x1="58" x2="53" y1="85" y2="128" /><line opacity="0.8" stroke="red" stroke-width="1" x1="164" x2="199" y1="125" y2="125" /><line opacity="0.8" stroke="red" stroke-width="1" x1="164" x2="118" y1="125" y2="127" /><line opacity="0.8" stroke="red" stroke-width="1" x1="164" x2="163" y1="125" y2="161" /><line opacity="0.8" stroke="red" stroke-width="1" x1="199" x2="201" y1="125" y2="162" /><line opacity="0.8" stroke="red" stroke-width="1" x1="65" x2="91" y1="127" y2="127" /><line opacity="0.8" stroke="red" stroke-width="1" x1="65" x2="53" y1="127" y2="128" /><line opacity="0.8" stroke="red" stroke-width="1" x1="65" x2="63" y1="127" y2="183" /><line opacity="0.8" stroke="red" stroke-width="1" x1="91" x2="118" y1="127" y2="127" /><line opacity="0.8" stroke="red" stroke-width="1" x1="118" x2="118" y1="127" y2="162" /><line opacity="0.8" stroke="red" stroke-width="1" x1="163" x2="118" y1="161" y2="162" /><line opacity="0.8" stroke="red" stroke-width="1" x1="163" x2="201" y1="161" y2="162" /><line opacity="0.8" stroke="red" stroke-width="1" x1="118" x2="117" y1="162" y2="182" /><line opacity="0.8" stroke="red" stroke-width="1" x1="117" x2="63" y1="182" y2="183" /><circle cx="162" cy="72" fill="white" opacity="0.8" r="2" stroke="green" stroke-width="1" /><circle cx="90" cy="73" fill="white" opacity="0.8" r="2" stroke="green" stroke-width="1" /><circle cx="58" cy="85" fill="white" opacity="0.8" r="2" stroke="green" stroke-width="1" /><circle cx="91" cy="85" fill="white" opacity="0.8" r="2" stroke="green" stroke-width="1" /><circle cx="164" cy="125" fill="white" opacity="0.8" r="2" stroke="green" stroke-width="1" /><circle cx="199" cy="125" fill="white" opacity="0.8" r="2" stroke="green" stroke-width="1" /><circle cx="65" cy="127" fill="white" opacity="0.8" r="2" stroke="green" stroke-width="1" /><circle cx="91" cy="127" fill="white" opacity="0.8" r="2" stroke="green" stroke-width="1" /><circle cx="118" cy="127" fill="white" opacity="0.8" r="2" stroke="green" stroke-width="1" /><circle cx="53" cy="128" fill="white" opacity="0.8" r="2" stroke="green" stroke-width="1" /><circle cx="163" cy="161" fill="white" opacity="0.8" r="2" stroke="green" stroke-width="1" /><circle cx="118" cy="162" fill="white" opacity="0.8" r="2" stroke="green" stroke-width="1" /><circle cx="201" cy="162" fill="white" opacity="0.8" r="2" stroke="green" stroke-width="1" /><circle cx="117" cy="182" fill="white" opacity="0.8" r="2" stroke="green" stroke-width="1" /><circle cx="63" cy="183" fill="white" opacity="0.8" r="2" stroke="green" stroke-width="1" /></g></svg>