<?xml version="1.0" encoding="utf-8" ?>
<svg baseProfile="full" height="256" version="1.1" width="256" xmlns="http://www.w3.org/2000/svg" xmlns:ev="http://www.w3.org/2001/xml-events" xmlns:xlink="http://www.w3.org/1999/xlink"><defs /><g fill="black" id="shape"><line opacity="0.8" stroke="red" stroke-width="1" x1="68" x2="22" y1="14" y2="62" /><line opacity="0.8" stroke="red" stroke-width="1" x1="68" x2="119" y1="14" y2="68" /><line opacity="0.8" stroke="red" stroke-width="1" x1="22" x2="73" y1="62" y2="118" /><line opacity="0.8" stroke="red" stroke-width="1" x1="119" x2="73" y1="68" y2="118" /><line opacity="0.8" stroke="red" stroke-width="1" x1="73" x2="138" y1="118" y2="185" /><line opacity="0.8" stroke="red" stroke-width="1" x1="186" x2="233" y1="136" y2="184" /><line opacity="0.8" stroke="red" stroke-width="1" x1="186" x2="138" y1="136" y2="185" /><line opacity="0.8" stroke="red" stroke-width="1" x1="233" x2="189" y1="184" y2="239" /><line opacity="0.8" stroke="red" stroke-width="1" x1="138" x2="189" y1="185" y2="239" /><circle cx="68" cy="14" fill="white" opacity="0.8" r="2" stroke="green" stroke-width="1" /><circle cx="22" cy="62" fill="white" opacity="0.8" r="2" stroke="green" stroke-width="1" /><circle cx="119" cy="68" fill="white" opacity="0.8" r="2" stroke="green" stroke-width="1" /><circle cx="73" cy="118" fill="white" opacity="0.8" r="2" stroke="green" stroke-width="1" /><circle cx="186" cy="136" fill="white" opacity="0.8" r="2" stroke="green" stroke-width="1" /><circle cx="233" cy="184" fill="white" opacity="0.8" r="2" stroke="green" stroke-width="1" /><circle cx="138" cy="185" fill="white" opacity="0.8" r="2" stroke="green" stroke-width="1" /><circle cx="189" cy="239" fill="white" opacity="0.8" r="2" stroke="green" stroke-width="1" /></g></svg>