<?xml version="1.0" encoding="utf-8" ?>
<svg baseProfile="full" height="256" version="1.1" width="256" xmlns="http://www.w3.org/2000/svg" xmlns:ev="http://www.w3.org/2001/xml-events" xmlns:xlink="http://www.w3.org/1999/xlink"><defs /><g fill="black" id="shape"><line opacity="0.8" stroke="red" stroke-width="1" x1="122" x2="198" y1="21" y2="52" /><line opacity="0.8" stroke="red" stroke-width="1" x1="122" x2="94" y1="21" y2="96" /><line opacity="0.8" stroke="red" stroke-width="1" x1="198" x2="150" y1="52" y2="75" /><line opacity="0.8" stroke="red" stroke-width="1" x1="150" x2="111" y1="75" y2="183" /><line opacity="0.8" stroke="red" stroke-width="1" x1="94" x2="82" y1="96" y2="111" /><line opacity="0.8" stroke="red" stroke-width="1" x1="82" x2="105" y1="111" y2="120" /><line opacity="0.8" stroke="red" stroke-width="1" x1="82" x2="73" y1="111" y2="128" /><line opacity="0.8" stroke="red" stroke-width="1" x1="105" x2="81" y1="120" y2="130" /><line opacity="0.8" stroke="red" stroke-width="1" x1="73" x2="81" y1="128" y2="130" /><line opacity="0.8" stroke="red" stroke-width="1" x1="81" x2="56" y1="130" y2="206" /><line opacity="0.8" stroke="red" stroke-width="1" x1="152" x2="174" y1="136" y2="144" /><line opacity="0.8" stroke="red" stroke-width="1" x1="174" x2="158" y1="144" y2="213" /><line opacity="0.8" stroke="red" stroke-width="1" x1="111" x2="56" y1="183" y2="206" /><line opacity="0.8" stroke="red" stroke-width="1" x1="56" x2="133" y1="206" y2="237" /><line opacity="0.8" stroke="red" stroke-width="1" x1="158" x2="195" y1="213" y2="222" /><line opacity="0.8" stroke="red" stroke-width="1" x1="158" x2="151" y1="213" y2="233" /><line opacity="0.8" stroke="red" stroke-width="1" x1="136" x2="151" y1="229" y2="233" /><line opacity="0.8" stroke="red" stroke-width="1" x1="136" x2="133" y1="229" y2="237" /><line opacity="0.8" stroke="red" stroke-width="1" x1="151" x2="145" y1="233" y2="248" /><circle cx="122" cy="21" fill="white" opacity="0.8" r="2" stroke="green" stroke-width="1" /><circle cx="198" cy="52" fill="white" opacity="0.8" r="2" stroke="green" stroke-width="1" /><circle cx="150" cy="75" fill="white" opacity="0.8" r="2" stroke="green" stroke-width="1" /><circle cx="94" cy="96" fill="white" opacity="0.8" r="2" stroke="green" stroke-width="1" /><circle cx="82" cy="111" fill="white" opacity="0.8" r="2" stroke="green" stroke-width="1" /><circle cx="105" cy="120" fill="white" opacity="0.8" r="2" stroke="green" stroke-width="1" /><circle cx="73" cy="128" fill="white" opacity="0.8" r="2" stroke="green" stroke-width="1" /><circle cx="81" cy="130" fill="white" opacity="0.8" r="2" stroke="green" stroke-width="1" /><circle cx="152" cy="136" fill="white" opacity="0.8" r="2" stroke="green" stroke-width="1" /><circle cx="174" cy="144" fill="white" opacity="0.8" r="2" stroke="green" stroke-width="1" /><circle cx="111" cy="183" fill="white" opacity="0.8" r="2" stroke="green" stroke-width="1" /><circle cx="56" cy="206" fill="white" opacity="0.8" r="2" stroke="green" stroke-width="1" /><circle cx="158" cy="213" fill="white" opacity="0.8" r="2" stroke="green" stroke-width="1" /><circle cx="195" cy="222" fill="white" opacity="0.8" r="2" stroke="green" stroke-width="1" /><circle cx="136" cy="229" fill="white" opacity="0.8" r="2" stroke="green" stroke-width="1" /><circle cx="151" cy="233" fill="white" opacity="0.8" r="2" stroke="green" stroke-width="1" /><circle cx="133" cy="237" fill="white" opacity="0.8" r="2" stroke="green" stroke-width="1" /><circle cx="145" cy="248" fill="white" opacity="0.8" r="2" stroke="green" stroke-width="1" /></g></svg>