<?xml version="1.0" encoding="utf-8" ?>
<svg baseProfile="full" height="256" version="1.1" width="256" xmlns="http://www.w3.org/2000/svg" xmlns:ev="http://www.w3.org/2001/xml-events" xmlns:xlink="http://www.w3.org/1999/xlink"><defs /><g fill="black" id="shape"><line opacity="0.8" stroke="red" stroke-width="1" x1="78" x2="152" y1="55" y2="70" /><line opacity="0.8" stroke="red" stroke-width="1" x1="78" x2="63" y1="55" y2="77" /><line opacity="0.8" stroke="red" stroke-width="1" x1="156" x2="231" y1="58" y2="65" /><line opacity="0.8" stroke="red" stroke-width="1" x1="156" x2="152" y1="58" y2="70" /><line opacity="0.8" stroke="red" stroke-width="1" x1="231" x2="216" y1="65" y2="106" /><line opacity="0.8" stroke="red" stroke-width="1" x1="63" x2="142" y1="77" y2="92" /><line opacity="0.8" stroke="red" stroke-width="1" x1="63" x2="22" y1="77" y2="169" /><line opacity="0.8" stroke="red" stroke-width="1" x1="142" x2="216" y1="92" y2="106" /><line opacity="0.8" stroke="red" stroke-width="1" x1="216" x2="172" y1="106" y2="199" /><line opacity="0.8" stroke="red" stroke-width="1" x1="129" x2="124" y1="165" y2="178" /><line opacity="0.8" stroke="red" stroke-width="1" x1="22" x2="172" y1="169" y2="199" /><line opacity="0.8" stroke="red" stroke-width="1" x1="124" x2="139" y1="178" y2="181" /><circle cx="78" cy="55" fill="white" opacity="0.8" r="2" stroke="green" stroke-width="1" /><circle cx="156" cy="58" fill="white" opacity="0.8" r="2" stroke="green" stroke-width="1" /><circle cx="231" cy="65" fill="white" opacity="0.8" r="2" stroke="green" stroke-width="1" /><circle cx="152" cy="70" fill="white" opacity="0.8" r="2" stroke="green" stroke-width="1" /><circle cx="63" cy="77" fill="white" opacity="0.8" r="2" stroke="green" stroke-width="1" /><circle cx="142" cy="92" fill="white" opacity="0.8" r="2" stroke="green" stroke-width="1" /><circle cx="90" cy="105" fill="white" opacity="0.8" r="2" stroke="green" stroke-width="1" /><circle cx="216" cy="106" fill="white" opacity="0.8" r="2" stroke="green" stroke-width="1" /><circle cx="82" cy="157" fill="white" opacity="0.8" r="2" stroke="green" stroke-width="1" /><circle cx="129" cy="165" fill="white" opacity="0.8" r="2" stroke="green" stroke-width="1" /><circle cx="61" cy="166" fill="white" opacity="0.8" r="2" stroke="green" stroke-width="1" /><circle cx="22" cy="169" fill="white" opacity="0.8" r="2" stroke="green" stroke-width="1" /><circle cx="124" cy="178" fill="white" opacity="0.8" r="2" stroke="green" stroke-width="1" /><circle cx="139" cy="181" fill="white" opacity="0.8" r="2" stroke="green" stroke-width="1" /><circle cx="172" cy="199" fill="white" opacity="0.8" r="2" stroke="green" stroke-width="1" /></g></svg>