<?xml version="1.0" encoding="utf-8" ?>
<svg baseProfile="full" height="256" version="1.1" width="256" xmlns="http://www.w3.org/2000/svg" xmlns:ev="http://www.w3.org/2001/xml-events" xmlns:xlink="http://www.w3.org/1999/xlink"><defs /><g fill="black" id="shape"><line opacity="0.8" stroke="red" stroke-width="1" x1="191" x2="158" y1="88" y2="89" /><line opacity="0.8" stroke="red" stroke-width="1" x1="191" x2="193" y1="88" y2="166" /><line opacity="0.8" stroke="red" stroke-width="1" x1="158" x2="160" y1="89" y2="121" /><line opacity="0.8" stroke="red" stroke-width="1" x1="160" x2="103" y1="121" y2="124" /><line opacity="0.8" stroke="red" stroke-width="1" x1="103" x2="59" y1="124" y2="127" /><line opacity="0.8" stroke="red" stroke-width="1" x1="59" x2="64" y1="127" y2="158" /><line opacity="0.8" stroke="red" stroke-width="1" x1="161" x2="64" y1="152" y2="158" /><line opacity="0.8" stroke="red" stroke-width="1" x1="161" x2="161" y1="152" y2="168" /><line opacity="0.8" stroke="red" stroke-width="1" x1="193" x2="161" y1="166" y2="168" /><circle cx="191" cy="88" fill="white" opacity="0.8" r="2" stroke="green" stroke-width="1" /><circle cx="158" cy="89" fill="white" opacity="0.8" r="2" stroke="green" stroke-width="1" /><circle cx="160" cy="121" fill="white" opacity="0.8" r="2" stroke="green" stroke-width="1" /><circle cx="103" cy="124" fill="white" opacity="0.8" r="2" stroke="green" stroke-width="1" /><circle cx="59" cy="127" fill="white" opacity="0.8" r="2" stroke="green" stroke-width="1" /><circle cx="161" cy="152" fill="white" opacity="0.8" r="2" stroke="green" stroke-width="1" /><circle cx="64" cy="158" fill="white" opacity="0.8" r="2" stroke="green" stroke-width="1" /><circle cx="193" cy="166" fill="white" opacity="0.8" r="2" stroke="green" stroke-width="1" /><circle cx="161" cy="168" fill="white" opacity="0.8" r="2" stroke="green" stroke-width="1" /></g></svg>