<?xml version="1.0" encoding="utf-8" ?>
<svg baseProfile="full" height="256" version="1.1" width="256" xmlns="http://www.w3.org/2000/svg" xmlns:ev="http://www.w3.org/2001/xml-events" xmlns:xlink="http://www.w3.org/1999/xlink"><defs /><g fill="black" id="shape"><line opacity="0.8" stroke="red" stroke-width="1" x1="234" x2="143" y1="68" y2="71" /><line opacity="0.8" stroke="red" stroke-width="1" x1="234" x2="238" y1="68" y2="178" /><line opacity="0.8" stroke="red" stroke-width="1" x1="143" x2="143" y1="71" y2="89" /><line opacity="0.8" stroke="red" stroke-width="1" x1="143" x2="88" y1="89" y2="92" /><line opacity="0.8" stroke="red" stroke-width="1" x1="88" x2="88" y1="92" y2="110" /><line opacity="0.8" stroke="red" stroke-width="1" x1="88" x2="33" y1="110" y2="113" /><line opacity="0.8" stroke="red" stroke-width="1" x1="33" x2="33" y1="113" y2="132" /><line opacity="0.8" stroke="red" stroke-width="1" x1="238" x2="16" y1="178" y2="186" /><circle cx="234" cy="68" fill="white" opacity="0.8" r="2" stroke="green" stroke-width="1" /><circle cx="143" cy="71" fill="white" opacity="0.8" r="2" stroke="green" stroke-width="1" /><circle cx="143" cy="89" fill="white" opacity="0.8" r="2" stroke="green" stroke-width="1" /><circle cx="88" cy="92" fill="white" opacity="0.8" r="2" stroke="green" stroke-width="1" /><circle cx="88" cy="110" fill="white" opacity="0.8" r="2" stroke="green" stroke-width="1" /><circle cx="33" cy="113" fill="white" opacity="0.8" r="2" stroke="green" stroke-width="1" /><circle cx="33" cy="132" fill="white" opacity="0.8" r="2" stroke="green" stroke-width="1" /><circle cx="238" cy="178" fill="white" opacity="0.8" r="2" stroke="green" stroke-width="1" /><circle cx="16" cy="186" fill="white" opacity="0.8" r="2" stroke="green" stroke-width="1" /></g></svg>