<?xml version="1.0" encoding="utf-8" ?>
<svg baseProfile="full" height="256" version="1.1" width="256" xmlns="http://www.w3.org/2000/svg" xmlns:ev="http://www.w3.org/2001/xml-events" xmlns:xlink="http://www.w3.org/1999/xlink"><defs /><g fill="black" id="shape"><line opacity="0.8" stroke="red" stroke-width="1" x1="92" x2="47" y1="63" y2="64" /><line opacity="0.8" stroke="red" stroke-width="1" x1="47" x2="49" y1="64" y2="130" /><line opacity="0.8" stroke="red" stroke-width="1" x1="98" x2="203" y1="82" y2="82" /><line opacity="0.8" stroke="red" stroke-width="1" x1="98" x2="97" y1="82" y2="131" /><line opacity="0.8" stroke="red" stroke-width="1" x1="203" x2="202" y1="82" y2="156" /><line opacity="0.8" stroke="red" stroke-width="1" x1="49" x2="97" y1="130" y2="131" /><line opacity="0.8" stroke="red" stroke-width="1" x1="97" x2="101" y1="131" y2="172" /><line opacity="0.8" stroke="red" stroke-width="1" x1="180" x2="202" y1="150" y2="156" /><line opacity="0.8" stroke="red" stroke-width="1" x1="180" x2="174" y1="150" y2="170" /><line opacity="0.8" stroke="red" stroke-width="1" x1="202" x2="203" y1="156" y2="171" /><line opacity="0.8" stroke="red" stroke-width="1" x1="174" x2="203" y1="170" y2="171" /><line opacity="0.8" stroke="red" stroke-width="1" x1="174" x2="121" y1="170" y2="174" /><line opacity="0.8" stroke="red" stroke-width="1" x1="101" x2="121" y1="172" y2="174" /><line opacity="0.8" stroke="red" stroke-width="1" x1="121" x2="123" y1="174" y2="189" /><line opacity="0.8" stroke="red" stroke-width="1" x1="123" x2="177" y1="189" y2="190" /><circle cx="92" cy="63" fill="white" opacity="0.8" r="2" stroke="green" stroke-width="1" /><circle cx="47" cy="64" fill="white" opacity="0.8" r="2" stroke="green" stroke-width="1" /><circle cx="98" cy="82" fill="white" opacity="0.8" r="2" stroke="green" stroke-width="1" /><circle cx="203" cy="82" fill="white" opacity="0.8" r="2" stroke="green" stroke-width="1" /><circle cx="49" cy="130" fill="white" opacity="0.8" r="2" stroke="green" stroke-width="1" /><circle cx="97" cy="131" fill="white" opacity="0.8" r="2" stroke="green" stroke-width="1" /><circle cx="180" cy="150" fill="white" opacity="0.8" r="2" stroke="green" stroke-width="1" /><circle cx="202" cy="156" fill="white" opacity="0.8" r="2" stroke="green" stroke-width="1" /><circle cx="174" cy="170" fill="white" opacity="0.8" r="2" stroke="green" stroke-width="1" /><circle cx="203" cy="171" fill="white" opacity="0.8" r="2" stroke="green" stroke-width="1" /><circle cx="101" cy="172" fill="white" opacity="0.8" r="2" stroke="green" stroke-width="1" /><circle cx="121" cy="174" fill="white" opacity="0.8" r="2" stroke="green" stroke-width="1" /><circle cx="123" cy="189" fill="white" opacity="0.8" r="2" stroke="green" stroke-width="1" /><circle cx="177" cy="190" fill="white" opacity="0.8" r="2" stroke="green" stroke-width="1" /></g></svg>