<?xml version="1.0" encoding="utf-8" ?>
<svg baseProfile="full" height="256" version="1.1" width="256" xmlns="http://www.w3.org/2000/svg" xmlns:ev="http://www.w3.org/2001/xml-events" xmlns:xlink="http://www.w3.org/1999/xlink"><defs /><g fill="black" id="shape"><line opacity="0.8" stroke="red" stroke-width="1" x1="66" x2="164" y1="71" y2="82" /><line opacity="0.8" stroke="red" stroke-width="1" x1="66" x2="19" y1="71" y2="111" /><line opacity="0.8" stroke="red" stroke-width="1" x1="164" x2="215" y1="82" y2="109" /><line opacity="0.8" stroke="red" stroke-width="1" x1="217" x2="215" y1="99" y2="109" /><line opacity="0.8" stroke="red" stroke-width="1" x1="217" x2="234" y1="99" y2="110" /><line opacity="0.8" stroke="red" stroke-width="1" x1="234" x2="222" y1="110" y2="120" /><line opacity="0.8" stroke="red" stroke-width="1" x1="19" x2="164" y1="111" y2="184" /><line opacity="0.8" stroke="red" stroke-width="1" x1="222" x2="238" y1="120" y2="121" /><line opacity="0.8" stroke="red" stroke-width="1" x1="238" x2="164" y1="121" y2="184" /><circle cx="66" cy="71" fill="white" opacity="0.8" r="2" stroke="green" stroke-width="1" /><circle cx="164" cy="82" fill="white" opacity="0.8" r="2" stroke="green" stroke-width="1" /><circle cx="217" cy="99" fill="white" opacity="0.8" r="2" stroke="green" stroke-width="1" /><circle cx="215" cy="109" fill="white" opacity="0.8" r="2" stroke="green" stroke-width="1" /><circle cx="234" cy="110" fill="white" opacity="0.8" r="2" stroke="green" stroke-width="1" /><circle cx="19" cy="111" fill="white" opacity="0.8" r="2" stroke="green" stroke-width="1" /><circle cx="222" cy="120" fill="white" opacity="0.8" r="2" stroke="green" stroke-width="1" /><circle cx="238" cy="121" fill="white" opacity="0.8" r="2" stroke="green" stroke-width="1" /><circle cx="124" cy="140" fill="white" opacity="0.8" r="2" stroke="green" stroke-width="1" /><circle cx="164" cy="184" fill="white" opacity="0.8" r="2" stroke="green" stroke-width="1" /></g></svg>