<?xml version="1.0" encoding="utf-8" ?>
<svg baseProfile="full" height="256" version="1.1" width="256" xmlns="http://www.w3.org/2000/svg" xmlns:ev="http://www.w3.org/2001/xml-events" xmlns:xlink="http://www.w3.org/1999/xlink"><defs /><g fill="black" id="shape"><line opacity="0.8" stroke="red" stroke-width="1" x1="204" x2="147" y1="25" y2="31" /><line opacity="0.8" stroke="red" stroke-width="1" x1="204" x2="206" y1="25" y2="57" /><line opacity="0.8" stroke="red" stroke-width="1" x1="147" x2="149" y1="31" y2="52" /><line opacity="0.8" stroke="red" stroke-width="1" x1="188" x2="176" y1="51" y2="52" /><line opacity="0.8" stroke="red" stroke-width="1" x1="188" x2="206" y1="51" y2="57" /><line opacity="0.8" stroke="red" stroke-width="1" x1="149" x2="35" y1="52" y2="58" /><line opacity="0.8" stroke="red" stroke-width="1" x1="176" x2="161" y1="52" y2="61" /><line opacity="0.8" stroke="red" stroke-width="1" x1="206" x2="208" y1="57" y2="76" /><line opacity="0.8" stroke="red" stroke-width="1" x1="35" x2="45" y1="58" y2="135" /><line opacity="0.8" stroke="red" stroke-width="1" x1="161" x2="159" y1="61" y2="82" /><line opacity="0.8" stroke="red" stroke-width="1" x1="208" x2="211" y1="76" y2="125" /><line opacity="0.8" stroke="red" stroke-width="1" x1="159" x2="140" y1="82" y2="88" /><line opacity="0.8" stroke="red" stroke-width="1" x1="96" x2="140" y1="88" y2="88" /><line opacity="0.8" stroke="red" stroke-width="1" x1="96" x2="97" y1="88" y2="101" /><line opacity="0.8" stroke="red" stroke-width="1" x1="97" x2="96" y1="101" y2="133" /><line opacity="0.8" stroke="red" stroke-width="1" x1="211" x2="159" y1="125" y2="129" /><line opacity="0.8" stroke="red" stroke-width="1" x1="211" x2="221" y1="125" y2="198" /><line opacity="0.8" stroke="red" stroke-width="1" x1="159" x2="160" y1="129" y2="151" /><line opacity="0.8" stroke="red" stroke-width="1" x1="96" x2="45" y1="133" y2="135" /><line opacity="0.8" stroke="red" stroke-width="1" x1="96" x2="101" y1="133" y2="154" /><line opacity="0.8" stroke="red" stroke-width="1" x1="45" x2="54" y1="135" y2="217" /><line opacity="0.8" stroke="red" stroke-width="1" x1="160" x2="101" y1="151" y2="154" /><line opacity="0.8" stroke="red" stroke-width="1" x1="221" x2="54" y1="198" y2="217" /><circle cx="204" cy="25" fill="white" opacity="0.8" r="2" stroke="green" stroke-width="1" /><circle cx="147" cy="31" fill="white" opacity="0.8" r="2" stroke="green" stroke-width="1" /><circle cx="188" cy="51" fill="white" opacity="0.8" r="2" stroke="green" stroke-width="1" /><circle cx="149" cy="52" fill="white" opacity="0.8" r="2" stroke="green" stroke-width="1" /><circle cx="176" cy="52" fill="white" opacity="0.8" r="2" stroke="green" stroke-width="1" /><circle cx="206" cy="57" fill="white" opacity="0.8" r="2" stroke="green" stroke-width="1" /><circle cx="35" cy="58" fill="white" opacity="0.8" r="2" stroke="green" stroke-width="1" /><circle cx="161" cy="61" fill="white" opacity="0.8" r="2" stroke="green" stroke-width="1" /><circle cx="208" cy="76" fill="white" opacity="0.8" r="2" stroke="green" stroke-width="1" /><circle cx="159" cy="82" fill="white" opacity="0.8" r="2" stroke="green" stroke-width="1" /><circle cx="96" cy="88" fill="white" opacity="0.8" r="2" stroke="green" stroke-width="1" /><circle cx="140" cy="88" fill="white" opacity="0.8" r="2" stroke="green" stroke-width="1" /><circle cx="97" cy="101" fill="white" opacity="0.8" r="2" stroke="green" stroke-width="1" /><circle cx="211" cy="125" fill="white" opacity="0.8" r="2" stroke="green" stroke-width="1" /><circle cx="159" cy="129" fill="white" opacity="0.8" r="2" stroke="green" stroke-width="1" /><circle cx="96" cy="133" fill="white" opacity="0.8" r="2" stroke="green" stroke-width="1" /><circle cx="45" cy="135" fill="white" opacity="0.8" r="2" stroke="green" stroke-width="1" /><circle cx="160" cy="151" fill="white" opacity="0.8" r="2" stroke="green" stroke-width="1" /><circle cx="101" cy="154" fill="white" opacity="0.8" r="2" stroke="green" stroke-width="1" /><circle cx="221" cy="198" fill="white" opacity="0.8" r="2" stroke="green" stroke-width="1" /><circle cx="54" cy="217" fill="white" opacity="0.8" r="2" stroke="green" stroke-width="1" /></g></svg>