<?xml version="1.0" encoding="utf-8" ?>
<svg baseProfile="full" height="256" version="1.1" width="256" xmlns="http://www.w3.org/2000/svg" xmlns:ev="http://www.w3.org/2001/xml-events" xmlns:xlink="http://www.w3.org/1999/xlink"><defs /><g fill="black" id="shape"><line opacity="0.8" stroke="red" stroke-width="1" x1="62" x2="94" y1="57" y2="66" /><line opacity="0.8" stroke="red" stroke-width="1" x1="62" x2="15" y1="57" y2="111" /><line opacity="0.8" stroke="red" stroke-width="1" x1="202" x2="193" y1="64" y2="73" /><line opacity="0.8" stroke="red" stroke-width="1" x1="94" x2="71" y1="66" y2="95" /><line opacity="0.8" stroke="red" stroke-width="1" x1="193" x2="249" y1="73" y2="95" /><line opacity="0.8" stroke="red" stroke-width="1" x1="249" x2="190" y1="95" y2="136" /><line opacity="0.8" stroke="red" stroke-width="1" x1="71" x2="48" y1="95" y2="122" /><line opacity="0.8" stroke="red" stroke-width="1" x1="71" x2="144" y1="95" y2="122" /><line opacity="0.8" stroke="red" stroke-width="1" x1="190" x2="239" y1="104" y2="121" /><line opacity="0.8" stroke="red" stroke-width="1" x1="190" x2="164" y1="104" y2="132" /><line opacity="0.8" stroke="red" stroke-width="1" x1="15" x2="48" y1="111" y2="122" /><line opacity="0.8" stroke="red" stroke-width="1" x1="239" x2="218" y1="121" y2="147" /><line opacity="0.8" stroke="red" stroke-width="1" x1="48" x2="121" y1="122" y2="148" /><line opacity="0.8" stroke="red" stroke-width="1" x1="144" x2="164" y1="122" y2="132" /><line opacity="0.8" stroke="red" stroke-width="1" x1="144" x2="121" y1="122" y2="148" /><line opacity="0.8" stroke="red" stroke-width="1" x1="164" x2="145" y1="132" y2="156" /><line opacity="0.8" stroke="red" stroke-width="1" x1="190" x2="218" y1="136" y2="147" /><line opacity="0.8" stroke="red" stroke-width="1" x1="218" x2="174" y1="147" y2="199" /><line opacity="0.8" stroke="red" stroke-width="1" x1="121" x2="145" y1="148" y2="156" /><line opacity="0.8" stroke="red" stroke-width="1" x1="145" x2="126" y1="156" y2="181" /><line opacity="0.8" stroke="red" stroke-width="1" x1="126" x2="174" y1="181" y2="199" /><circle cx="62" cy="57" fill="white" opacity="0.8" r="2" stroke="green" stroke-width="1" /><circle cx="202" cy="64" fill="white" opacity="0.8" r="2" stroke="green" stroke-width="1" /><circle cx="94" cy="66" fill="white" opacity="0.8" r="2" stroke="green" stroke-width="1" /><circle cx="193" cy="73" fill="white" opacity="0.8" r="2" stroke="green" stroke-width="1" /><circle cx="190" cy="90" fill="white" opacity="0.8" r="2" stroke="green" stroke-width="1" /><circle cx="249" cy="95" fill="white" opacity="0.8" r="2" stroke="green" stroke-width="1" /><circle cx="71" cy="95" fill="white" opacity="0.8" r="2" stroke="green" stroke-width="1" /><circle cx="190" cy="104" fill="white" opacity="0.8" r="2" stroke="green" stroke-width="1" /><circle cx="15" cy="111" fill="white" opacity="0.8" r="2" stroke="green" stroke-width="1" /><circle cx="239" cy="121" fill="white" opacity="0.8" r="2" stroke="green" stroke-width="1" /><circle cx="48" cy="122" fill="white" opacity="0.8" r="2" stroke="green" stroke-width="1" /><circle cx="144" cy="122" fill="white" opacity="0.8" r="2" stroke="green" stroke-width="1" /><circle cx="164" cy="132" fill="white" opacity="0.8" r="2" stroke="green" stroke-width="1" /><circle cx="190" cy="136" fill="white" opacity="0.8" r="2" stroke="green" stroke-width="1" /><circle cx="218" cy="147" fill="white" opacity="0.8" r="2" stroke="green" stroke-width="1" /><circle cx="121" cy="148" fill="white" opacity="0.8" r="2" stroke="green" stroke-width="1" /><circle cx="145" cy="156" fill="white" opacity="0.8" r="2" stroke="green" stroke-width="1" /><circle cx="126" cy="181" fill="white" opacity="0.8" r="2" stroke="green" stroke-width="1" /><circle cx="174" cy="199" fill="white" opacity="0.8" r="2" stroke="green" stroke-width="1" /></g></svg>