<?xml version="1.0" encoding="utf-8" ?>
<svg baseProfile="full" height="256" version="1.1" width="256" xmlns="http://www.w3.org/2000/svg" xmlns:ev="http://www.w3.org/2001/xml-events" xmlns:xlink="http://www.w3.org/1999/xlink"><defs /><g fill="black" id="shape"><line opacity="0.8" stroke="red" stroke-width="1" x1="42" x2="50" y1="53" y2="55" /><line opacity="0.8" stroke="red" stroke-width="1" x1="50" x2="79" y1="55" y2="57" /><line opacity="0.8" stroke="red" stroke-width="1" x1="50" x2="41" y1="55" y2="188" /><line opacity="0.8" stroke="red" stroke-width="1" x1="79" x2="75" y1="57" y2="108" /><line opacity="0.8" stroke="red" stroke-width="1" x1="75" x2="217" y1="108" y2="118" /><line opacity="0.8" stroke="red" stroke-width="1" x1="75" x2="72" y1="108" y2="150" /><line opacity="0.8" stroke="red" stroke-width="1" x1="217" x2="210" y1="118" y2="159" /><line opacity="0.8" stroke="red" stroke-width="1" x1="150" x2="195" y1="139" y2="153" /><line opacity="0.8" stroke="red" stroke-width="1" x1="150" x2="134" y1="139" y2="153" /><line opacity="0.8" stroke="red" stroke-width="1" x1="72" x2="134" y1="150" y2="153" /><line opacity="0.8" stroke="red" stroke-width="1" x1="72" x2="69" y1="150" y2="191" /><line opacity="0.8" stroke="red" stroke-width="1" x1="195" x2="210" y1="153" y2="159" /><line opacity="0.8" stroke="red" stroke-width="1" x1="210" x2="208" y1="159" y2="167" /><line opacity="0.8" stroke="red" stroke-width="1" x1="189" x2="222" y1="177" y2="182" /><line opacity="0.8" stroke="red" stroke-width="1" x1="41" x2="69" y1="188" y2="191" /><line opacity="0.8" stroke="red" stroke-width="1" x1="69" x2="177" y1="191" y2="203" /><line opacity="0.8" stroke="red" stroke-width="1" x1="188" x2="177" y1="199" y2="203" /><circle cx="42" cy="53" fill="white" opacity="0.8" r="2" stroke="green" stroke-width="1" /><circle cx="50" cy="55" fill="white" opacity="0.8" r="2" stroke="green" stroke-width="1" /><circle cx="79" cy="57" fill="white" opacity="0.8" r="2" stroke="green" stroke-width="1" /><circle cx="75" cy="108" fill="white" opacity="0.8" r="2" stroke="green" stroke-width="1" /><circle cx="217" cy="118" fill="white" opacity="0.8" r="2" stroke="green" stroke-width="1" /><circle cx="150" cy="139" fill="white" opacity="0.8" r="2" stroke="green" stroke-width="1" /><circle cx="72" cy="150" fill="white" opacity="0.8" r="2" stroke="green" stroke-width="1" /><circle cx="195" cy="153" fill="white" opacity="0.8" r="2" stroke="green" stroke-width="1" /><circle cx="134" cy="153" fill="white" opacity="0.8" r="2" stroke="green" stroke-width="1" /><circle cx="210" cy="159" fill="white" opacity="0.8" r="2" stroke="green" stroke-width="1" /><circle cx="208" cy="167" fill="white" opacity="0.8" r="2" stroke="green" stroke-width="1" /><circle cx="189" cy="177" fill="white" opacity="0.8" r="2" stroke="green" stroke-width="1" /><circle cx="222" cy="182" fill="white" opacity="0.8" r="2" stroke="green" stroke-width="1" /><circle cx="41" cy="188" fill="white" opacity="0.8" r="2" stroke="green" stroke-width="1" /><circle cx="69" cy="191" fill="white" opacity="0.8" r="2" stroke="green" stroke-width="1" /><circle cx="188" cy="199" fill="white" opacity="0.8" r="2" stroke="green" stroke-width="1" /><circle cx="177" cy="203" fill="white" opacity="0.8" r="2" stroke="green" stroke-width="1" /></g></svg>