<?xml version="1.0" encoding="utf-8" ?>
<svg baseProfile="full" height="256" version="1.1" width="256" xmlns="http://www.w3.org/2000/svg" xmlns:ev="http://www.w3.org/2001/xml-events" xmlns:xlink="http://www.w3.org/1999/xlink"><defs /><g fill="black" id="shape"><line opacity="0.8" stroke="red" stroke-width="1" x1="110" x2="38" y1="65" y2="65" /><line opacity="0.8" stroke="red" stroke-width="1" x1="110" x2="109" y1="65" y2="75" /><line opacity="0.8" stroke="red" stroke-width="1" x1="38" x2="39" y1="65" y2="116" /><line opacity="0.8" stroke="red" stroke-width="1" x1="217" x2="109" y1="74" y2="75" /><line opacity="0.8" stroke="red" stroke-width="1" x1="217" x2="216" y1="74" y2="167" /><line opacity="0.8" stroke="red" stroke-width="1" x1="39" x2="40" y1="116" y2="128" /><line opacity="0.8" stroke="red" stroke-width="1" x1="47" x2="40" y1="124" y2="128" /><line opacity="0.8" stroke="red" stroke-width="1" x1="47" x2="48" y1="124" y2="165" /><line opacity="0.8" stroke="red" stroke-width="1" x1="48" x2="216" y1="165" y2="167" /><line opacity="0.8" stroke="red" stroke-width="1" x1="216" x2="215" y1="167" y2="194" /><circle cx="110" cy="65" fill="white" opacity="0.8" r="2" stroke="green" stroke-width="1" /><circle cx="38" cy="65" fill="white" opacity="0.8" r="2" stroke="green" stroke-width="1" /><circle cx="217" cy="74" fill="white" opacity="0.8" r="2" stroke="green" stroke-width="1" /><circle cx="109" cy="75" fill="white" opacity="0.8" r="2" stroke="green" stroke-width="1" /><circle cx="39" cy="116" fill="white" opacity="0.8" r="2" stroke="green" stroke-width="1" /><circle cx="47" cy="124" fill="white" opacity="0.8" r="2" stroke="green" stroke-width="1" /><circle cx="40" cy="128" fill="white" opacity="0.8" r="2" stroke="green" stroke-width="1" /><circle cx="48" cy="165" fill="white" opacity="0.8" r="2" stroke="green" stroke-width="1" /><circle cx="216" cy="167" fill="white" opacity="0.8" r="2" stroke="green" stroke-width="1" /><circle cx="215" cy="194" fill="white" opacity="0.8" r="2" stroke="green" stroke-width="1" /></g></svg>