<?xml version="1.0" encoding="utf-8" ?>
<svg baseProfile="full" height="256" version="1.1" width="256" xmlns="http://www.w3.org/2000/svg" xmlns:ev="http://www.w3.org/2001/xml-events" xmlns:xlink="http://www.w3.org/1999/xlink"><defs /><g fill="black" id="shape"><line opacity="0.8" stroke="red" stroke-width="1" x1="154" x2="171" y1="63" y2="84" /><line opacity="0.8" stroke="red" stroke-width="1" x1="154" x2="14" y1="63" y2="105" /><line opacity="0.8" stroke="red" stroke-width="1" x1="180" x2="171" y1="80" y2="84" /><line opacity="0.8" stroke="red" stroke-width="1" x1="180" x2="194" y1="80" y2="103" /><line opacity="0.8" stroke="red" stroke-width="1" x1="171" x2="174" y1="84" y2="92" /><line opacity="0.8" stroke="red" stroke-width="1" x1="174" x2="134" y1="92" y2="106" /><line opacity="0.8" stroke="red" stroke-width="1" x1="204" x2="194" y1="100" y2="103" /><line opacity="0.8" stroke="red" stroke-width="1" x1="204" x2="219" y1="100" y2="121" /><line opacity="0.8" stroke="red" stroke-width="1" x1="14" x2="70" y1="105" y2="193" /><line opacity="0.8" stroke="red" stroke-width="1" x1="228" x2="219" y1="118" y2="121" /><line opacity="0.8" stroke="red" stroke-width="1" x1="228" x2="235" y1="118" y2="129" /><line opacity="0.8" stroke="red" stroke-width="1" x1="235" x2="244" y1="129" y2="140" /><line opacity="0.8" stroke="red" stroke-width="1" x1="235" x2="185" y1="129" y2="142" /><line opacity="0.8" stroke="red" stroke-width="1" x1="244" x2="70" y1="140" y2="193" /><line opacity="0.8" stroke="red" stroke-width="1" x1="185" x2="162" y1="142" y2="149" /><circle cx="154" cy="63" fill="white" opacity="0.8" r="2" stroke="green" stroke-width="1" /><circle cx="180" cy="80" fill="white" opacity="0.8" r="2" stroke="green" stroke-width="1" /><circle cx="171" cy="84" fill="white" opacity="0.8" r="2" stroke="green" stroke-width="1" /><circle cx="174" cy="92" fill="white" opacity="0.8" r="2" stroke="green" stroke-width="1" /><circle cx="204" cy="100" fill="white" opacity="0.8" r="2" stroke="green" stroke-width="1" /><circle cx="194" cy="103" fill="white" opacity="0.8" r="2" stroke="green" stroke-width="1" /><circle cx="14" cy="105" fill="white" opacity="0.8" r="2" stroke="green" stroke-width="1" /><circle cx="134" cy="106" fill="white" opacity="0.8" r="2" stroke="green" stroke-width="1" /><circle cx="228" cy="118" fill="white" opacity="0.8" r="2" stroke="green" stroke-width="1" /><circle cx="219" cy="121" fill="white" opacity="0.8" r="2" stroke="green" stroke-width="1" /><circle cx="235" cy="129" fill="white" opacity="0.8" r="2" stroke="green" stroke-width="1" /><circle cx="244" cy="140" fill="white" opacity="0.8" r="2" stroke="green" stroke-width="1" /><circle cx="185" cy="142" fill="white" opacity="0.8" r="2" stroke="green" stroke-width="1" /><circle cx="162" cy="149" fill="white" opacity="0.8" r="2" stroke="green" stroke-width="1" /><circle cx="70" cy="193" fill="white" opacity="0.8" r="2" stroke="green" stroke-width="1" /></g></svg>