<?xml version="1.0" encoding="utf-8" ?>
<svg baseProfile="full" height="256" version="1.1" width="256" xmlns="http://www.w3.org/2000/svg" xmlns:ev="http://www.w3.org/2001/xml-events" xmlns:xlink="http://www.w3.org/1999/xlink"><defs /><g fill="black" id="shape"><line opacity="0.8" stroke="red" stroke-width="1" x1="130" x2="158" y1="94" y2="111" /><line opacity="0.8" stroke="red" stroke-width="1" x1="130" x2="90" y1="94" y2="126" /><line opacity="0.8" stroke="red" stroke-width="1" x1="158" x2="148" y1="111" y2="121" /><line opacity="0.8" stroke="red" stroke-width="1" x1="148" x2="165" y1="121" y2="131" /><line opacity="0.8" stroke="red" stroke-width="1" x1="148" x2="136" y1="121" y2="133" /><line opacity="0.8" stroke="red" stroke-width="1" x1="90" x2="114" y1="126" y2="140" /><line opacity="0.8" stroke="red" stroke-width="1" x1="165" x2="146" y1="131" y2="147" /><line opacity="0.8" stroke="red" stroke-width="1" x1="114" x2="102" y1="140" y2="148" /><line opacity="0.8" stroke="red" stroke-width="1" x1="146" x2="130" y1="147" y2="159" /><line opacity="0.8" stroke="red" stroke-width="1" x1="102" x2="130" y1="148" y2="159" /><circle cx="130" cy="94" fill="white" opacity="0.8" r="2" stroke="green" stroke-width="1" /><circle cx="158" cy="111" fill="white" opacity="0.8" r="2" stroke="green" stroke-width="1" /><circle cx="148" cy="121" fill="white" opacity="0.8" r="2" stroke="green" stroke-width="1" /><circle cx="90" cy="126" fill="white" opacity="0.8" r="2" stroke="green" stroke-width="1" /><circle cx="165" cy="131" fill="white" opacity="0.8" r="2" stroke="green" stroke-width="1" /><circle cx="136" cy="133" fill="white" opacity="0.8" r="2" stroke="green" stroke-width="1" /><circle cx="114" cy="140" fill="white" opacity="0.8" r="2" stroke="green" stroke-width="1" /><circle cx="146" cy="147" fill="white" opacity="0.8" r="2" stroke="green" stroke-width="1" /><circle cx="102" cy="148" fill="white" opacity="0.8" r="2" stroke="green" stroke-width="1" /><circle cx="130" cy="159" fill="white" opacity="0.8" r="2" stroke="green" stroke-width="1" /></g></svg>