<?xml version="1.0" encoding="utf-8" ?>
<svg baseProfile="full" height="256" version="1.1" width="256" xmlns="http://www.w3.org/2000/svg" xmlns:ev="http://www.w3.org/2001/xml-events" xmlns:xlink="http://www.w3.org/1999/xlink"><defs /><g fill="black" id="shape"><line opacity="0.8" stroke="red" stroke-width="1" x1="135" x2="173" y1="83" y2="83" /><line opacity="0.8" stroke="red" stroke-width="1" x1="135" x2="79" y1="83" y2="95" /><line opacity="0.8" stroke="red" stroke-width="1" x1="135" x2="138" y1="83" y2="107" /><line opacity="0.8" stroke="red" stroke-width="1" x1="173" x2="175" y1="83" y2="158" /><line opacity="0.8" stroke="red" stroke-width="1" x1="79" x2="80" y1="95" y2="171" /><line opacity="0.8" stroke="red" stroke-width="1" x1="109" x2="118" y1="107" y2="119" /><line opacity="0.8" stroke="red" stroke-width="1" x1="145" x2="118" y1="119" y2="119" /><line opacity="0.8" stroke="red" stroke-width="1" x1="145" x2="146" y1="119" y2="132" /><line opacity="0.8" stroke="red" stroke-width="1" x1="118" x2="117" y1="119" y2="135" /><line opacity="0.8" stroke="red" stroke-width="1" x1="146" x2="117" y1="132" y2="135" /><line opacity="0.8" stroke="red" stroke-width="1" x1="118" x2="175" y1="157" y2="158" /><line opacity="0.8" stroke="red" stroke-width="1" x1="118" x2="118" y1="157" y2="171" /><line opacity="0.8" stroke="red" stroke-width="1" x1="118" x2="80" y1="171" y2="171" /><circle cx="135" cy="83" fill="white" opacity="0.8" r="2" stroke="green" stroke-width="1" /><circle cx="173" cy="83" fill="white" opacity="0.8" r="2" stroke="green" stroke-width="1" /><circle cx="79" cy="95" fill="white" opacity="0.8" r="2" stroke="green" stroke-width="1" /><circle cx="109" cy="107" fill="white" opacity="0.8" r="2" stroke="green" stroke-width="1" /><circle cx="138" cy="107" fill="white" opacity="0.8" r="2" stroke="green" stroke-width="1" /><circle cx="145" cy="119" fill="white" opacity="0.8" r="2" stroke="green" stroke-width="1" /><circle cx="118" cy="119" fill="white" opacity="0.8" r="2" stroke="green" stroke-width="1" /><circle cx="146" cy="132" fill="white" opacity="0.8" r="2" stroke="green" stroke-width="1" /><circle cx="117" cy="135" fill="white" opacity="0.8" r="2" stroke="green" stroke-width="1" /><circle cx="118" cy="157" fill="white" opacity="0.8" r="2" stroke="green" stroke-width="1" /><circle cx="175" cy="158" fill="white" opacity="0.8" r="2" stroke="green" stroke-width="1" /><circle cx="118" cy="171" fill="white" opacity="0.8" r="2" stroke="green" stroke-width="1" /><circle cx="80" cy="171" fill="white" opacity="0.8" r="2" stroke="green" stroke-width="1" /></g></svg>