<?xml version="1.0" encoding="utf-8" ?>
<svg baseProfile="full" height="256" version="1.1" width="256" xmlns="http://www.w3.org/2000/svg" xmlns:ev="http://www.w3.org/2001/xml-events" xmlns:xlink="http://www.w3.org/1999/xlink"><defs /><g fill="black" id="shape"><line opacity="0.8" stroke="red" stroke-width="1" x1="119" x2="201" y1="67" y2="118" /><line opacity="0.8" stroke="red" stroke-width="1" x1="119" x2="21" y1="67" y2="134" /><line opacity="0.8" stroke="red" stroke-width="1" x1="165" x2="145" y1="74" y2="90" /><line opacity="0.8" stroke="red" stroke-width="1" x1="165" x2="237" y1="74" y2="118" /><line opacity="0.8" stroke="red" stroke-width="1" x1="145" x2="57" y1="90" y2="151" /><line opacity="0.8" stroke="red" stroke-width="1" x1="185" x2="201" y1="117" y2="118" /><line opacity="0.8" stroke="red" stroke-width="1" x1="185" x2="143" y1="117" y2="147" /><line opacity="0.8" stroke="red" stroke-width="1" x1="201" x2="119" y1="118" y2="176" /><line opacity="0.8" stroke="red" stroke-width="1" x1="237" x2="135" y1="118" y2="189" /><line opacity="0.8" stroke="red" stroke-width="1" x1="21" x2="101" y1="134" y2="187" /><line opacity="0.8" stroke="red" stroke-width="1" x1="51" x2="57" y1="145" y2="151" /><line opacity="0.8" stroke="red" stroke-width="1" x1="119" x2="101" y1="176" y2="187" /><line opacity="0.8" stroke="red" stroke-width="1" x1="119" x2="135" y1="176" y2="189" /><circle cx="119" cy="67" fill="white" opacity="0.8" r="2" stroke="green" stroke-width="1" /><circle cx="165" cy="74" fill="white" opacity="0.8" r="2" stroke="green" stroke-width="1" /><circle cx="145" cy="90" fill="white" opacity="0.8" r="2" stroke="green" stroke-width="1" /><circle cx="185" cy="117" fill="white" opacity="0.8" r="2" stroke="green" stroke-width="1" /><circle cx="201" cy="118" fill="white" opacity="0.8" r="2" stroke="green" stroke-width="1" /><circle cx="237" cy="118" fill="white" opacity="0.8" r="2" stroke="green" stroke-width="1" /><circle cx="21" cy="134" fill="white" opacity="0.8" r="2" stroke="green" stroke-width="1" /><circle cx="51" cy="145" fill="white" opacity="0.8" r="2" stroke="green" stroke-width="1" /><circle cx="143" cy="147" fill="white" opacity="0.8" r="2" stroke="green" stroke-width="1" /><circle cx="57" cy="151" fill="white" opacity="0.8" r="2" stroke="green" stroke-width="1" /><circle cx="119" cy="176" fill="white" opacity="0.8" r="2" stroke="green" stroke-width="1" /><circle cx="101" cy="187" fill="white" opacity="0.8" r="2" stroke="green" stroke-width="1" /><circle cx="135" cy="189" fill="white" opacity="0.8" r="2" stroke="green" stroke-width="1" /></g></svg>