<?xml version="1.0" encoding="utf-8" ?>
<svg baseProfile="full" height="256" version="1.1" width="256" xmlns="http://www.w3.org/2000/svg" xmlns:ev="http://www.w3.org/2001/xml-events" xmlns:xlink="http://www.w3.org/1999/xlink"><defs /><g fill="black" id="shape"><line opacity="0.8" stroke="red" stroke-width="1" x1="157" x2="174" y1="57" y2="61" /><line opacity="0.8" stroke="red" stroke-width="1" x1="157" x2="139" y1="57" y2="124" /><line opacity="0.8" stroke="red" stroke-width="1" x1="174" x2="183" y1="61" y2="62" /><line opacity="0.8" stroke="red" stroke-width="1" x1="174" x2="141" y1="61" y2="181" /><line opacity="0.8" stroke="red" stroke-width="1" x1="183" x2="156" y1="62" y2="185" /><line opacity="0.8" stroke="red" stroke-width="1" x1="79" x2="74" y1="86" y2="92" /><line opacity="0.8" stroke="red" stroke-width="1" x1="79" x2="136" y1="86" y2="101" /><line opacity="0.8" stroke="red" stroke-width="1" x1="74" x2="76" y1="92" y2="115" /><line opacity="0.8" stroke="red" stroke-width="1" x1="136" x2="134" y1="101" y2="111" /><line opacity="0.8" stroke="red" stroke-width="1" x1="134" x2="132" y1="111" y2="122" /><line opacity="0.8" stroke="red" stroke-width="1" x1="76" x2="129" y1="115" y2="130" /><line opacity="0.8" stroke="red" stroke-width="1" x1="76" x2="69" y1="115" y2="134" /><line opacity="0.8" stroke="red" stroke-width="1" x1="132" x2="139" y1="122" y2="124" /><line opacity="0.8" stroke="red" stroke-width="1" x1="132" x2="129" y1="122" y2="130" /><line opacity="0.8" stroke="red" stroke-width="1" x1="139" x2="143" y1="124" y2="130" /><line opacity="0.8" stroke="red" stroke-width="1" x1="129" x2="143" y1="130" y2="130" /><line opacity="0.8" stroke="red" stroke-width="1" x1="129" x2="119" y1="130" y2="164" /><line opacity="0.8" stroke="red" stroke-width="1" x1="143" x2="126" y1="130" y2="176" /><line opacity="0.8" stroke="red" stroke-width="1" x1="69" x2="76" y1="134" y2="143" /><line opacity="0.8" stroke="red" stroke-width="1" x1="76" x2="111" y1="143" y2="151" /><line opacity="0.8" stroke="red" stroke-width="1" x1="111" x2="119" y1="151" y2="164" /><line opacity="0.8" stroke="red" stroke-width="1" x1="119" x2="126" y1="164" y2="176" /><line opacity="0.8" stroke="red" stroke-width="1" x1="119" x2="77" y1="164" y2="192" /><line opacity="0.8" stroke="red" stroke-width="1" x1="126" x2="141" y1="176" y2="181" /><line opacity="0.8" stroke="red" stroke-width="1" x1="141" x2="156" y1="181" y2="185" /><line opacity="0.8" stroke="red" stroke-width="1" x1="77" x2="105" y1="192" y2="197" /><circle cx="157" cy="57" fill="white" opacity="0.8" r="2" stroke="green" stroke-width="1" /><circle cx="174" cy="61" fill="white" opacity="0.8" r="2" stroke="green" stroke-width="1" /><circle cx="183" cy="62" fill="white" opacity="0.8" r="2" stroke="green" stroke-width="1" /><circle cx="79" cy="86" fill="white" opacity="0.8" r="2" stroke="green" stroke-width="1" /><circle cx="74" cy="92" fill="white" opacity="0.8" r="2" stroke="green" stroke-width="1" /><circle cx="136" cy="101" fill="white" opacity="0.8" r="2" stroke="green" stroke-width="1" /><circle cx="134" cy="111" fill="white" opacity="0.8" r="2" stroke="green" stroke-width="1" /><circle cx="76" cy="115" fill="white" opacity="0.8" r="2" stroke="green" stroke-width="1" /><circle cx="132" cy="122" fill="white" opacity="0.8" r="2" stroke="green" stroke-width="1" /><circle cx="139" cy="124" fill="white" opacity="0.8" r="2" stroke="green" stroke-width="1" /><circle cx="129" cy="130" fill="white" opacity="0.8" r="2" stroke="green" stroke-width="1" /><circle cx="143" cy="130" fill="white" opacity="0.8" r="2" stroke="green" stroke-width="1" /><circle cx="69" cy="134" fill="white" opacity="0.8" r="2" stroke="green" stroke-width="1" /><circle cx="76" cy="143" fill="white" opacity="0.8" r="2" stroke="green" stroke-width="1" /><circle cx="111" cy="151" fill="white" opacity="0.8" r="2" stroke="green" stroke-width="1" /><circle cx="119" cy="164" fill="white" opacity="0.8" r="2" stroke="green" stroke-width="1" /><circle cx="126" cy="176" fill="white" opacity="0.8" r="2" stroke="green" stroke-width="1" /><circle cx="141" cy="181" fill="white" opacity="0.8" r="2" stroke="green" stroke-width="1" /><circle cx="156" cy="185" fill="white" opacity="0.8" r="2" stroke="green" stroke-width="1" /><circle cx="77" cy="192" fill="white" opacity="0.8" r="2" stroke="green" stroke-width="1" /><circle cx="105" cy="197" fill="white" opacity="0.8" r="2" stroke="green" stroke-width="1" /></g></svg>