<?xml version="1.0" encoding="utf-8" ?>
<svg baseProfile="full" height="256" version="1.1" width="256" xmlns="http://www.w3.org/2000/svg" xmlns:ev="http://www.w3.org/2001/xml-events" xmlns:xlink="http://www.w3.org/1999/xlink"><defs /><g fill="black" id="shape"><line opacity="0.8" stroke="red" stroke-width="1" x1="177" x2="113" y1="20" y2="21" /><line opacity="0.8" stroke="red" stroke-width="1" x1="177" x2="178" y1="20" y2="143" /><line opacity="0.8" stroke="red" stroke-width="1" x1="113" x2="115" y1="21" y2="113" /><line opacity="0.8" stroke="red" stroke-width="1" x1="93" x2="115" y1="113" y2="113" /><line opacity="0.8" stroke="red" stroke-width="1" x1="93" x2="94" y1="113" y2="145" /><line opacity="0.8" stroke="red" stroke-width="1" x1="103" x2="178" y1="138" y2="143" /><line opacity="0.8" stroke="red" stroke-width="1" x1="103" x2="102" y1="138" y2="150" /><line opacity="0.8" stroke="red" stroke-width="1" x1="94" x2="102" y1="145" y2="150" /><line opacity="0.8" stroke="red" stroke-width="1" x1="102" x2="104" y1="150" y2="163" /><line opacity="0.8" stroke="red" stroke-width="1" x1="92" x2="104" y1="162" y2="163" /><line opacity="0.8" stroke="red" stroke-width="1" x1="92" x2="93" y1="162" y2="234" /><line opacity="0.8" stroke="red" stroke-width="1" x1="178" x2="93" y1="232" y2="234" /><circle cx="177" cy="20" fill="white" opacity="0.8" r="2" stroke="green" stroke-width="1" /><circle cx="113" cy="21" fill="white" opacity="0.8" r="2" stroke="green" stroke-width="1" /><circle cx="93" cy="113" fill="white" opacity="0.8" r="2" stroke="green" stroke-width="1" /><circle cx="115" cy="113" fill="white" opacity="0.8" r="2" stroke="green" stroke-width="1" /><circle cx="103" cy="138" fill="white" opacity="0.8" r="2" stroke="green" stroke-width="1" /><circle cx="178" cy="143" fill="white" opacity="0.8" r="2" stroke="green" stroke-width="1" /><circle cx="94" cy="145" fill="white" opacity="0.8" r="2" stroke="green" stroke-width="1" /><circle cx="102" cy="150" fill="white" opacity="0.8" r="2" stroke="green" stroke-width="1" /><circle cx="92" cy="162" fill="white" opacity="0.8" r="2" stroke="green" stroke-width="1" /><circle cx="104" cy="163" fill="white" opacity="0.8" r="2" stroke="green" stroke-width="1" /><circle cx="178" cy="232" fill="white" opacity="0.8" r="2" stroke="green" stroke-width="1" /><circle cx="93" cy="234" fill="white" opacity="0.8" r="2" stroke="green" stroke-width="1" /></g></svg>