<?xml version="1.0" encoding="utf-8" ?>
<svg baseProfile="full" height="256" version="1.1" width="256" xmlns="http://www.w3.org/2000/svg" xmlns:ev="http://www.w3.org/2001/xml-events" xmlns:xlink="http://www.w3.org/1999/xlink"><defs /><g fill="black" id="shape"><line opacity="0.8" stroke="red" stroke-width="1" x1="86" x2="121" y1="15" y2="21" /><line opacity="0.8" stroke="red" stroke-width="1" x1="86" x2="78" y1="15" y2="44" /><line opacity="0.8" stroke="red" stroke-width="1" x1="121" x2="139" y1="21" y2="25" /><line opacity="0.8" stroke="red" stroke-width="1" x1="121" x2="110" y1="21" y2="49" /><line opacity="0.8" stroke="red" stroke-width="1" x1="139" x2="133" y1="25" y2="37" /><line opacity="0.8" stroke="red" stroke-width="1" x1="133" x2="128" y1="37" y2="47" /><line opacity="0.8" stroke="red" stroke-width="1" x1="78" x2="110" y1="44" y2="49" /><line opacity="0.8" stroke="red" stroke-width="1" x1="128" x2="110" y1="47" y2="49" /><line opacity="0.8" stroke="red" stroke-width="1" x1="69" x2="130" y1="166" y2="176" /><line opacity="0.8" stroke="red" stroke-width="1" x1="69" x2="45" y1="166" y2="230" /><line opacity="0.8" stroke="red" stroke-width="1" x1="130" x2="165" y1="176" y2="181" /><line opacity="0.8" stroke="red" stroke-width="1" x1="130" x2="127" y1="176" y2="187" /><line opacity="0.8" stroke="red" stroke-width="1" x1="165" x2="156" y1="181" y2="192" /><line opacity="0.8" stroke="red" stroke-width="1" x1="127" x2="156" y1="187" y2="192" /><line opacity="0.8" stroke="red" stroke-width="1" x1="127" x2="108" y1="187" y2="241" /><line opacity="0.8" stroke="red" stroke-width="1" x1="45" x2="108" y1="230" y2="241" /><circle cx="86" cy="15" fill="white" opacity="0.8" r="2" stroke="green" stroke-width="1" /><circle cx="121" cy="21" fill="white" opacity="0.8" r="2" stroke="green" stroke-width="1" /><circle cx="139" cy="25" fill="white" opacity="0.8" r="2" stroke="green" stroke-width="1" /><circle cx="133" cy="37" fill="white" opacity="0.8" r="2" stroke="green" stroke-width="1" /><circle cx="78" cy="44" fill="white" opacity="0.8" r="2" stroke="green" stroke-width="1" /><circle cx="128" cy="47" fill="white" opacity="0.8" r="2" stroke="green" stroke-width="1" /><circle cx="110" cy="49" fill="white" opacity="0.8" r="2" stroke="green" stroke-width="1" /><circle cx="69" cy="166" fill="white" opacity="0.8" r="2" stroke="green" stroke-width="1" /><circle cx="130" cy="176" fill="white" opacity="0.8" r="2" stroke="green" stroke-width="1" /><circle cx="165" cy="181" fill="white" opacity="0.8" r="2" stroke="green" stroke-width="1" /><circle cx="127" cy="187" fill="white" opacity="0.8" r="2" stroke="green" stroke-width="1" /><circle cx="156" cy="192" fill="white" opacity="0.8" r="2" stroke="green" stroke-width="1" /><circle cx="45" cy="230" fill="white" opacity="0.8" r="2" stroke="green" stroke-width="1" /><circle cx="108" cy="241" fill="white" opacity="0.8" r="2" stroke="green" stroke-width="1" /></g></svg>