<?xml version="1.0" encoding="utf-8" ?>
<svg baseProfile="full" height="256" version="1.1" width="256" xmlns="http://www.w3.org/2000/svg" xmlns:ev="http://www.w3.org/2001/xml-events" xmlns:xlink="http://www.w3.org/1999/xlink"><defs /><g fill="black" id="shape"><line opacity="0.8" stroke="red" stroke-width="1" x1="195" x2="180" y1="15" y2="16" /><line opacity="0.8" stroke="red" stroke-width="1" x1="195" x2="196" y1="15" y2="51" /><line opacity="0.8" stroke="red" stroke-width="1" x1="180" x2="179" y1="16" y2="32" /><line opacity="0.8" stroke="red" stroke-width="1" x1="179" x2="60" y1="32" y2="34" /><line opacity="0.8" stroke="red" stroke-width="1" x1="179" x2="181" y1="32" y2="53" /><line opacity="0.8" stroke="red" stroke-width="1" x1="60" x2="58" y1="34" y2="51" /><line opacity="0.8" stroke="red" stroke-width="1" x1="58" x2="70" y1="51" y2="51" /><line opacity="0.8" stroke="red" stroke-width="1" x1="70" x2="73" y1="51" y2="137" /><line opacity="0.8" stroke="red" stroke-width="1" x1="196" x2="181" y1="51" y2="53" /><line opacity="0.8" stroke="red" stroke-width="1" x1="181" x2="184" y1="53" y2="79" /><line opacity="0.8" stroke="red" stroke-width="1" x1="184" x2="179" y1="79" y2="93" /><line opacity="0.8" stroke="red" stroke-width="1" x1="193" x2="179" y1="92" y2="93" /><line opacity="0.8" stroke="red" stroke-width="1" x1="193" x2="198" y1="92" y2="98" /><line opacity="0.8" stroke="red" stroke-width="1" x1="198" x2="199" y1="98" y2="125" /><line opacity="0.8" stroke="red" stroke-width="1" x1="189" x2="199" y1="124" y2="125" /><line opacity="0.8" stroke="red" stroke-width="1" x1="189" x2="190" y1="124" y2="171" /><line opacity="0.8" stroke="red" stroke-width="1" x1="199" x2="190" y1="125" y2="171" /><line opacity="0.8" stroke="red" stroke-width="1" x1="54" x2="73" y1="137" y2="137" /><line opacity="0.8" stroke="red" stroke-width="1" x1="54" x2="55" y1="137" y2="184" /><line opacity="0.8" stroke="red" stroke-width="1" x1="190" x2="200" y1="171" y2="173" /><line opacity="0.8" stroke="red" stroke-width="1" x1="200" x2="200" y1="173" y2="199" /><line opacity="0.8" stroke="red" stroke-width="1" x1="75" x2="55" y1="183" y2="184" /><line opacity="0.8" stroke="red" stroke-width="1" x1="75" x2="74" y1="183" y2="236" /><line opacity="0.8" stroke="red" stroke-width="1" x1="200" x2="190" y1="199" y2="199" /><line opacity="0.8" stroke="red" stroke-width="1" x1="190" x2="193" y1="199" y2="235" /><line opacity="0.8" stroke="red" stroke-width="1" x1="193" x2="74" y1="235" y2="236" /><circle cx="195" cy="15" fill="white" opacity="0.8" r="2" stroke="green" stroke-width="1" /><circle cx="180" cy="16" fill="white" opacity="0.8" r="2" stroke="green" stroke-width="1" /><circle cx="179" cy="32" fill="white" opacity="0.8" r="2" stroke="green" stroke-width="1" /><circle cx="60" cy="34" fill="white" opacity="0.8" r="2" stroke="green" stroke-width="1" /><circle cx="58" cy="51" fill="white" opacity="0.8" r="2" stroke="green" stroke-width="1" /><circle cx="70" cy="51" fill="white" opacity="0.8" r="2" stroke="green" stroke-width="1" /><circle cx="196" cy="51" fill="white" opacity="0.8" r="2" stroke="green" stroke-width="1" /><circle cx="181" cy="53" fill="white" opacity="0.8" r="2" stroke="green" stroke-width="1" /><circle cx="184" cy="79" fill="white" opacity="0.8" r="2" stroke="green" stroke-width="1" /><circle cx="193" cy="92" fill="white" opacity="0.8" r="2" stroke="green" stroke-width="1" /><circle cx="179" cy="93" fill="white" opacity="0.8" r="2" stroke="green" stroke-width="1" /><circle cx="198" cy="98" fill="white" opacity="0.8" r="2" stroke="green" stroke-width="1" /><circle cx="189" cy="124" fill="white" opacity="0.8" r="2" stroke="green" stroke-width="1" /><circle cx="199" cy="125" fill="white" opacity="0.8" r="2" stroke="green" stroke-width="1" /><circle cx="54" cy="137" fill="white" opacity="0.8" r="2" stroke="green" stroke-width="1" /><circle cx="73" cy="137" fill="white" opacity="0.8" r="2" stroke="green" stroke-width="1" /><circle cx="190" cy="171" fill="white" opacity="0.8" r="2" stroke="green" stroke-width="1" /><circle cx="200" cy="173" fill="white" opacity="0.8" r="2" stroke="green" stroke-width="1" /><circle cx="75" cy="183" fill="white" opacity="0.8" r="2" stroke="green" stroke-width="1" /><circle cx="55" cy="184" fill="white" opacity="0.8" r="2" stroke="green" stroke-width="1" /><circle cx="200" cy="199" fill="white" opacity="0.8" r="2" stroke="green" stroke-width="1" /><circle cx="190" cy="199" fill="white" opacity="0.8" r="2" stroke="green" stroke-width="1" /><circle cx="193" cy="235" fill="white" opacity="0.8" r="2" stroke="green" stroke-width="1" /><circle cx="74" cy="236" fill="white" opacity="0.8" r="2" stroke="green" stroke-width="1" /></g></svg>