<?xml version="1.0" encoding="utf-8" ?>
<svg baseProfile="full" height="256" version="1.1" width="256" xmlns="http://www.w3.org/2000/svg" xmlns:ev="http://www.w3.org/2001/xml-events" xmlns:xlink="http://www.w3.org/1999/xlink"><defs /><g fill="black" id="shape"><line opacity="0.8" stroke="red" stroke-width="1" x1="111" x2="215" y1="39" y2="69" /><line opacity="0.8" stroke="red" stroke-width="1" x1="111" x2="61" y1="39" y2="114" /><line opacity="0.8" stroke="red" stroke-width="1" x1="215" x2="197" y1="69" y2="99" /><line opacity="0.8" stroke="red" stroke-width="1" x1="222" x2="243" y1="93" y2="100" /><line opacity="0.8" stroke="red" stroke-width="1" x1="222" x2="214" y1="93" y2="104" /><line opacity="0.8" stroke="red" stroke-width="1" x1="197" x2="214" y1="99" y2="104" /><line opacity="0.8" stroke="red" stroke-width="1" x1="243" x2="210" y1="100" y2="150" /><line opacity="0.8" stroke="red" stroke-width="1" x1="214" x2="195" y1="104" y2="117" /><line opacity="0.8" stroke="red" stroke-width="1" x1="61" x2="168" y1="114" y2="144" /><line opacity="0.8" stroke="red" stroke-width="1" x1="61" x2="13" y1="114" y2="188" /><line opacity="0.8" stroke="red" stroke-width="1" x1="188" x2="195" y1="114" y2="117" /><line opacity="0.8" stroke="red" stroke-width="1" x1="188" x2="176" y1="114" y2="133" /><line opacity="0.8" stroke="red" stroke-width="1" x1="176" x2="188" y1="133" y2="144" /><line opacity="0.8" stroke="red" stroke-width="1" x1="168" x2="147" y1="144" y2="174" /><line opacity="0.8" stroke="red" stroke-width="1" x1="188" x2="210" y1="144" y2="150" /><line opacity="0.8" stroke="red" stroke-width="1" x1="210" x2="192" y1="150" y2="161" /><line opacity="0.8" stroke="red" stroke-width="1" x1="179" x2="192" y1="157" y2="161" /><line opacity="0.8" stroke="red" stroke-width="1" x1="179" x2="164" y1="157" y2="180" /><line opacity="0.8" stroke="red" stroke-width="1" x1="192" x2="201" y1="161" y2="164" /><line opacity="0.8" stroke="red" stroke-width="1" x1="201" x2="175" y1="164" y2="200" /><line opacity="0.8" stroke="red" stroke-width="1" x1="147" x2="155" y1="174" y2="176" /><line opacity="0.8" stroke="red" stroke-width="1" x1="155" x2="164" y1="176" y2="180" /><line opacity="0.8" stroke="red" stroke-width="1" x1="155" x2="145" y1="176" y2="189" /><line opacity="0.8" stroke="red" stroke-width="1" x1="13" x2="117" y1="188" y2="219" /><line opacity="0.8" stroke="red" stroke-width="1" x1="145" x2="175" y1="189" y2="200" /><line opacity="0.8" stroke="red" stroke-width="1" x1="145" x2="117" y1="189" y2="219" /><circle cx="111" cy="39" fill="white" opacity="0.8" r="2" stroke="green" stroke-width="1" /><circle cx="215" cy="69" fill="white" opacity="0.8" r="2" stroke="green" stroke-width="1" /><circle cx="222" cy="93" fill="white" opacity="0.8" r="2" stroke="green" stroke-width="1" /><circle cx="197" cy="99" fill="white" opacity="0.8" r="2" stroke="green" stroke-width="1" /><circle cx="243" cy="100" fill="white" opacity="0.8" r="2" stroke="green" stroke-width="1" /><circle cx="214" cy="104" fill="white" opacity="0.8" r="2" stroke="green" stroke-width="1" /><circle cx="61" cy="114" fill="white" opacity="0.8" r="2" stroke="green" stroke-width="1" /><circle cx="188" cy="114" fill="white" opacity="0.8" r="2" stroke="green" stroke-width="1" /><circle cx="195" cy="117" fill="white" opacity="0.8" r="2" stroke="green" stroke-width="1" /><circle cx="176" cy="133" fill="white" opacity="0.8" r="2" stroke="green" stroke-width="1" /><circle cx="168" cy="144" fill="white" opacity="0.8" r="2" stroke="green" stroke-width="1" /><circle cx="188" cy="144" fill="white" opacity="0.8" r="2" stroke="green" stroke-width="1" /><circle cx="210" cy="150" fill="white" opacity="0.8" r="2" stroke="green" stroke-width="1" /><circle cx="179" cy="157" fill="white" opacity="0.8" r="2" stroke="green" stroke-width="1" /><circle cx="192" cy="161" fill="white" opacity="0.8" r="2" stroke="green" stroke-width="1" /><circle cx="201" cy="164" fill="white" opacity="0.8" r="2" stroke="green" stroke-width="1" /><circle cx="147" cy="174" fill="white" opacity="0.8" r="2" stroke="green" stroke-width="1" /><circle cx="155" cy="176" fill="white" opacity="0.8" r="2" stroke="green" stroke-width="1" /><circle cx="164" cy="180" fill="white" opacity="0.8" r="2" stroke="green" stroke-width="1" /><circle cx="13" cy="188" fill="white" opacity="0.8" r="2" stroke="green" stroke-width="1" /><circle cx="145" cy="189" fill="white" opacity="0.8" r="2" stroke="green" stroke-width="1" /><circle cx="175" cy="200" fill="white" opacity="0.8" r="2" stroke="green" stroke-width="1" /><circle cx="117" cy="219" fill="white" opacity="0.8" r="2" stroke="green" stroke-width="1" /></g></svg>