<?xml version="1.0" encoding="utf-8" ?>
<svg baseProfile="full" height="256" version="1.1" width="256" xmlns="http://www.w3.org/2000/svg" xmlns:ev="http://www.w3.org/2001/xml-events" xmlns:xlink="http://www.w3.org/1999/xlink"><defs /><g fill="black" id="shape"><line opacity="0.8" stroke="red" stroke-width="1" x1="100" x2="40" y1="23" y2="25" /><line opacity="0.8" stroke="red" stroke-width="1" x1="100" x2="108" y1="23" y2="150" /><line opacity="0.8" stroke="red" stroke-width="1" x1="26" x2="40" y1="25" y2="25" /><line opacity="0.8" stroke="red" stroke-width="1" x1="26" x2="26" y1="25" y2="36" /><line opacity="0.8" stroke="red" stroke-width="1" x1="40" x2="45" y1="25" y2="198" /><line opacity="0.8" stroke="red" stroke-width="1" x1="26" x2="26" y1="36" y2="219" /><line opacity="0.8" stroke="red" stroke-width="1" x1="219" x2="221" y1="122" y2="132" /><line opacity="0.8" stroke="red" stroke-width="1" x1="219" x2="230" y1="122" y2="135" /><line opacity="0.8" stroke="red" stroke-width="1" x1="219" x2="237" y1="122" y2="136" /><line opacity="0.8" stroke="red" stroke-width="1" x1="146" x2="221" y1="131" y2="132" /><line opacity="0.8" stroke="red" stroke-width="1" x1="221" x2="230" y1="132" y2="135" /><line opacity="0.8" stroke="red" stroke-width="1" x1="230" x2="237" y1="135" y2="136" /><line opacity="0.8" stroke="red" stroke-width="1" x1="108" x2="104" y1="150" y2="168" /><line opacity="0.8" stroke="red" stroke-width="1" x1="232" x2="104" y1="165" y2="168" /><line opacity="0.8" stroke="red" stroke-width="1" x1="232" x2="233" y1="165" y2="224" /><line opacity="0.8" stroke="red" stroke-width="1" x1="26" x2="43" y1="219" y2="220" /><line opacity="0.8" stroke="red" stroke-width="1" x1="43" x2="42" y1="220" y2="230" /><line opacity="0.8" stroke="red" stroke-width="1" x1="233" x2="220" y1="224" y2="224" /><line opacity="0.8" stroke="red" stroke-width="1" x1="220" x2="42" y1="224" y2="230" /><circle cx="100" cy="23" fill="white" opacity="0.8" r="2" stroke="green" stroke-width="1" /><circle cx="26" cy="25" fill="white" opacity="0.8" r="2" stroke="green" stroke-width="1" /><circle cx="40" cy="25" fill="white" opacity="0.8" r="2" stroke="green" stroke-width="1" /><circle cx="26" cy="36" fill="white" opacity="0.8" r="2" stroke="green" stroke-width="1" /><circle cx="219" cy="122" fill="white" opacity="0.8" r="2" stroke="green" stroke-width="1" /><circle cx="146" cy="131" fill="white" opacity="0.8" r="2" stroke="green" stroke-width="1" /><circle cx="221" cy="132" fill="white" opacity="0.8" r="2" stroke="green" stroke-width="1" /><circle cx="230" cy="135" fill="white" opacity="0.8" r="2" stroke="green" stroke-width="1" /><circle cx="237" cy="136" fill="white" opacity="0.8" r="2" stroke="green" stroke-width="1" /><circle cx="108" cy="150" fill="white" opacity="0.8" r="2" stroke="green" stroke-width="1" /><circle cx="232" cy="165" fill="white" opacity="0.8" r="2" stroke="green" stroke-width="1" /><circle cx="104" cy="168" fill="white" opacity="0.8" r="2" stroke="green" stroke-width="1" /><circle cx="45" cy="198" fill="white" opacity="0.8" r="2" stroke="green" stroke-width="1" /><circle cx="26" cy="219" fill="white" opacity="0.8" r="2" stroke="green" stroke-width="1" /><circle cx="43" cy="220" fill="white" opacity="0.8" r="2" stroke="green" stroke-width="1" /><circle cx="233" cy="224" fill="white" opacity="0.8" r="2" stroke="green" stroke-width="1" /><circle cx="220" cy="224" fill="white" opacity="0.8" r="2" stroke="green" stroke-width="1" /><circle cx="42" cy="230" fill="white" opacity="0.8" r="2" stroke="green" stroke-width="1" /></g></svg>