<?xml version="1.0" encoding="utf-8" ?>
<svg baseProfile="full" height="256" version="1.1" width="256" xmlns="http://www.w3.org/2000/svg" xmlns:ev="http://www.w3.org/2001/xml-events" xmlns:xlink="http://www.w3.org/1999/xlink"><defs /><g fill="black" id="shape"><line opacity="0.8" stroke="red" stroke-width="1" x1="162" x2="75" y1="107" y2="108" /><line opacity="0.8" stroke="red" stroke-width="1" x1="75" x2="77" y1="108" y2="146" /><line opacity="0.8" stroke="red" stroke-width="1" x1="135" x2="102" y1="133" y2="134" /><line opacity="0.8" stroke="red" stroke-width="1" x1="135" x2="136" y1="133" y2="146" /><line opacity="0.8" stroke="red" stroke-width="1" x1="102" x2="103" y1="134" y2="147" /><line opacity="0.8" stroke="red" stroke-width="1" x1="167" x2="181" y1="136" y2="137" /><line opacity="0.8" stroke="red" stroke-width="1" x1="167" x2="164" y1="136" y2="146" /><line opacity="0.8" stroke="red" stroke-width="1" x1="77" x2="103" y1="146" y2="147" /><line opacity="0.8" stroke="red" stroke-width="1" x1="136" x2="164" y1="146" y2="146" /><line opacity="0.8" stroke="red" stroke-width="1" x1="136" x2="103" y1="146" y2="147" /><circle cx="162" cy="107" fill="white" opacity="0.8" r="2" stroke="green" stroke-width="1" /><circle cx="75" cy="108" fill="white" opacity="0.8" r="2" stroke="green" stroke-width="1" /><circle cx="135" cy="133" fill="white" opacity="0.8" r="2" stroke="green" stroke-width="1" /><circle cx="102" cy="134" fill="white" opacity="0.8" r="2" stroke="green" stroke-width="1" /><circle cx="167" cy="136" fill="white" opacity="0.8" r="2" stroke="green" stroke-width="1" /><circle cx="181" cy="137" fill="white" opacity="0.8" r="2" stroke="green" stroke-width="1" /><circle cx="77" cy="146" fill="white" opacity="0.8" r="2" stroke="green" stroke-width="1" /><circle cx="136" cy="146" fill="white" opacity="0.8" r="2" stroke="green" stroke-width="1" /><circle cx="164" cy="146" fill="white" opacity="0.8" r="2" stroke="green" stroke-width="1" /><circle cx="103" cy="147" fill="white" opacity="0.8" r="2" stroke="green" stroke-width="1" /></g></svg>