<?xml version="1.0" encoding="utf-8" ?>
<svg baseProfile="full" height="256" version="1.1" width="256" xmlns="http://www.w3.org/2000/svg" xmlns:ev="http://www.w3.org/2001/xml-events" xmlns:xlink="http://www.w3.org/1999/xlink"><defs /><g fill="black" id="shape"><line opacity="0.8" stroke="red" stroke-width="1" x1="115" x2="87" y1="92" y2="92" /><line opacity="0.8" stroke="red" stroke-width="1" x1="115" x2="141" y1="92" y2="92" /><line opacity="0.8" stroke="red" stroke-width="1" x1="87" x2="101" y1="92" y2="127" /><line opacity="0.8" stroke="red" stroke-width="1" x1="141" x2="161" y1="92" y2="93" /><line opacity="0.8" stroke="red" stroke-width="1" x1="170" x2="161" y1="92" y2="93" /><line opacity="0.8" stroke="red" stroke-width="1" x1="161" x2="163" y1="93" y2="113" /><line opacity="0.8" stroke="red" stroke-width="1" x1="163" x2="152" y1="113" y2="113" /><line opacity="0.8" stroke="red" stroke-width="1" x1="163" x2="165" y1="113" y2="140" /><line opacity="0.8" stroke="red" stroke-width="1" x1="152" x2="152" y1="113" y2="128" /><line opacity="0.8" stroke="red" stroke-width="1" x1="101" x2="152" y1="127" y2="128" /><line opacity="0.8" stroke="red" stroke-width="1" x1="101" x2="102" y1="127" y2="140" /><line opacity="0.8" stroke="red" stroke-width="1" x1="152" x2="152" y1="128" y2="141" /><line opacity="0.8" stroke="red" stroke-width="1" x1="93" x2="102" y1="139" y2="140" /><line opacity="0.8" stroke="red" stroke-width="1" x1="93" x2="94" y1="139" y2="154" /><line opacity="0.8" stroke="red" stroke-width="1" x1="165" x2="152" y1="140" y2="141" /><line opacity="0.8" stroke="red" stroke-width="1" x1="152" x2="137" y1="141" y2="158" /><line opacity="0.8" stroke="red" stroke-width="1" x1="85" x2="94" y1="154" y2="154" /><line opacity="0.8" stroke="red" stroke-width="1" x1="85" x2="86" y1="154" y2="163" /><line opacity="0.8" stroke="red" stroke-width="1" x1="137" x2="138" y1="158" y2="166" /><line opacity="0.8" stroke="red" stroke-width="1" x1="113" x2="86" y1="158" y2="163" /><line opacity="0.8" stroke="red" stroke-width="1" x1="113" x2="114" y1="158" y2="166" /><line opacity="0.8" stroke="red" stroke-width="1" x1="114" x2="138" y1="166" y2="166" /><circle cx="115" cy="92" fill="white" opacity="0.8" r="2" stroke="green" stroke-width="1" /><circle cx="87" cy="92" fill="white" opacity="0.8" r="2" stroke="green" stroke-width="1" /><circle cx="141" cy="92" fill="white" opacity="0.8" r="2" stroke="green" stroke-width="1" /><circle cx="170" cy="92" fill="white" opacity="0.8" r="2" stroke="green" stroke-width="1" /><circle cx="161" cy="93" fill="white" opacity="0.8" r="2" stroke="green" stroke-width="1" /><circle cx="163" cy="113" fill="white" opacity="0.8" r="2" stroke="green" stroke-width="1" /><circle cx="152" cy="113" fill="white" opacity="0.8" r="2" stroke="green" stroke-width="1" /><circle cx="101" cy="127" fill="white" opacity="0.8" r="2" stroke="green" stroke-width="1" /><circle cx="152" cy="128" fill="white" opacity="0.8" r="2" stroke="green" stroke-width="1" /><circle cx="93" cy="139" fill="white" opacity="0.8" r="2" stroke="green" stroke-width="1" /><circle cx="102" cy="140" fill="white" opacity="0.8" r="2" stroke="green" stroke-width="1" /><circle cx="165" cy="140" fill="white" opacity="0.8" r="2" stroke="green" stroke-width="1" /><circle cx="152" cy="141" fill="white" opacity="0.8" r="2" stroke="green" stroke-width="1" /><circle cx="85" cy="154" fill="white" opacity="0.8" r="2" stroke="green" stroke-width="1" /><circle cx="94" cy="154" fill="white" opacity="0.8" r="2" stroke="green" stroke-width="1" /><circle cx="137" cy="158" fill="white" opacity="0.8" r="2" stroke="green" stroke-width="1" /><circle cx="113" cy="158" fill="white" opacity="0.8" r="2" stroke="green" stroke-width="1" /><circle cx="86" cy="163" fill="white" opacity="0.8" r="2" stroke="green" stroke-width="1" /><circle cx="114" cy="166" fill="white" opacity="0.8" r="2" stroke="green" stroke-width="1" /><circle cx="138" cy="166" fill="white" opacity="0.8" r="2" stroke="green" stroke-width="1" /></g></svg>