<?xml version="1.0" encoding="utf-8" ?>
<svg baseProfile="full" height="256" version="1.1" width="256" xmlns="http://www.w3.org/2000/svg" xmlns:ev="http://www.w3.org/2001/xml-events" xmlns:xlink="http://www.w3.org/1999/xlink"><defs /><g fill="black" id="shape"><line opacity="0.8" stroke="red" stroke-width="1" x1="208" x2="121" y1="68" y2="88" /><line opacity="0.8" stroke="red" stroke-width="1" x1="208" x2="225" y1="68" y2="106" /><line opacity="0.8" stroke="red" stroke-width="1" x1="121" x2="139" y1="88" y2="106" /><line opacity="0.8" stroke="red" stroke-width="1" x1="121" x2="133" y1="88" y2="110" /><line opacity="0.8" stroke="red" stroke-width="1" x1="97" x2="72" y1="92" y2="100" /><line opacity="0.8" stroke="red" stroke-width="1" x1="97" x2="97" y1="92" y2="115" /><line opacity="0.8" stroke="red" stroke-width="1" x1="97" x2="136" y1="92" y2="168" /><line opacity="0.8" stroke="red" stroke-width="1" x1="191" x2="195" y1="94" y2="102" /><line opacity="0.8" stroke="red" stroke-width="1" x1="191" x2="155" y1="94" y2="103" /><line opacity="0.8" stroke="red" stroke-width="1" x1="191" x2="172" y1="94" y2="109" /><line opacity="0.8" stroke="red" stroke-width="1" x1="72" x2="10" y1="100" y2="113" /><line opacity="0.8" stroke="red" stroke-width="1" x1="72" x2="82" y1="100" y2="119" /><line opacity="0.8" stroke="red" stroke-width="1" x1="195" x2="172" y1="102" y2="109" /><line opacity="0.8" stroke="red" stroke-width="1" x1="195" x2="201" y1="102" y2="112" /><line opacity="0.8" stroke="red" stroke-width="1" x1="155" x2="139" y1="103" y2="106" /><line opacity="0.8" stroke="red" stroke-width="1" x1="155" x2="160" y1="103" y2="111" /><line opacity="0.8" stroke="red" stroke-width="1" x1="139" x2="133" y1="106" y2="110" /><line opacity="0.8" stroke="red" stroke-width="1" x1="225" x2="201" y1="106" y2="112" /><line opacity="0.8" stroke="red" stroke-width="1" x1="225" x2="246" y1="106" y2="144" /><line opacity="0.8" stroke="red" stroke-width="1" x1="172" x2="160" y1="109" y2="111" /><line opacity="0.8" stroke="red" stroke-width="1" x1="133" x2="140" y1="110" y2="127" /><line opacity="0.8" stroke="red" stroke-width="1" x1="160" x2="164" y1="111" y2="120" /><line opacity="0.8" stroke="red" stroke-width="1" x1="201" x2="205" y1="112" y2="121" /><line opacity="0.8" stroke="red" stroke-width="1" x1="10" x2="22" y1="113" y2="120" /><line opacity="0.8" stroke="red" stroke-width="1" x1="10" x2="29" y1="113" y2="151" /><line opacity="0.8" stroke="red" stroke-width="1" x1="97" x2="82" y1="115" y2="119" /><line opacity="0.8" stroke="red" stroke-width="1" x1="22" x2="27" y1="120" y2="131" /><line opacity="0.8" stroke="red" stroke-width="1" x1="164" x2="140" y1="120" y2="127" /><line opacity="0.8" stroke="red" stroke-width="1" x1="164" x2="169" y1="120" y2="133" /><line opacity="0.8" stroke="red" stroke-width="1" x1="205" x2="169" y1="121" y2="133" /><line opacity="0.8" stroke="red" stroke-width="1" x1="140" x2="159" y1="127" y2="163" /><line opacity="0.8" stroke="red" stroke-width="1" x1="47" x2="27" y1="127" y2="131" /><line opacity="0.8" stroke="red" stroke-width="1" x1="47" x2="48" y1="127" y2="135" /><line opacity="0.8" stroke="red" stroke-width="1" x1="71" x2="48" y1="133" y2="135" /><line opacity="0.8" stroke="red" stroke-width="1" x1="169" x2="158" y1="133" y2="143" /><line opacity="0.8" stroke="red" stroke-width="1" x1="169" x2="178" y1="133" y2="147" /><line opacity="0.8" stroke="red" stroke-width="1" x1="48" x2="54" y1="135" y2="144" /><line opacity="0.8" stroke="red" stroke-width="1" x1="226" x2="246" y1="138" y2="144" /><line opacity="0.8" stroke="red" stroke-width="1" x1="226" x2="232" y1="138" y2="148" /><line opacity="0.8" stroke="red" stroke-width="1" x1="158" x2="163" y1="143" y2="152" /><line opacity="0.8" stroke="red" stroke-width="1" x1="54" x2="29" y1="144" y2="151" /><line opacity="0.8" stroke="red" stroke-width="1" x1="54" x2="58" y1="144" y2="155" /><line opacity="0.8" stroke="red" stroke-width="1" x1="246" x2="232" y1="144" y2="148" /><line opacity="0.8" stroke="red" stroke-width="1" x1="97" x2="75" y1="146" y2="151" /><line opacity="0.8" stroke="red" stroke-width="1" x1="97" x2="103" y1="146" y2="155" /><line opacity="0.8" stroke="red" stroke-width="1" x1="178" x2="163" y1="147" y2="152" /><line opacity="0.8" stroke="red" stroke-width="1" x1="232" x2="159" y1="148" y2="163" /><line opacity="0.8" stroke="red" stroke-width="1" x1="29" x2="47" y1="151" y2="187" /><line opacity="0.8" stroke="red" stroke-width="1" x1="75" x2="58" y1="151" y2="155" /><line opacity="0.8" stroke="red" stroke-width="1" x1="75" x2="77" y1="151" y2="162" /><line opacity="0.8" stroke="red" stroke-width="1" x1="103" x2="106" y1="155" y2="165" /><line opacity="0.8" stroke="red" stroke-width="1" x1="77" x2="81" y1="162" y2="171" /><line opacity="0.8" stroke="red" stroke-width="1" x1="77" x2="55" y1="162" y2="175" /><line opacity="0.8" stroke="red" stroke-width="1" x1="159" x2="136" y1="163" y2="168" /><line opacity="0.8" stroke="red" stroke-width="1" x1="106" x2="81" y1="165" y2="171" /><line opacity="0.8" stroke="red" stroke-width="1" x1="106" x2="107" y1="165" y2="175" /><line opacity="0.8" stroke="red" stroke-width="1" x1="136" x2="107" y1="168" y2="175" /><line opacity="0.8" stroke="red" stroke-width="1" x1="55" x2="47" y1="175" y2="187" /><line opacity="0.8" stroke="red" stroke-width="1" x1="107" x2="47" y1="175" y2="187" /><circle cx="208" cy="68" fill="white" opacity="0.8" r="2" stroke="green" stroke-width="1" /><circle cx="121" cy="88" fill="white" opacity="0.8" r="2" stroke="green" stroke-width="1" /><circle cx="97" cy="92" fill="white" opacity="0.8" r="2" stroke="green" stroke-width="1" /><circle cx="191" cy="94" fill="white" opacity="0.8" r="2" stroke="green" stroke-width="1" /><circle cx="72" cy="100" fill="white" opacity="0.8" r="2" stroke="green" stroke-width="1" /><circle cx="195" cy="102" fill="white" opacity="0.8" r="2" stroke="green" stroke-width="1" /><circle cx="155" cy="103" fill="white" opacity="0.8" r="2" stroke="green" stroke-width="1" /><circle cx="139" cy="106" fill="white" opacity="0.8" r="2" stroke="green" stroke-width="1" /><circle cx="225" cy="106" fill="white" opacity="0.8" r="2" stroke="green" stroke-width="1" /><circle cx="172" cy="109" fill="white" opacity="0.8" r="2" stroke="green" stroke-width="1" /><circle cx="133" cy="110" fill="white" opacity="0.8" r="2" stroke="green" stroke-width="1" /><circle cx="160" cy="111" fill="white" opacity="0.8" r="2" stroke="green" stroke-width="1" /><circle cx="201" cy="112" fill="white" opacity="0.8" r="2" stroke="green" stroke-width="1" /><circle cx="10" cy="113" fill="white" opacity="0.8" r="2" stroke="green" stroke-width="1" /><circle cx="97" cy="115" fill="white" opacity="0.8" r="2" stroke="green" stroke-width="1" /><circle cx="82" cy="119" fill="white" opacity="0.8" r="2" stroke="green" stroke-width="1" /><circle cx="22" cy="120" fill="white" opacity="0.8" r="2" stroke="green" stroke-width="1" /><circle cx="164" cy="120" fill="white" opacity="0.8" r="2" stroke="green" stroke-width="1" /><circle cx="205" cy="121" fill="white" opacity="0.8" r="2" stroke="green" stroke-width="1" /><circle cx="140" cy="127" fill="white" opacity="0.8" r="2" stroke="green" stroke-width="1" /><circle cx="47" cy="127" fill="white" opacity="0.8" r="2" stroke="green" stroke-width="1" /><circle cx="27" cy="131" fill="white" opacity="0.8" r="2" stroke="green" stroke-width="1" /><circle cx="71" cy="133" fill="white" opacity="0.8" r="2" stroke="green" stroke-width="1" /><circle cx="169" cy="133" fill="white" opacity="0.8" r="2" stroke="green" stroke-width="1" /><circle cx="48" cy="135" fill="white" opacity="0.8" r="2" stroke="green" stroke-width="1" /><circle cx="226" cy="138" fill="white" opacity="0.8" r="2" stroke="green" stroke-width="1" /><circle cx="158" cy="143" fill="white" opacity="0.8" r="2" stroke="green" stroke-width="1" /><circle cx="54" cy="144" fill="white" opacity="0.8" r="2" stroke="green" stroke-width="1" /><circle cx="246" cy="144" fill="white" opacity="0.8" r="2" stroke="green" stroke-width="1" /><circle cx="97" cy="146" fill="white" opacity="0.8" r="2" stroke="green" stroke-width="1" /><circle cx="178" cy="147" fill="white" opacity="0.8" r="2" stroke="green" stroke-width="1" /><circle cx="232" cy="148" fill="white" opacity="0.8" r="2" stroke="green" stroke-width="1" /><circle cx="29" cy="151" fill="white" opacity="0.8" r="2" stroke="green" stroke-width="1" /><circle cx="75" cy="151" fill="white" opacity="0.8" r="2" stroke="green" stroke-width="1" /><circle cx="163" cy="152" fill="white" opacity="0.8" r="2" stroke="green" stroke-width="1" /><circle cx="58" cy="155" fill="white" opacity="0.8" r="2" stroke="green" stroke-width="1" /><circle cx="103" cy="155" fill="white" opacity="0.8" r="2" stroke="green" stroke-width="1" /><circle cx="77" cy="162" fill="white" opacity="0.8" r="2" stroke="green" stroke-width="1" /><circle cx="159" cy="163" fill="white" opacity="0.8" r="2" stroke="green" stroke-width="1" /><circle cx="106" cy="165" fill="white" opacity="0.8" r="2" stroke="green" stroke-width="1" /><circle cx="136" cy="168" fill="white" opacity="0.8" r="2" stroke="green" stroke-width="1" /><circle cx="81" cy="171" fill="white" opacity="0.8" r="2" stroke="green" stroke-width="1" /><circle cx="55" cy="175" fill="white" opacity="0.8" r="2" stroke="green" stroke-width="1" /><circle cx="107" cy="175" fill="white" opacity="0.8" r="2" stroke="green" stroke-width="1" /><circle cx="47" cy="187" fill="white" opacity="0.8" r="2" stroke="green" stroke-width="1" /></g></svg>