<?xml version="1.0" encoding="utf-8" ?>
<svg baseProfile="full" height="256" version="1.1" width="256" xmlns="http://www.w3.org/2000/svg" xmlns:ev="http://www.w3.org/2001/xml-events" xmlns:xlink="http://www.w3.org/1999/xlink"><defs /><g fill="black" id="shape"><line opacity="0.8" stroke="red" stroke-width="1" x1="59" x2="197" y1="11" y2="19" /><line opacity="0.8" stroke="red" stroke-width="1" x1="59" x2="58" y1="11" y2="45" /><line opacity="0.8" stroke="red" stroke-width="1" x1="197" x2="193" y1="19" y2="52" /><line opacity="0.8" stroke="red" stroke-width="1" x1="80" x2="182" y1="30" y2="36" /><line opacity="0.8" stroke="red" stroke-width="1" x1="58" x2="135" y1="45" y2="49" /><line opacity="0.8" stroke="red" stroke-width="1" x1="135" x2="193" y1="49" y2="52" /><line opacity="0.8" stroke="red" stroke-width="1" x1="135" x2="118" y1="49" y2="189" /><line opacity="0.8" stroke="red" stroke-width="1" x1="193" x2="177" y1="52" y2="182" /><line opacity="0.8" stroke="red" stroke-width="1" x1="145" x2="153" y1="180" y2="180" /><line opacity="0.8" stroke="red" stroke-width="1" x1="153" x2="150" y1="180" y2="188" /><line opacity="0.8" stroke="red" stroke-width="1" x1="177" x2="177" y1="182" y2="191" /><line opacity="0.8" stroke="red" stroke-width="1" x1="150" x2="118" y1="188" y2="189" /><line opacity="0.8" stroke="red" stroke-width="1" x1="150" x2="177" y1="188" y2="191" /><line opacity="0.8" stroke="red" stroke-width="1" x1="118" x2="113" y1="189" y2="240" /><line opacity="0.8" stroke="red" stroke-width="1" x1="177" x2="171" y1="191" y2="242" /><line opacity="0.8" stroke="red" stroke-width="1" x1="113" x2="171" y1="240" y2="242" /><circle cx="59" cy="11" fill="white" opacity="0.8" r="2" stroke="green" stroke-width="1" /><circle cx="197" cy="19" fill="white" opacity="0.8" r="2" stroke="green" stroke-width="1" /><circle cx="80" cy="30" fill="white" opacity="0.8" r="2" stroke="green" stroke-width="1" /><circle cx="182" cy="36" fill="white" opacity="0.8" r="2" stroke="green" stroke-width="1" /><circle cx="58" cy="45" fill="white" opacity="0.8" r="2" stroke="green" stroke-width="1" /><circle cx="135" cy="49" fill="white" opacity="0.8" r="2" stroke="green" stroke-width="1" /><circle cx="193" cy="52" fill="white" opacity="0.8" r="2" stroke="green" stroke-width="1" /><circle cx="145" cy="180" fill="white" opacity="0.8" r="2" stroke="green" stroke-width="1" /><circle cx="153" cy="180" fill="white" opacity="0.8" r="2" stroke="green" stroke-width="1" /><circle cx="177" cy="182" fill="white" opacity="0.8" r="2" stroke="green" stroke-width="1" /><circle cx="150" cy="188" fill="white" opacity="0.8" r="2" stroke="green" stroke-width="1" /><circle cx="118" cy="189" fill="white" opacity="0.8" r="2" stroke="green" stroke-width="1" /><circle cx="177" cy="191" fill="white" opacity="0.8" r="2" stroke="green" stroke-width="1" /><circle cx="113" cy="240" fill="white" opacity="0.8" r="2" stroke="green" stroke-width="1" /><circle cx="171" cy="242" fill="white" opacity="0.8" r="2" stroke="green" stroke-width="1" /></g></svg>