<?xml version="1.0" encoding="utf-8" ?>
<svg baseProfile="full" height="256" version="1.1" width="256" xmlns="http://www.w3.org/2000/svg" xmlns:ev="http://www.w3.org/2001/xml-events" xmlns:xlink="http://www.w3.org/1999/xlink"><defs /><g fill="black" id="shape"><line opacity="0.8" stroke="red" stroke-width="1" x1="187" x2="120" y1="29" y2="32" /><line opacity="0.8" stroke="red" stroke-width="1" x1="187" x2="188" y1="29" y2="92" /><line opacity="0.8" stroke="red" stroke-width="1" x1="120" x2="63" y1="32" y2="34" /><line opacity="0.8" stroke="red" stroke-width="1" x1="120" x2="122" y1="32" y2="96" /><line opacity="0.8" stroke="red" stroke-width="1" x1="63" x2="64" y1="34" y2="101" /><line opacity="0.8" stroke="red" stroke-width="1" x1="188" x2="122" y1="92" y2="96" /><line opacity="0.8" stroke="red" stroke-width="1" x1="188" x2="192" y1="92" y2="222" /><line opacity="0.8" stroke="red" stroke-width="1" x1="122" x2="64" y1="96" y2="101" /><line opacity="0.8" stroke="red" stroke-width="1" x1="122" x2="127" y1="96" y2="225" /><line opacity="0.8" stroke="red" stroke-width="1" x1="203" x2="192" y1="117" y2="222" /><line opacity="0.8" stroke="red" stroke-width="1" x1="192" x2="127" y1="222" y2="225" /><line opacity="0.8" stroke="red" stroke-width="1" x1="66" x2="127" y1="223" y2="225" /><circle cx="187" cy="29" fill="white" opacity="0.8" r="2" stroke="green" stroke-width="1" /><circle cx="120" cy="32" fill="white" opacity="0.8" r="2" stroke="green" stroke-width="1" /><circle cx="63" cy="34" fill="white" opacity="0.8" r="2" stroke="green" stroke-width="1" /><circle cx="188" cy="92" fill="white" opacity="0.8" r="2" stroke="green" stroke-width="1" /><circle cx="122" cy="96" fill="white" opacity="0.8" r="2" stroke="green" stroke-width="1" /><circle cx="64" cy="101" fill="white" opacity="0.8" r="2" stroke="green" stroke-width="1" /><circle cx="203" cy="117" fill="white" opacity="0.8" r="2" stroke="green" stroke-width="1" /><circle cx="192" cy="222" fill="white" opacity="0.8" r="2" stroke="green" stroke-width="1" /><circle cx="66" cy="223" fill="white" opacity="0.8" r="2" stroke="green" stroke-width="1" /><circle cx="127" cy="225" fill="white" opacity="0.8" r="2" stroke="green" stroke-width="1" /></g></svg>