<?xml version="1.0" encoding="utf-8" ?>
<svg baseProfile="full" height="256" version="1.1" width="256" xmlns="http://www.w3.org/2000/svg" xmlns:ev="http://www.w3.org/2001/xml-events" xmlns:xlink="http://www.w3.org/1999/xlink"><defs /><g fill="black" id="shape"><line opacity="0.8" stroke="red" stroke-width="1" x1="104" x2="182" y1="21" y2="31" /><line opacity="0.8" stroke="red" stroke-width="1" x1="104" x2="75" y1="21" y2="37" /><line opacity="0.8" stroke="red" stroke-width="1" x1="182" x2="180" y1="31" y2="225" /><line opacity="0.8" stroke="red" stroke-width="1" x1="75" x2="73" y1="37" y2="221" /><line opacity="0.8" stroke="red" stroke-width="1" x1="73" x2="85" y1="221" y2="231" /><line opacity="0.8" stroke="red" stroke-width="1" x1="180" x2="167" y1="225" y2="232" /><line opacity="0.8" stroke="red" stroke-width="1" x1="93" x2="145" y1="228" y2="229" /><line opacity="0.8" stroke="red" stroke-width="1" x1="93" x2="85" y1="228" y2="231" /><line opacity="0.8" stroke="red" stroke-width="1" x1="145" x2="167" y1="229" y2="232" /><circle cx="104" cy="21" fill="white" opacity="0.8" r="2" stroke="green" stroke-width="1" /><circle cx="182" cy="31" fill="white" opacity="0.8" r="2" stroke="green" stroke-width="1" /><circle cx="75" cy="37" fill="white" opacity="0.8" r="2" stroke="green" stroke-width="1" /><circle cx="73" cy="221" fill="white" opacity="0.8" r="2" stroke="green" stroke-width="1" /><circle cx="180" cy="225" fill="white" opacity="0.8" r="2" stroke="green" stroke-width="1" /><circle cx="93" cy="228" fill="white" opacity="0.8" r="2" stroke="green" stroke-width="1" /><circle cx="145" cy="229" fill="white" opacity="0.8" r="2" stroke="green" stroke-width="1" /><circle cx="85" cy="231" fill="white" opacity="0.8" r="2" stroke="green" stroke-width="1" /><circle cx="167" cy="232" fill="white" opacity="0.8" r="2" stroke="green" stroke-width="1" /></g></svg>