<?xml version="1.0" encoding="utf-8" ?>
<svg baseProfile="full" height="256" version="1.1" width="256" xmlns="http://www.w3.org/2000/svg" xmlns:ev="http://www.w3.org/2001/xml-events" xmlns:xlink="http://www.w3.org/1999/xlink"><defs /><g fill="black" id="shape"><line opacity="0.8" stroke="red" stroke-width="1" x1="15" x2="19" y1="39" y2="47" /><line opacity="0.8" stroke="red" stroke-width="1" x1="15" x2="162" y1="39" y2="117" /><line opacity="0.8" stroke="red" stroke-width="1" x1="19" x2="74" y1="47" y2="172" /><line opacity="0.8" stroke="red" stroke-width="1" x1="162" x2="174" y1="117" y2="121" /><line opacity="0.8" stroke="red" stroke-width="1" x1="174" x2="239" y1="121" y2="154" /><line opacity="0.8" stroke="red" stroke-width="1" x1="174" x2="96" y1="121" y2="184" /><line opacity="0.8" stroke="red" stroke-width="1" x1="186" x2="176" y1="146" y2="153" /><line opacity="0.8" stroke="red" stroke-width="1" x1="176" x2="184" y1="153" y2="159" /><line opacity="0.8" stroke="red" stroke-width="1" x1="176" x2="156" y1="153" y2="171" /><line opacity="0.8" stroke="red" stroke-width="1" x1="239" x2="206" y1="154" y2="179" /><line opacity="0.8" stroke="red" stroke-width="1" x1="184" x2="181" y1="159" y2="167" /><line opacity="0.8" stroke="red" stroke-width="1" x1="181" x2="166" y1="167" y2="178" /><line opacity="0.8" stroke="red" stroke-width="1" x1="181" x2="206" y1="167" y2="179" /><line opacity="0.8" stroke="red" stroke-width="1" x1="156" x2="166" y1="171" y2="178" /><line opacity="0.8" stroke="red" stroke-width="1" x1="156" x2="136" y1="171" y2="187" /><line opacity="0.8" stroke="red" stroke-width="1" x1="74" x2="66" y1="172" y2="176" /><line opacity="0.8" stroke="red" stroke-width="1" x1="74" x2="96" y1="172" y2="184" /><line opacity="0.8" stroke="red" stroke-width="1" x1="66" x2="41" y1="176" y2="196" /><line opacity="0.8" stroke="red" stroke-width="1" x1="166" x2="148" y1="178" y2="193" /><line opacity="0.8" stroke="red" stroke-width="1" x1="206" x2="161" y1="179" y2="217" /><line opacity="0.8" stroke="red" stroke-width="1" x1="96" x2="161" y1="184" y2="217" /><line opacity="0.8" stroke="red" stroke-width="1" x1="136" x2="148" y1="187" y2="193" /><line opacity="0.8" stroke="red" stroke-width="1" x1="41" x2="161" y1="196" y2="217" /><circle cx="15" cy="39" fill="white" opacity="0.8" r="2" stroke="green" stroke-width="1" /><circle cx="19" cy="47" fill="white" opacity="0.8" r="2" stroke="green" stroke-width="1" /><circle cx="162" cy="117" fill="white" opacity="0.8" r="2" stroke="green" stroke-width="1" /><circle cx="174" cy="121" fill="white" opacity="0.8" r="2" stroke="green" stroke-width="1" /><circle cx="186" cy="146" fill="white" opacity="0.8" r="2" stroke="green" stroke-width="1" /><circle cx="176" cy="153" fill="white" opacity="0.8" r="2" stroke="green" stroke-width="1" /><circle cx="239" cy="154" fill="white" opacity="0.8" r="2" stroke="green" stroke-width="1" /><circle cx="184" cy="159" fill="white" opacity="0.8" r="2" stroke="green" stroke-width="1" /><circle cx="181" cy="167" fill="white" opacity="0.8" r="2" stroke="green" stroke-width="1" /><circle cx="156" cy="171" fill="white" opacity="0.8" r="2" stroke="green" stroke-width="1" /><circle cx="74" cy="172" fill="white" opacity="0.8" r="2" stroke="green" stroke-width="1" /><circle cx="66" cy="176" fill="white" opacity="0.8" r="2" stroke="green" stroke-width="1" /><circle cx="166" cy="178" fill="white" opacity="0.8" r="2" stroke="green" stroke-width="1" /><circle cx="206" cy="179" fill="white" opacity="0.8" r="2" stroke="green" stroke-width="1" /><circle cx="96" cy="184" fill="white" opacity="0.8" r="2" stroke="green" stroke-width="1" /><circle cx="136" cy="187" fill="white" opacity="0.8" r="2" stroke="green" stroke-width="1" /><circle cx="148" cy="193" fill="white" opacity="0.8" r="2" stroke="green" stroke-width="1" /><circle cx="41" cy="196" fill="white" opacity="0.8" r="2" stroke="green" stroke-width="1" /><circle cx="161" cy="217" fill="white" opacity="0.8" r="2" stroke="green" stroke-width="1" /></g></svg>