<?xml version="1.0" encoding="utf-8" ?>
<svg baseProfile="full" height="256" version="1.1" width="256" xmlns="http://www.w3.org/2000/svg" xmlns:ev="http://www.w3.org/2001/xml-events" xmlns:xlink="http://www.w3.org/1999/xlink"><defs /><g fill="black" id="shape"><line opacity="0.8" stroke="red" stroke-width="1" x1="173" x2="161" y1="88" y2="89" /><line opacity="0.8" stroke="red" stroke-width="1" x1="173" x2="184" y1="88" y2="116" /><line opacity="0.8" stroke="red" stroke-width="1" x1="161" x2="163" y1="89" y2="97" /><line opacity="0.8" stroke="red" stroke-width="1" x1="161" x2="96" y1="89" y2="99" /><line opacity="0.8" stroke="red" stroke-width="1" x1="163" x2="100" y1="97" y2="108" /><line opacity="0.8" stroke="red" stroke-width="1" x1="163" x2="169" y1="97" y2="117" /><line opacity="0.8" stroke="red" stroke-width="1" x1="96" x2="81" y1="99" y2="102" /><line opacity="0.8" stroke="red" stroke-width="1" x1="96" x2="100" y1="99" y2="108" /><line opacity="0.8" stroke="red" stroke-width="1" x1="81" x2="90" y1="102" y2="130" /><line opacity="0.8" stroke="red" stroke-width="1" x1="231" x2="184" y1="107" y2="116" /><line opacity="0.8" stroke="red" stroke-width="1" x1="231" x2="241" y1="107" y2="134" /><line opacity="0.8" stroke="red" stroke-width="1" x1="100" x2="107" y1="108" y2="126" /><line opacity="0.8" stroke="red" stroke-width="1" x1="184" x2="169" y1="116" y2="117" /><line opacity="0.8" stroke="red" stroke-width="1" x1="169" x2="107" y1="117" y2="126" /><line opacity="0.8" stroke="red" stroke-width="1" x1="107" x2="90" y1="126" y2="130" /><line opacity="0.8" stroke="red" stroke-width="1" x1="90" x2="14" y1="130" y2="143" /><line opacity="0.8" stroke="red" stroke-width="1" x1="241" x2="23" y1="134" y2="168" /><line opacity="0.8" stroke="red" stroke-width="1" x1="14" x2="23" y1="143" y2="168" /><circle cx="173" cy="88" fill="white" opacity="0.8" r="2" stroke="green" stroke-width="1" /><circle cx="161" cy="89" fill="white" opacity="0.8" r="2" stroke="green" stroke-width="1" /><circle cx="163" cy="97" fill="white" opacity="0.8" r="2" stroke="green" stroke-width="1" /><circle cx="96" cy="99" fill="white" opacity="0.8" r="2" stroke="green" stroke-width="1" /><circle cx="81" cy="102" fill="white" opacity="0.8" r="2" stroke="green" stroke-width="1" /><circle cx="231" cy="107" fill="white" opacity="0.8" r="2" stroke="green" stroke-width="1" /><circle cx="100" cy="108" fill="white" opacity="0.8" r="2" stroke="green" stroke-width="1" /><circle cx="184" cy="116" fill="white" opacity="0.8" r="2" stroke="green" stroke-width="1" /><circle cx="169" cy="117" fill="white" opacity="0.8" r="2" stroke="green" stroke-width="1" /><circle cx="107" cy="126" fill="white" opacity="0.8" r="2" stroke="green" stroke-width="1" /><circle cx="90" cy="130" fill="white" opacity="0.8" r="2" stroke="green" stroke-width="1" /><circle cx="241" cy="134" fill="white" opacity="0.8" r="2" stroke="green" stroke-width="1" /><circle cx="14" cy="143" fill="white" opacity="0.8" r="2" stroke="green" stroke-width="1" /><circle cx="23" cy="168" fill="white" opacity="0.8" r="2" stroke="green" stroke-width="1" /></g></svg>