<?xml version="1.0" encoding="utf-8" ?>
<svg baseProfile="full" height="256" version="1.1" width="256" xmlns="http://www.w3.org/2000/svg" xmlns:ev="http://www.w3.org/2001/xml-events" xmlns:xlink="http://www.w3.org/1999/xlink"><defs /><g fill="black" id="shape"><line opacity="0.8" stroke="red" stroke-width="1" x1="110" x2="102" y1="55" y2="73" /><line opacity="0.8" stroke="red" stroke-width="1" x1="110" x2="201" y1="55" y2="96" /><line opacity="0.8" stroke="red" stroke-width="1" x1="102" x2="108" y1="73" y2="83" /><line opacity="0.8" stroke="red" stroke-width="1" x1="102" x2="81" y1="73" y2="85" /><line opacity="0.8" stroke="red" stroke-width="1" x1="108" x2="130" y1="83" y2="93" /><line opacity="0.8" stroke="red" stroke-width="1" x1="108" x2="81" y1="83" y2="122" /><line opacity="0.8" stroke="red" stroke-width="1" x1="81" x2="64" y1="85" y2="108" /><line opacity="0.8" stroke="red" stroke-width="1" x1="130" x2="104" y1="93" y2="131" /><line opacity="0.8" stroke="red" stroke-width="1" x1="201" x2="170" y1="96" y2="142" /><line opacity="0.8" stroke="red" stroke-width="1" x1="64" x2="75" y1="108" y2="113" /><line opacity="0.8" stroke="red" stroke-width="1" x1="75" x2="54" y1="113" y2="145" /><line opacity="0.8" stroke="red" stroke-width="1" x1="81" x2="104" y1="122" y2="131" /><line opacity="0.8" stroke="red" stroke-width="1" x1="170" x2="178" y1="142" y2="146" /><line opacity="0.8" stroke="red" stroke-width="1" x1="54" x2="96" y1="145" y2="168" /><line opacity="0.8" stroke="red" stroke-width="1" x1="178" x2="149" y1="146" y2="190" /><line opacity="0.8" stroke="red" stroke-width="1" x1="96" x2="122" y1="168" y2="179" /><line opacity="0.8" stroke="red" stroke-width="1" x1="96" x2="81" y1="168" y2="189" /><line opacity="0.8" stroke="red" stroke-width="1" x1="122" x2="149" y1="179" y2="190" /><line opacity="0.8" stroke="red" stroke-width="1" x1="122" x2="107" y1="179" y2="201" /><line opacity="0.8" stroke="red" stroke-width="1" x1="81" x2="107" y1="189" y2="201" /><circle cx="110" cy="55" fill="white" opacity="0.8" r="2" stroke="green" stroke-width="1" /><circle cx="102" cy="73" fill="white" opacity="0.8" r="2" stroke="green" stroke-width="1" /><circle cx="108" cy="83" fill="white" opacity="0.8" r="2" stroke="green" stroke-width="1" /><circle cx="81" cy="85" fill="white" opacity="0.8" r="2" stroke="green" stroke-width="1" /><circle cx="130" cy="93" fill="white" opacity="0.8" r="2" stroke="green" stroke-width="1" /><circle cx="201" cy="96" fill="white" opacity="0.8" r="2" stroke="green" stroke-width="1" /><circle cx="64" cy="108" fill="white" opacity="0.8" r="2" stroke="green" stroke-width="1" /><circle cx="75" cy="113" fill="white" opacity="0.8" r="2" stroke="green" stroke-width="1" /><circle cx="81" cy="122" fill="white" opacity="0.8" r="2" stroke="green" stroke-width="1" /><circle cx="104" cy="131" fill="white" opacity="0.8" r="2" stroke="green" stroke-width="1" /><circle cx="170" cy="142" fill="white" opacity="0.8" r="2" stroke="green" stroke-width="1" /><circle cx="54" cy="145" fill="white" opacity="0.8" r="2" stroke="green" stroke-width="1" /><circle cx="178" cy="146" fill="white" opacity="0.8" r="2" stroke="green" stroke-width="1" /><circle cx="96" cy="168" fill="white" opacity="0.8" r="2" stroke="green" stroke-width="1" /><circle cx="122" cy="179" fill="white" opacity="0.8" r="2" stroke="green" stroke-width="1" /><circle cx="81" cy="189" fill="white" opacity="0.8" r="2" stroke="green" stroke-width="1" /><circle cx="149" cy="190" fill="white" opacity="0.8" r="2" stroke="green" stroke-width="1" /><circle cx="107" cy="201" fill="white" opacity="0.8" r="2" stroke="green" stroke-width="1" /></g></svg>