<?xml version="1.0" encoding="utf-8" ?>
<svg baseProfile="full" height="256" version="1.1" width="256" xmlns="http://www.w3.org/2000/svg" xmlns:ev="http://www.w3.org/2001/xml-events" xmlns:xlink="http://www.w3.org/1999/xlink"><defs /><g fill="black" id="shape"><line opacity="0.8" stroke="red" stroke-width="1" x1="87" x2="142" y1="56" y2="90" /><line opacity="0.8" stroke="red" stroke-width="1" x1="87" x2="43" y1="56" y2="124" /><line opacity="0.8" stroke="red" stroke-width="1" x1="142" x2="234" y1="90" y2="145" /><line opacity="0.8" stroke="red" stroke-width="1" x1="142" x2="99" y1="90" y2="162" /><line opacity="0.8" stroke="red" stroke-width="1" x1="23" x2="17" y1="97" y2="101" /><line opacity="0.8" stroke="red" stroke-width="1" x1="43" x2="99" y1="124" y2="162" /><line opacity="0.8" stroke="red" stroke-width="1" x1="234" x2="206" y1="145" y2="188" /><line opacity="0.8" stroke="red" stroke-width="1" x1="99" x2="189" y1="162" y2="217" /><line opacity="0.8" stroke="red" stroke-width="1" x1="206" x2="189" y1="188" y2="217" /><circle cx="87" cy="56" fill="white" opacity="0.8" r="2" stroke="green" stroke-width="1" /><circle cx="142" cy="90" fill="white" opacity="0.8" r="2" stroke="green" stroke-width="1" /><circle cx="23" cy="97" fill="white" opacity="0.8" r="2" stroke="green" stroke-width="1" /><circle cx="17" cy="101" fill="white" opacity="0.8" r="2" stroke="green" stroke-width="1" /><circle cx="43" cy="124" fill="white" opacity="0.8" r="2" stroke="green" stroke-width="1" /><circle cx="234" cy="145" fill="white" opacity="0.8" r="2" stroke="green" stroke-width="1" /><circle cx="99" cy="162" fill="white" opacity="0.8" r="2" stroke="green" stroke-width="1" /><circle cx="206" cy="188" fill="white" opacity="0.8" r="2" stroke="green" stroke-width="1" /><circle cx="189" cy="217" fill="white" opacity="0.8" r="2" stroke="green" stroke-width="1" /></g></svg>