<?xml version="1.0" encoding="utf-8" ?>
<svg baseProfile="full" height="256" version="1.1" width="256" xmlns="http://www.w3.org/2000/svg" xmlns:ev="http://www.w3.org/2001/xml-events" xmlns:xlink="http://www.w3.org/1999/xlink"><defs /><g fill="black" id="shape"><line opacity="0.8" stroke="red" stroke-width="1" x1="222" x2="78" y1="63" y2="66" /><line opacity="0.8" stroke="red" stroke-width="1" x1="222" x2="223" y1="63" y2="113" /><line opacity="0.8" stroke="red" stroke-width="1" x1="78" x2="79" y1="66" y2="133" /><line opacity="0.8" stroke="red" stroke-width="1" x1="245" x2="223" y1="112" y2="113" /><line opacity="0.8" stroke="red" stroke-width="1" x1="245" x2="245" y1="112" y2="139" /><line opacity="0.8" stroke="red" stroke-width="1" x1="223" x2="223" y1="113" y2="125" /><line opacity="0.8" stroke="red" stroke-width="1" x1="223" x2="223" y1="125" y2="139" /><line opacity="0.8" stroke="red" stroke-width="1" x1="79" x2="9" y1="133" y2="136" /><line opacity="0.8" stroke="red" stroke-width="1" x1="79" x2="80" y1="133" y2="144" /><line opacity="0.8" stroke="red" stroke-width="1" x1="9" x2="28" y1="136" y2="194" /><line opacity="0.8" stroke="red" stroke-width="1" x1="223" x2="245" y1="139" y2="139" /><line opacity="0.8" stroke="red" stroke-width="1" x1="80" x2="90" y1="144" y2="144" /><line opacity="0.8" stroke="red" stroke-width="1" x1="90" x2="83" y1="144" y2="153" /><circle cx="222" cy="63" fill="white" opacity="0.8" r="2" stroke="green" stroke-width="1" /><circle cx="78" cy="66" fill="white" opacity="0.8" r="2" stroke="green" stroke-width="1" /><circle cx="245" cy="112" fill="white" opacity="0.8" r="2" stroke="green" stroke-width="1" /><circle cx="223" cy="113" fill="white" opacity="0.8" r="2" stroke="green" stroke-width="1" /><circle cx="223" cy="125" fill="white" opacity="0.8" r="2" stroke="green" stroke-width="1" /><circle cx="79" cy="133" fill="white" opacity="0.8" r="2" stroke="green" stroke-width="1" /><circle cx="9" cy="136" fill="white" opacity="0.8" r="2" stroke="green" stroke-width="1" /><circle cx="223" cy="139" fill="white" opacity="0.8" r="2" stroke="green" stroke-width="1" /><circle cx="245" cy="139" fill="white" opacity="0.8" r="2" stroke="green" stroke-width="1" /><circle cx="80" cy="144" fill="white" opacity="0.8" r="2" stroke="green" stroke-width="1" /><circle cx="90" cy="144" fill="white" opacity="0.8" r="2" stroke="green" stroke-width="1" /><circle cx="83" cy="153" fill="white" opacity="0.8" r="2" stroke="green" stroke-width="1" /><circle cx="28" cy="194" fill="white" opacity="0.8" r="2" stroke="green" stroke-width="1" /></g></svg>