<?xml version="1.0" encoding="utf-8" ?>
<svg baseProfile="full" height="256" version="1.1" width="256" xmlns="http://www.w3.org/2000/svg" xmlns:ev="http://www.w3.org/2001/xml-events" xmlns:xlink="http://www.w3.org/1999/xlink"><defs /><g fill="black" id="shape"><line opacity="0.8" stroke="red" stroke-width="1" x1="179" x2="234" y1="70" y2="72" /><line opacity="0.8" stroke="red" stroke-width="1" x1="179" x2="180" y1="70" y2="81" /><line opacity="0.8" stroke="red" stroke-width="1" x1="234" x2="234" y1="72" y2="115" /><line opacity="0.8" stroke="red" stroke-width="1" x1="53" x2="180" y1="80" y2="81" /><line opacity="0.8" stroke="red" stroke-width="1" x1="53" x2="52" y1="80" y2="184" /><line opacity="0.8" stroke="red" stroke-width="1" x1="180" x2="206" y1="81" y2="81" /><line opacity="0.8" stroke="red" stroke-width="1" x1="206" x2="220" y1="81" y2="92" /><line opacity="0.8" stroke="red" stroke-width="1" x1="220" x2="220" y1="92" y2="115" /><line opacity="0.8" stroke="red" stroke-width="1" x1="220" x2="234" y1="115" y2="115" /><line opacity="0.8" stroke="red" stroke-width="1" x1="52" x2="219" y1="184" y2="185" /><circle cx="179" cy="70" fill="white" opacity="0.8" r="2" stroke="green" stroke-width="1" /><circle cx="234" cy="72" fill="white" opacity="0.8" r="2" stroke="green" stroke-width="1" /><circle cx="53" cy="80" fill="white" opacity="0.8" r="2" stroke="green" stroke-width="1" /><circle cx="180" cy="81" fill="white" opacity="0.8" r="2" stroke="green" stroke-width="1" /><circle cx="206" cy="81" fill="white" opacity="0.8" r="2" stroke="green" stroke-width="1" /><circle cx="220" cy="92" fill="white" opacity="0.8" r="2" stroke="green" stroke-width="1" /><circle cx="220" cy="115" fill="white" opacity="0.8" r="2" stroke="green" stroke-width="1" /><circle cx="234" cy="115" fill="white" opacity="0.8" r="2" stroke="green" stroke-width="1" /><circle cx="52" cy="184" fill="white" opacity="0.8" r="2" stroke="green" stroke-width="1" /><circle cx="219" cy="185" fill="white" opacity="0.8" r="2" stroke="green" stroke-width="1" /></g></svg>