<?xml version="1.0" encoding="utf-8" ?>
<svg baseProfile="full" height="256" version="1.1" width="256" xmlns="http://www.w3.org/2000/svg" xmlns:ev="http://www.w3.org/2001/xml-events" xmlns:xlink="http://www.w3.org/1999/xlink"><defs /><g fill="black" id="shape"><line opacity="0.8" stroke="red" stroke-width="1" x1="89" x2="64" y1="85" y2="86" /><line opacity="0.8" stroke="red" stroke-width="1" x1="89" x2="92" y1="85" y2="95" /><line opacity="0.8" stroke="red" stroke-width="1" x1="64" x2="65" y1="86" y2="133" /><line opacity="0.8" stroke="red" stroke-width="1" x1="116" x2="92" y1="94" y2="95" /><line opacity="0.8" stroke="red" stroke-width="1" x1="116" x2="116" y1="94" y2="108" /><line opacity="0.8" stroke="red" stroke-width="1" x1="92" x2="91" y1="95" y2="130" /><line opacity="0.8" stroke="red" stroke-width="1" x1="116" x2="116" y1="108" y2="124" /><line opacity="0.8" stroke="red" stroke-width="1" x1="173" x2="191" y1="123" y2="123" /><line opacity="0.8" stroke="red" stroke-width="1" x1="173" x2="116" y1="123" y2="124" /><line opacity="0.8" stroke="red" stroke-width="1" x1="173" x2="157" y1="123" y2="169" /><line opacity="0.8" stroke="red" stroke-width="1" x1="191" x2="186" y1="123" y2="146" /><line opacity="0.8" stroke="red" stroke-width="1" x1="116" x2="116" y1="124" y2="170" /><line opacity="0.8" stroke="red" stroke-width="1" x1="91" x2="65" y1="130" y2="133" /><line opacity="0.8" stroke="red" stroke-width="1" x1="91" x2="91" y1="130" y2="171" /><line opacity="0.8" stroke="red" stroke-width="1" x1="186" x2="191" y1="146" y2="169" /><line opacity="0.8" stroke="red" stroke-width="1" x1="157" x2="180" y1="169" y2="169" /><line opacity="0.8" stroke="red" stroke-width="1" x1="157" x2="116" y1="169" y2="170" /><line opacity="0.8" stroke="red" stroke-width="1" x1="180" x2="191" y1="169" y2="169" /><line opacity="0.8" stroke="red" stroke-width="1" x1="116" x2="91" y1="170" y2="171" /><circle cx="89" cy="85" fill="white" opacity="0.8" r="2" stroke="green" stroke-width="1" /><circle cx="64" cy="86" fill="white" opacity="0.8" r="2" stroke="green" stroke-width="1" /><circle cx="116" cy="94" fill="white" opacity="0.8" r="2" stroke="green" stroke-width="1" /><circle cx="92" cy="95" fill="white" opacity="0.8" r="2" stroke="green" stroke-width="1" /><circle cx="116" cy="108" fill="white" opacity="0.8" r="2" stroke="green" stroke-width="1" /><circle cx="173" cy="123" fill="white" opacity="0.8" r="2" stroke="green" stroke-width="1" /><circle cx="191" cy="123" fill="white" opacity="0.8" r="2" stroke="green" stroke-width="1" /><circle cx="116" cy="124" fill="white" opacity="0.8" r="2" stroke="green" stroke-width="1" /><circle cx="91" cy="130" fill="white" opacity="0.8" r="2" stroke="green" stroke-width="1" /><circle cx="65" cy="133" fill="white" opacity="0.8" r="2" stroke="green" stroke-width="1" /><circle cx="186" cy="146" fill="white" opacity="0.8" r="2" stroke="green" stroke-width="1" /><circle cx="157" cy="169" fill="white" opacity="0.8" r="2" stroke="green" stroke-width="1" /><circle cx="180" cy="169" fill="white" opacity="0.8" r="2" stroke="green" stroke-width="1" /><circle cx="191" cy="169" fill="white" opacity="0.8" r="2" stroke="green" stroke-width="1" /><circle cx="116" cy="170" fill="white" opacity="0.8" r="2" stroke="green" stroke-width="1" /><circle cx="91" cy="171" fill="white" opacity="0.8" r="2" stroke="green" stroke-width="1" /></g></svg>