<?xml version="1.0" encoding="utf-8" ?>
<svg baseProfile="full" height="256" version="1.1" width="256" xmlns="http://www.w3.org/2000/svg" xmlns:ev="http://www.w3.org/2001/xml-events" xmlns:xlink="http://www.w3.org/1999/xlink"><defs /><g fill="black" id="shape"><line opacity="0.8" stroke="red" stroke-width="1" x1="30" x2="96" y1="95" y2="108" /><line opacity="0.8" stroke="red" stroke-width="1" x1="30" x2="9" y1="95" y2="142" /><line opacity="0.8" stroke="red" stroke-width="1" x1="96" x2="75" y1="108" y2="155" /><line opacity="0.8" stroke="red" stroke-width="1" x1="222" x2="246" y1="115" y2="119" /><line opacity="0.8" stroke="red" stroke-width="1" x1="222" x2="217" y1="115" y2="128" /><line opacity="0.8" stroke="red" stroke-width="1" x1="246" x2="219" y1="119" y2="178" /><line opacity="0.8" stroke="red" stroke-width="1" x1="207" x2="217" y1="125" y2="128" /><line opacity="0.8" stroke="red" stroke-width="1" x1="207" x2="194" y1="125" y2="153" /><line opacity="0.8" stroke="red" stroke-width="1" x1="9" x2="75" y1="142" y2="155" /><line opacity="0.8" stroke="red" stroke-width="1" x1="194" x2="203" y1="153" y2="156" /><line opacity="0.8" stroke="red" stroke-width="1" x1="194" x2="183" y1="153" y2="177" /><line opacity="0.8" stroke="red" stroke-width="1" x1="75" x2="183" y1="155" y2="177" /><line opacity="0.8" stroke="red" stroke-width="1" x1="203" x2="195" y1="156" y2="174" /><line opacity="0.8" stroke="red" stroke-width="1" x1="195" x2="183" y1="174" y2="177" /><line opacity="0.8" stroke="red" stroke-width="1" x1="195" x2="219" y1="174" y2="178" /><circle cx="30" cy="95" fill="white" opacity="0.8" r="2" stroke="green" stroke-width="1" /><circle cx="96" cy="108" fill="white" opacity="0.8" r="2" stroke="green" stroke-width="1" /><circle cx="222" cy="115" fill="white" opacity="0.8" r="2" stroke="green" stroke-width="1" /><circle cx="246" cy="119" fill="white" opacity="0.8" r="2" stroke="green" stroke-width="1" /><circle cx="207" cy="125" fill="white" opacity="0.8" r="2" stroke="green" stroke-width="1" /><circle cx="217" cy="128" fill="white" opacity="0.8" r="2" stroke="green" stroke-width="1" /><circle cx="9" cy="142" fill="white" opacity="0.8" r="2" stroke="green" stroke-width="1" /><circle cx="194" cy="153" fill="white" opacity="0.8" r="2" stroke="green" stroke-width="1" /><circle cx="75" cy="155" fill="white" opacity="0.8" r="2" stroke="green" stroke-width="1" /><circle cx="203" cy="156" fill="white" opacity="0.8" r="2" stroke="green" stroke-width="1" /><circle cx="195" cy="174" fill="white" opacity="0.8" r="2" stroke="green" stroke-width="1" /><circle cx="183" cy="177" fill="white" opacity="0.8" r="2" stroke="green" stroke-width="1" /><circle cx="219" cy="178" fill="white" opacity="0.8" r="2" stroke="green" stroke-width="1" /></g></svg>