<?xml version="1.0" encoding="utf-8" ?>
<svg baseProfile="full" height="256" version="1.1" width="256" xmlns="http://www.w3.org/2000/svg" xmlns:ev="http://www.w3.org/2001/xml-events" xmlns:xlink="http://www.w3.org/1999/xlink"><defs /><g fill="black" id="shape"><line opacity="0.8" stroke="red" stroke-width="1" x1="98" x2="110" y1="82" y2="99" /><line opacity="0.8" stroke="red" stroke-width="1" x1="98" x2="72" y1="82" y2="110" /><line opacity="0.8" stroke="red" stroke-width="1" x1="110" x2="141" y1="99" y2="135" /><line opacity="0.8" stroke="red" stroke-width="1" x1="72" x2="86" y1="110" y2="114" /><line opacity="0.8" stroke="red" stroke-width="1" x1="86" x2="113" y1="114" y2="153" /><line opacity="0.8" stroke="red" stroke-width="1" x1="161" x2="141" y1="122" y2="135" /><line opacity="0.8" stroke="red" stroke-width="1" x1="161" x2="183" y1="122" y2="153" /><line opacity="0.8" stroke="red" stroke-width="1" x1="141" x2="154" y1="135" y2="151" /><line opacity="0.8" stroke="red" stroke-width="1" x1="141" x2="113" y1="135" y2="153" /><line opacity="0.8" stroke="red" stroke-width="1" x1="154" x2="167" y1="151" y2="168" /><line opacity="0.8" stroke="red" stroke-width="1" x1="154" x2="126" y1="151" y2="172" /><line opacity="0.8" stroke="red" stroke-width="1" x1="113" x2="126" y1="153" y2="172" /><line opacity="0.8" stroke="red" stroke-width="1" x1="183" x2="167" y1="153" y2="168" /><circle cx="98" cy="82" fill="white" opacity="0.8" r="2" stroke="green" stroke-width="1" /><circle cx="110" cy="99" fill="white" opacity="0.8" r="2" stroke="green" stroke-width="1" /><circle cx="72" cy="110" fill="white" opacity="0.8" r="2" stroke="green" stroke-width="1" /><circle cx="86" cy="114" fill="white" opacity="0.8" r="2" stroke="green" stroke-width="1" /><circle cx="161" cy="122" fill="white" opacity="0.8" r="2" stroke="green" stroke-width="1" /><circle cx="141" cy="135" fill="white" opacity="0.8" r="2" stroke="green" stroke-width="1" /><circle cx="154" cy="151" fill="white" opacity="0.8" r="2" stroke="green" stroke-width="1" /><circle cx="113" cy="153" fill="white" opacity="0.8" r="2" stroke="green" stroke-width="1" /><circle cx="183" cy="153" fill="white" opacity="0.8" r="2" stroke="green" stroke-width="1" /><circle cx="167" cy="168" fill="white" opacity="0.8" r="2" stroke="green" stroke-width="1" /><circle cx="126" cy="172" fill="white" opacity="0.8" r="2" stroke="green" stroke-width="1" /></g></svg>