<?xml version="1.0" encoding="utf-8" ?>
<svg baseProfile="full" height="256" version="1.1" width="256" xmlns="http://www.w3.org/2000/svg" xmlns:ev="http://www.w3.org/2001/xml-events" xmlns:xlink="http://www.w3.org/1999/xlink"><defs /><g fill="black" id="shape"><line opacity="0.8" stroke="red" stroke-width="1" x1="75" x2="230" y1="23" y2="48" /><line opacity="0.8" stroke="red" stroke-width="1" x1="75" x2="28" y1="23" y2="164" /><line opacity="0.8" stroke="red" stroke-width="1" x1="230" x2="190" y1="48" y2="174" /><line opacity="0.8" stroke="red" stroke-width="1" x1="28" x2="115" y1="164" y2="180" /><line opacity="0.8" stroke="red" stroke-width="1" x1="163" x2="190" y1="170" y2="174" /><line opacity="0.8" stroke="red" stroke-width="1" x1="163" x2="158" y1="170" y2="184" /><line opacity="0.8" stroke="red" stroke-width="1" x1="115" x2="158" y1="180" y2="184" /><line opacity="0.8" stroke="red" stroke-width="1" x1="115" x2="104" y1="180" y2="220" /><line opacity="0.8" stroke="red" stroke-width="1" x1="104" x2="188" y1="220" y2="232" /><circle cx="75" cy="23" fill="white" opacity="0.8" r="2" stroke="green" stroke-width="1" /><circle cx="230" cy="48" fill="white" opacity="0.8" r="2" stroke="green" stroke-width="1" /><circle cx="28" cy="164" fill="white" opacity="0.8" r="2" stroke="green" stroke-width="1" /><circle cx="163" cy="170" fill="white" opacity="0.8" r="2" stroke="green" stroke-width="1" /><circle cx="190" cy="174" fill="white" opacity="0.8" r="2" stroke="green" stroke-width="1" /><circle cx="115" cy="180" fill="white" opacity="0.8" r="2" stroke="green" stroke-width="1" /><circle cx="158" cy="184" fill="white" opacity="0.8" r="2" stroke="green" stroke-width="1" /><circle cx="104" cy="220" fill="white" opacity="0.8" r="2" stroke="green" stroke-width="1" /><circle cx="188" cy="232" fill="white" opacity="0.8" r="2" stroke="green" stroke-width="1" /></g></svg>