<?xml version="1.0" encoding="utf-8" ?>
<svg baseProfile="full" height="256" version="1.1" width="256" xmlns="http://www.w3.org/2000/svg" xmlns:ev="http://www.w3.org/2001/xml-events" xmlns:xlink="http://www.w3.org/1999/xlink"><defs /><g fill="black" id="shape"><line opacity="0.8" stroke="red" stroke-width="1" x1="78" x2="114" y1="58" y2="65" /><line opacity="0.8" stroke="red" stroke-width="1" x1="78" x2="46" y1="58" y2="130" /><line opacity="0.8" stroke="red" stroke-width="1" x1="114" x2="242" y1="65" y2="88" /><line opacity="0.8" stroke="red" stroke-width="1" x1="114" x2="105" y1="65" y2="91" /><line opacity="0.8" stroke="red" stroke-width="1" x1="242" x2="221" y1="88" y2="136" /><line opacity="0.8" stroke="red" stroke-width="1" x1="105" x2="195" y1="91" y2="105" /><line opacity="0.8" stroke="red" stroke-width="1" x1="105" x2="85" y1="91" y2="136" /><line opacity="0.8" stroke="red" stroke-width="1" x1="195" x2="185" y1="105" y2="129" /><line opacity="0.8" stroke="red" stroke-width="1" x1="185" x2="221" y1="129" y2="136" /><line opacity="0.8" stroke="red" stroke-width="1" x1="185" x2="157" y1="129" y2="189" /><line opacity="0.8" stroke="red" stroke-width="1" x1="46" x2="75" y1="130" y2="136" /><line opacity="0.8" stroke="red" stroke-width="1" x1="46" x2="43" y1="130" y2="143" /><line opacity="0.8" stroke="red" stroke-width="1" x1="75" x2="85" y1="136" y2="136" /><line opacity="0.8" stroke="red" stroke-width="1" x1="75" x2="71" y1="136" y2="148" /><line opacity="0.8" stroke="red" stroke-width="1" x1="221" x2="195" y1="136" y2="193" /><line opacity="0.8" stroke="red" stroke-width="1" x1="29" x2="43" y1="141" y2="143" /><line opacity="0.8" stroke="red" stroke-width="1" x1="29" x2="22" y1="141" y2="157" /><line opacity="0.8" stroke="red" stroke-width="1" x1="43" x2="32" y1="143" y2="165" /><line opacity="0.8" stroke="red" stroke-width="1" x1="71" x2="110" y1="148" y2="157" /><line opacity="0.8" stroke="red" stroke-width="1" x1="71" x2="61" y1="148" y2="173" /><line opacity="0.8" stroke="red" stroke-width="1" x1="22" x2="32" y1="157" y2="165" /><line opacity="0.8" stroke="red" stroke-width="1" x1="110" x2="159" y1="157" y2="163" /><line opacity="0.8" stroke="red" stroke-width="1" x1="110" x2="100" y1="157" y2="185" /><line opacity="0.8" stroke="red" stroke-width="1" x1="32" x2="61" y1="165" y2="173" /><line opacity="0.8" stroke="red" stroke-width="1" x1="61" x2="100" y1="173" y2="185" /><line opacity="0.8" stroke="red" stroke-width="1" x1="157" x2="195" y1="189" y2="193" /><circle cx="78" cy="58" fill="white" opacity="0.8" r="2" stroke="green" stroke-width="1" /><circle cx="114" cy="65" fill="white" opacity="0.8" r="2" stroke="green" stroke-width="1" /><circle cx="242" cy="88" fill="white" opacity="0.8" r="2" stroke="green" stroke-width="1" /><circle cx="105" cy="91" fill="white" opacity="0.8" r="2" stroke="green" stroke-width="1" /><circle cx="195" cy="105" fill="white" opacity="0.8" r="2" stroke="green" stroke-width="1" /><circle cx="185" cy="129" fill="white" opacity="0.8" r="2" stroke="green" stroke-width="1" /><circle cx="46" cy="130" fill="white" opacity="0.8" r="2" stroke="green" stroke-width="1" /><circle cx="75" cy="136" fill="white" opacity="0.8" r="2" stroke="green" stroke-width="1" /><circle cx="221" cy="136" fill="white" opacity="0.8" r="2" stroke="green" stroke-width="1" /><circle cx="85" cy="136" fill="white" opacity="0.8" r="2" stroke="green" stroke-width="1" /><circle cx="29" cy="141" fill="white" opacity="0.8" r="2" stroke="green" stroke-width="1" /><circle cx="43" cy="143" fill="white" opacity="0.8" r="2" stroke="green" stroke-width="1" /><circle cx="71" cy="148" fill="white" opacity="0.8" r="2" stroke="green" stroke-width="1" /><circle cx="22" cy="157" fill="white" opacity="0.8" r="2" stroke="green" stroke-width="1" /><circle cx="110" cy="157" fill="white" opacity="0.8" r="2" stroke="green" stroke-width="1" /><circle cx="159" cy="163" fill="white" opacity="0.8" r="2" stroke="green" stroke-width="1" /><circle cx="32" cy="165" fill="white" opacity="0.8" r="2" stroke="green" stroke-width="1" /><circle cx="61" cy="173" fill="white" opacity="0.8" r="2" stroke="green" stroke-width="1" /><circle cx="100" cy="185" fill="white" opacity="0.8" r="2" stroke="green" stroke-width="1" /><circle cx="157" cy="189" fill="white" opacity="0.8" r="2" stroke="green" stroke-width="1" /><circle cx="195" cy="193" fill="white" opacity="0.8" r="2" stroke="green" stroke-width="1" /></g></svg>