<?xml version="1.0" encoding="utf-8" ?>
<svg baseProfile="full" height="256" version="1.1" width="256" xmlns="http://www.w3.org/2000/svg" xmlns:ev="http://www.w3.org/2001/xml-events" xmlns:xlink="http://www.w3.org/1999/xlink"><defs /><g fill="black" id="shape"><line opacity="0.8" stroke="red" stroke-width="1" x1="132" x2="68" y1="54" y2="56" /><line opacity="0.8" stroke="red" stroke-width="1" x1="132" x2="131" y1="54" y2="65" /><line opacity="0.8" stroke="red" stroke-width="1" x1="68" x2="68" y1="56" y2="102" /><line opacity="0.8" stroke="red" stroke-width="1" x1="131" x2="189" y1="65" y2="65" /><line opacity="0.8" stroke="red" stroke-width="1" x1="189" x2="187" y1="65" y2="195" /><line opacity="0.8" stroke="red" stroke-width="1" x1="68" x2="77" y1="102" y2="106" /><line opacity="0.8" stroke="red" stroke-width="1" x1="77" x2="75" y1="106" y2="183" /><line opacity="0.8" stroke="red" stroke-width="1" x1="75" x2="75" y1="183" y2="197" /><line opacity="0.8" stroke="red" stroke-width="1" x1="187" x2="190" y1="195" y2="202" /><line opacity="0.8" stroke="red" stroke-width="1" x1="75" x2="190" y1="197" y2="202" /><circle cx="132" cy="54" fill="white" opacity="0.8" r="2" stroke="green" stroke-width="1" /><circle cx="68" cy="56" fill="white" opacity="0.8" r="2" stroke="green" stroke-width="1" /><circle cx="131" cy="65" fill="white" opacity="0.8" r="2" stroke="green" stroke-width="1" /><circle cx="189" cy="65" fill="white" opacity="0.8" r="2" stroke="green" stroke-width="1" /><circle cx="68" cy="102" fill="white" opacity="0.8" r="2" stroke="green" stroke-width="1" /><circle cx="77" cy="106" fill="white" opacity="0.8" r="2" stroke="green" stroke-width="1" /><circle cx="75" cy="183" fill="white" opacity="0.8" r="2" stroke="green" stroke-width="1" /><circle cx="187" cy="195" fill="white" opacity="0.8" r="2" stroke="green" stroke-width="1" /><circle cx="75" cy="197" fill="white" opacity="0.8" r="2" stroke="green" stroke-width="1" /><circle cx="190" cy="202" fill="white" opacity="0.8" r="2" stroke="green" stroke-width="1" /></g></svg>