<?xml version="1.0" encoding="utf-8" ?>
<svg baseProfile="full" height="256" version="1.1" width="256" xmlns="http://www.w3.org/2000/svg" xmlns:ev="http://www.w3.org/2001/xml-events" xmlns:xlink="http://www.w3.org/1999/xlink"><defs /><g fill="black" id="shape"><line opacity="0.8" stroke="red" stroke-width="1" x1="203" x2="140" y1="90" y2="91" /><line opacity="0.8" stroke="red" stroke-width="1" x1="140" x2="140" y1="91" y2="99" /><line opacity="0.8" stroke="red" stroke-width="1" x1="68" x2="106" y1="98" y2="98" /><line opacity="0.8" stroke="red" stroke-width="1" x1="68" x2="68" y1="98" y2="140" /><line opacity="0.8" stroke="red" stroke-width="1" x1="106" x2="106" y1="98" y2="163" /><line opacity="0.8" stroke="red" stroke-width="1" x1="52" x2="68" y1="140" y2="140" /><line opacity="0.8" stroke="red" stroke-width="1" x1="52" x2="53" y1="140" y2="164" /><line opacity="0.8" stroke="red" stroke-width="1" x1="106" x2="53" y1="163" y2="164" /><circle cx="203" cy="90" fill="white" opacity="0.8" r="2" stroke="green" stroke-width="1" /><circle cx="140" cy="91" fill="white" opacity="0.8" r="2" stroke="green" stroke-width="1" /><circle cx="68" cy="98" fill="white" opacity="0.8" r="2" stroke="green" stroke-width="1" /><circle cx="106" cy="98" fill="white" opacity="0.8" r="2" stroke="green" stroke-width="1" /><circle cx="140" cy="99" fill="white" opacity="0.8" r="2" stroke="green" stroke-width="1" /><circle cx="52" cy="140" fill="white" opacity="0.8" r="2" stroke="green" stroke-width="1" /><circle cx="68" cy="140" fill="white" opacity="0.8" r="2" stroke="green" stroke-width="1" /><circle cx="106" cy="163" fill="white" opacity="0.8" r="2" stroke="green" stroke-width="1" /><circle cx="53" cy="164" fill="white" opacity="0.8" r="2" stroke="green" stroke-width="1" /></g></svg>