<?xml version="1.0" encoding="utf-8" ?>
<svg baseProfile="full" height="256" version="1.1" width="256" xmlns="http://www.w3.org/2000/svg" xmlns:ev="http://www.w3.org/2001/xml-events" xmlns:xlink="http://www.w3.org/1999/xlink"><defs /><g fill="black" id="shape"><line opacity="0.8" stroke="red" stroke-width="1" x1="234" x2="172" y1="77" y2="79" /><line opacity="0.8" stroke="red" stroke-width="1" x1="234" x2="238" y1="77" y2="169" /><line opacity="0.8" stroke="red" stroke-width="1" x1="172" x2="120" y1="79" y2="87" /><line opacity="0.8" stroke="red" stroke-width="1" x1="172" x2="177" y1="79" y2="172" /><line opacity="0.8" stroke="red" stroke-width="1" x1="120" x2="17" y1="87" y2="95" /><line opacity="0.8" stroke="red" stroke-width="1" x1="120" x2="125" y1="87" y2="176" /><line opacity="0.8" stroke="red" stroke-width="1" x1="17" x2="18" y1="95" y2="136" /><line opacity="0.8" stroke="red" stroke-width="1" x1="36" x2="18" y1="135" y2="136" /><line opacity="0.8" stroke="red" stroke-width="1" x1="36" x2="39" y1="135" y2="175" /><line opacity="0.8" stroke="red" stroke-width="1" x1="238" x2="177" y1="169" y2="172" /><line opacity="0.8" stroke="red" stroke-width="1" x1="177" x2="125" y1="172" y2="176" /><line opacity="0.8" stroke="red" stroke-width="1" x1="39" x2="125" y1="175" y2="176" /><circle cx="234" cy="77" fill="white" opacity="0.8" r="2" stroke="green" stroke-width="1" /><circle cx="172" cy="79" fill="white" opacity="0.8" r="2" stroke="green" stroke-width="1" /><circle cx="120" cy="87" fill="white" opacity="0.8" r="2" stroke="green" stroke-width="1" /><circle cx="17" cy="95" fill="white" opacity="0.8" r="2" stroke="green" stroke-width="1" /><circle cx="36" cy="135" fill="white" opacity="0.8" r="2" stroke="green" stroke-width="1" /><circle cx="18" cy="136" fill="white" opacity="0.8" r="2" stroke="green" stroke-width="1" /><circle cx="238" cy="169" fill="white" opacity="0.8" r="2" stroke="green" stroke-width="1" /><circle cx="177" cy="172" fill="white" opacity="0.8" r="2" stroke="green" stroke-width="1" /><circle cx="39" cy="175" fill="white" opacity="0.8" r="2" stroke="green" stroke-width="1" /><circle cx="125" cy="176" fill="white" opacity="0.8" r="2" stroke="green" stroke-width="1" /></g></svg>