<?xml version="1.0" encoding="utf-8" ?>
<svg baseProfile="full" height="256" version="1.1" width="256" xmlns="http://www.w3.org/2000/svg" xmlns:ev="http://www.w3.org/2001/xml-events" xmlns:xlink="http://www.w3.org/1999/xlink"><defs /><g fill="black" id="shape"><line opacity="0.8" stroke="red" stroke-width="1" x1="164" x2="88" y1="102" y2="103" /><line opacity="0.8" stroke="red" stroke-width="1" x1="164" x2="166" y1="102" y2="132" /><line opacity="0.8" stroke="red" stroke-width="1" x1="88" x2="88" y1="103" y2="133" /><line opacity="0.8" stroke="red" stroke-width="1" x1="166" x2="167" y1="132" y2="154" /><line opacity="0.8" stroke="red" stroke-width="1" x1="113" x2="88" y1="133" y2="133" /><line opacity="0.8" stroke="red" stroke-width="1" x1="113" x2="112" y1="133" y2="153" /><line opacity="0.8" stroke="red" stroke-width="1" x1="88" x2="88" y1="133" y2="153" /><line opacity="0.8" stroke="red" stroke-width="1" x1="88" x2="112" y1="153" y2="153" /><line opacity="0.8" stroke="red" stroke-width="1" x1="112" x2="167" y1="153" y2="154" /><circle cx="164" cy="102" fill="white" opacity="0.8" r="2" stroke="green" stroke-width="1" /><circle cx="88" cy="103" fill="white" opacity="0.8" r="2" stroke="green" stroke-width="1" /><circle cx="166" cy="132" fill="white" opacity="0.8" r="2" stroke="green" stroke-width="1" /><circle cx="113" cy="133" fill="white" opacity="0.8" r="2" stroke="green" stroke-width="1" /><circle cx="88" cy="133" fill="white" opacity="0.8" r="2" stroke="green" stroke-width="1" /><circle cx="88" cy="153" fill="white" opacity="0.8" r="2" stroke="green" stroke-width="1" /><circle cx="112" cy="153" fill="white" opacity="0.8" r="2" stroke="green" stroke-width="1" /><circle cx="167" cy="154" fill="white" opacity="0.8" r="2" stroke="green" stroke-width="1" /></g></svg>