<?xml version="1.0" encoding="utf-8" ?>
<svg baseProfile="full" height="256" version="1.1" width="256" xmlns="http://www.w3.org/2000/svg" xmlns:ev="http://www.w3.org/2001/xml-events" xmlns:xlink="http://www.w3.org/1999/xlink"><defs /><g fill="black" id="shape"><line opacity="0.8" stroke="red" stroke-width="1" x1="79" x2="228" y1="56" y2="83" /><line opacity="0.8" stroke="red" stroke-width="1" x1="79" x2="41" y1="56" y2="156" /><line opacity="0.8" stroke="red" stroke-width="1" x1="228" x2="221" y1="83" y2="103" /><line opacity="0.8" stroke="red" stroke-width="1" x1="221" x2="232" y1="103" y2="106" /><line opacity="0.8" stroke="red" stroke-width="1" x1="232" x2="195" y1="106" y2="165" /><line opacity="0.8" stroke="red" stroke-width="1" x1="41" x2="166" y1="156" y2="176" /><line opacity="0.8" stroke="red" stroke-width="1" x1="170" x2="195" y1="162" y2="165" /><line opacity="0.8" stroke="red" stroke-width="1" x1="170" x2="166" y1="162" y2="176" /><line opacity="0.8" stroke="red" stroke-width="1" x1="166" x2="95" y1="176" y2="196" /><line opacity="0.8" stroke="red" stroke-width="1" x1="78" x2="68" y1="191" y2="205" /><line opacity="0.8" stroke="red" stroke-width="1" x1="21" x2="68" y1="196" y2="205" /><circle cx="79" cy="56" fill="white" opacity="0.8" r="2" stroke="green" stroke-width="1" /><circle cx="228" cy="83" fill="white" opacity="0.8" r="2" stroke="green" stroke-width="1" /><circle cx="221" cy="103" fill="white" opacity="0.8" r="2" stroke="green" stroke-width="1" /><circle cx="232" cy="106" fill="white" opacity="0.8" r="2" stroke="green" stroke-width="1" /><circle cx="41" cy="156" fill="white" opacity="0.8" r="2" stroke="green" stroke-width="1" /><circle cx="170" cy="162" fill="white" opacity="0.8" r="2" stroke="green" stroke-width="1" /><circle cx="195" cy="165" fill="white" opacity="0.8" r="2" stroke="green" stroke-width="1" /><circle cx="166" cy="176" fill="white" opacity="0.8" r="2" stroke="green" stroke-width="1" /><circle cx="78" cy="191" fill="white" opacity="0.8" r="2" stroke="green" stroke-width="1" /><circle cx="95" cy="196" fill="white" opacity="0.8" r="2" stroke="green" stroke-width="1" /><circle cx="21" cy="196" fill="white" opacity="0.8" r="2" stroke="green" stroke-width="1" /><circle cx="68" cy="205" fill="white" opacity="0.8" r="2" stroke="green" stroke-width="1" /></g></svg>