<?xml version="1.0" encoding="utf-8" ?>
<svg baseProfile="full" height="256" version="1.1" width="256" xmlns="http://www.w3.org/2000/svg" xmlns:ev="http://www.w3.org/2001/xml-events" xmlns:xlink="http://www.w3.org/1999/xlink"><defs /><g fill="black" id="shape"><line opacity="0.8" stroke="red" stroke-width="1" x1="230" x2="215" y1="77" y2="78" /><line opacity="0.8" stroke="red" stroke-width="1" x1="230" x2="243" y1="77" y2="108" /><line opacity="0.8" stroke="red" stroke-width="1" x1="215" x2="193" y1="78" y2="84" /><line opacity="0.8" stroke="red" stroke-width="1" x1="193" x2="101" y1="84" y2="102" /><line opacity="0.8" stroke="red" stroke-width="1" x1="193" x2="209" y1="84" y2="115" /><line opacity="0.8" stroke="red" stroke-width="1" x1="72" x2="6" y1="92" y2="106" /><line opacity="0.8" stroke="red" stroke-width="1" x1="72" x2="78" y1="92" y2="107" /><line opacity="0.8" stroke="red" stroke-width="1" x1="101" x2="78" y1="102" y2="107" /><line opacity="0.8" stroke="red" stroke-width="1" x1="101" x2="110" y1="102" y2="127" /><line opacity="0.8" stroke="red" stroke-width="1" x1="6" x2="26" y1="106" y2="143" /><line opacity="0.8" stroke="red" stroke-width="1" x1="243" x2="209" y1="108" y2="115" /><line opacity="0.8" stroke="red" stroke-width="1" x1="110" x2="73" y1="127" y2="136" /><line opacity="0.8" stroke="red" stroke-width="1" x1="110" x2="131" y1="127" y2="170" /><line opacity="0.8" stroke="red" stroke-width="1" x1="73" x2="26" y1="136" y2="143" /><line opacity="0.8" stroke="red" stroke-width="1" x1="73" x2="88" y1="136" y2="167" /><line opacity="0.8" stroke="red" stroke-width="1" x1="55" x2="58" y1="164" y2="175" /><line opacity="0.8" stroke="red" stroke-width="1" x1="88" x2="58" y1="167" y2="175" /><line opacity="0.8" stroke="red" stroke-width="1" x1="131" x2="115" y1="170" y2="174" /><circle cx="230" cy="77" fill="white" opacity="0.8" r="2" stroke="green" stroke-width="1" /><circle cx="215" cy="78" fill="white" opacity="0.8" r="2" stroke="green" stroke-width="1" /><circle cx="193" cy="84" fill="white" opacity="0.8" r="2" stroke="green" stroke-width="1" /><circle cx="72" cy="92" fill="white" opacity="0.8" r="2" stroke="green" stroke-width="1" /><circle cx="101" cy="102" fill="white" opacity="0.8" r="2" stroke="green" stroke-width="1" /><circle cx="6" cy="106" fill="white" opacity="0.8" r="2" stroke="green" stroke-width="1" /><circle cx="78" cy="107" fill="white" opacity="0.8" r="2" stroke="green" stroke-width="1" /><circle cx="243" cy="108" fill="white" opacity="0.8" r="2" stroke="green" stroke-width="1" /><circle cx="209" cy="115" fill="white" opacity="0.8" r="2" stroke="green" stroke-width="1" /><circle cx="110" cy="127" fill="white" opacity="0.8" r="2" stroke="green" stroke-width="1" /><circle cx="73" cy="136" fill="white" opacity="0.8" r="2" stroke="green" stroke-width="1" /><circle cx="26" cy="143" fill="white" opacity="0.8" r="2" stroke="green" stroke-width="1" /><circle cx="135" cy="158" fill="white" opacity="0.8" r="2" stroke="green" stroke-width="1" /><circle cx="55" cy="164" fill="white" opacity="0.8" r="2" stroke="green" stroke-width="1" /><circle cx="88" cy="167" fill="white" opacity="0.8" r="2" stroke="green" stroke-width="1" /><circle cx="131" cy="170" fill="white" opacity="0.8" r="2" stroke="green" stroke-width="1" /><circle cx="115" cy="174" fill="white" opacity="0.8" r="2" stroke="green" stroke-width="1" /><circle cx="58" cy="175" fill="white" opacity="0.8" r="2" stroke="green" stroke-width="1" /></g></svg>