<?xml version="1.0" encoding="utf-8" ?>
<svg baseProfile="full" height="256" version="1.1" width="256" xmlns="http://www.w3.org/2000/svg" xmlns:ev="http://www.w3.org/2001/xml-events" xmlns:xlink="http://www.w3.org/1999/xlink"><defs /><g fill="black" id="shape"><line opacity="0.8" stroke="red" stroke-width="1" x1="139" x2="227" y1="21" y2="30" /><line opacity="0.8" stroke="red" stroke-width="1" x1="139" x2="161" y1="21" y2="32" /><line opacity="0.8" stroke="red" stroke-width="1" x1="227" x2="161" y1="30" y2="32" /><line opacity="0.8" stroke="red" stroke-width="1" x1="227" x2="229" y1="30" y2="158" /><line opacity="0.8" stroke="red" stroke-width="1" x1="161" x2="104" y1="32" y2="33" /><line opacity="0.8" stroke="red" stroke-width="1" x1="161" x2="165" y1="32" y2="101" /><line opacity="0.8" stroke="red" stroke-width="1" x1="104" x2="34" y1="33" y2="34" /><line opacity="0.8" stroke="red" stroke-width="1" x1="104" x2="105" y1="33" y2="103" /><line opacity="0.8" stroke="red" stroke-width="1" x1="34" x2="35" y1="34" y2="104" /><line opacity="0.8" stroke="red" stroke-width="1" x1="165" x2="105" y1="101" y2="103" /><line opacity="0.8" stroke="red" stroke-width="1" x1="22" x2="35" y1="103" y2="104" /><line opacity="0.8" stroke="red" stroke-width="1" x1="22" x2="46" y1="103" y2="155" /><line opacity="0.8" stroke="red" stroke-width="1" x1="161" x2="46" y1="152" y2="155" /><line opacity="0.8" stroke="red" stroke-width="1" x1="161" x2="166" y1="152" y2="164" /><line opacity="0.8" stroke="red" stroke-width="1" x1="46" x2="54" y1="155" y2="204" /><line opacity="0.8" stroke="red" stroke-width="1" x1="229" x2="218" y1="158" y2="162" /><line opacity="0.8" stroke="red" stroke-width="1" x1="229" x2="233" y1="158" y2="184" /><line opacity="0.8" stroke="red" stroke-width="1" x1="218" x2="233" y1="162" y2="184" /><line opacity="0.8" stroke="red" stroke-width="1" x1="166" x2="170" y1="164" y2="173" /><line opacity="0.8" stroke="red" stroke-width="1" x1="170" x2="169" y1="173" y2="187" /><line opacity="0.8" stroke="red" stroke-width="1" x1="233" x2="169" y1="184" y2="187" /><line opacity="0.8" stroke="red" stroke-width="1" x1="233" x2="235" y1="184" y2="199" /><line opacity="0.8" stroke="red" stroke-width="1" x1="235" x2="54" y1="199" y2="204" /><line opacity="0.8" stroke="red" stroke-width="1" x1="235" x2="235" y1="199" y2="228" /><line opacity="0.8" stroke="red" stroke-width="1" x1="54" x2="50" y1="204" y2="220" /><line opacity="0.8" stroke="red" stroke-width="1" x1="50" x2="53" y1="220" y2="233" /><line opacity="0.8" stroke="red" stroke-width="1" x1="235" x2="53" y1="228" y2="233" /><circle cx="139" cy="21" fill="white" opacity="0.8" r="2" stroke="green" stroke-width="1" /><circle cx="227" cy="30" fill="white" opacity="0.8" r="2" stroke="green" stroke-width="1" /><circle cx="161" cy="32" fill="white" opacity="0.8" r="2" stroke="green" stroke-width="1" /><circle cx="104" cy="33" fill="white" opacity="0.8" r="2" stroke="green" stroke-width="1" /><circle cx="34" cy="34" fill="white" opacity="0.8" r="2" stroke="green" stroke-width="1" /><circle cx="165" cy="101" fill="white" opacity="0.8" r="2" stroke="green" stroke-width="1" /><circle cx="22" cy="103" fill="white" opacity="0.8" r="2" stroke="green" stroke-width="1" /><circle cx="105" cy="103" fill="white" opacity="0.8" r="2" stroke="green" stroke-width="1" /><circle cx="35" cy="104" fill="white" opacity="0.8" r="2" stroke="green" stroke-width="1" /><circle cx="161" cy="152" fill="white" opacity="0.8" r="2" stroke="green" stroke-width="1" /><circle cx="46" cy="155" fill="white" opacity="0.8" r="2" stroke="green" stroke-width="1" /><circle cx="229" cy="158" fill="white" opacity="0.8" r="2" stroke="green" stroke-width="1" /><circle cx="218" cy="162" fill="white" opacity="0.8" r="2" stroke="green" stroke-width="1" /><circle cx="166" cy="164" fill="white" opacity="0.8" r="2" stroke="green" stroke-width="1" /><circle cx="170" cy="173" fill="white" opacity="0.8" r="2" stroke="green" stroke-width="1" /><circle cx="233" cy="184" fill="white" opacity="0.8" r="2" stroke="green" stroke-width="1" /><circle cx="169" cy="187" fill="white" opacity="0.8" r="2" stroke="green" stroke-width="1" /><circle cx="235" cy="199" fill="white" opacity="0.8" r="2" stroke="green" stroke-width="1" /><circle cx="54" cy="204" fill="white" opacity="0.8" r="2" stroke="green" stroke-width="1" /><circle cx="50" cy="220" fill="white" opacity="0.8" r="2" stroke="green" stroke-width="1" /><circle cx="235" cy="228" fill="white" opacity="0.8" r="2" stroke="green" stroke-width="1" /><circle cx="53" cy="233" fill="white" opacity="0.8" r="2" stroke="green" stroke-width="1" /></g></svg>