<?xml version="1.0" encoding="utf-8" ?>
<svg baseProfile="full" height="256" version="1.1" width="256" xmlns="http://www.w3.org/2000/svg" xmlns:ev="http://www.w3.org/2001/xml-events" xmlns:xlink="http://www.w3.org/1999/xlink"><defs /><g fill="black" id="shape"><line opacity="0.8" stroke="red" stroke-width="1" x1="167" x2="190" y1="87" y2="101" /><line opacity="0.8" stroke="red" stroke-width="1" x1="167" x2="104" y1="87" y2="113" /><line opacity="0.8" stroke="red" stroke-width="1" x1="190" x2="176" y1="101" y2="122" /><line opacity="0.8" stroke="red" stroke-width="1" x1="104" x2="67" y1="113" y2="130" /><line opacity="0.8" stroke="red" stroke-width="1" x1="152" x2="176" y1="113" y2="122" /><line opacity="0.8" stroke="red" stroke-width="1" x1="148" x2="124" y1="121" y2="141" /><line opacity="0.8" stroke="red" stroke-width="1" x1="176" x2="140" y1="122" y2="148" /><line opacity="0.8" stroke="red" stroke-width="1" x1="67" x2="65" y1="130" y2="137" /><line opacity="0.8" stroke="red" stroke-width="1" x1="65" x2="112" y1="137" y2="163" /><line opacity="0.8" stroke="red" stroke-width="1" x1="124" x2="140" y1="141" y2="148" /><line opacity="0.8" stroke="red" stroke-width="1" x1="140" x2="125" y1="148" y2="166" /><line opacity="0.8" stroke="red" stroke-width="1" x1="112" x2="125" y1="163" y2="166" /><circle cx="167" cy="87" fill="white" opacity="0.8" r="2" stroke="green" stroke-width="1" /><circle cx="190" cy="101" fill="white" opacity="0.8" r="2" stroke="green" stroke-width="1" /><circle cx="104" cy="113" fill="white" opacity="0.8" r="2" stroke="green" stroke-width="1" /><circle cx="152" cy="113" fill="white" opacity="0.8" r="2" stroke="green" stroke-width="1" /><circle cx="148" cy="121" fill="white" opacity="0.8" r="2" stroke="green" stroke-width="1" /><circle cx="176" cy="122" fill="white" opacity="0.8" r="2" stroke="green" stroke-width="1" /><circle cx="67" cy="130" fill="white" opacity="0.8" r="2" stroke="green" stroke-width="1" /><circle cx="65" cy="137" fill="white" opacity="0.8" r="2" stroke="green" stroke-width="1" /><circle cx="124" cy="141" fill="white" opacity="0.8" r="2" stroke="green" stroke-width="1" /><circle cx="140" cy="148" fill="white" opacity="0.8" r="2" stroke="green" stroke-width="1" /><circle cx="112" cy="163" fill="white" opacity="0.8" r="2" stroke="green" stroke-width="1" /><circle cx="125" cy="166" fill="white" opacity="0.8" r="2" stroke="green" stroke-width="1" /></g></svg>