<?xml version="1.0" encoding="utf-8" ?>
<svg baseProfile="full" height="256" version="1.1" width="256" xmlns="http://www.w3.org/2000/svg" xmlns:ev="http://www.w3.org/2001/xml-events" xmlns:xlink="http://www.w3.org/1999/xlink"><defs /><g fill="black" id="shape"><line opacity="0.8" stroke="red" stroke-width="1" x1="131" x2="112" y1="6" y2="7" /><line opacity="0.8" stroke="red" stroke-width="1" x1="131" x2="131" y1="6" y2="19" /><line opacity="0.8" stroke="red" stroke-width="1" x1="112" x2="113" y1="7" y2="20" /><line opacity="0.8" stroke="red" stroke-width="1" x1="181" x2="145" y1="18" y2="19" /><line opacity="0.8" stroke="red" stroke-width="1" x1="181" x2="181" y1="18" y2="165" /><line opacity="0.8" stroke="red" stroke-width="1" x1="131" x2="145" y1="19" y2="19" /><line opacity="0.8" stroke="red" stroke-width="1" x1="131" x2="113" y1="19" y2="20" /><line opacity="0.8" stroke="red" stroke-width="1" x1="90" x2="113" y1="19" y2="20" /><line opacity="0.8" stroke="red" stroke-width="1" x1="90" x2="82" y1="19" y2="68" /><line opacity="0.8" stroke="red" stroke-width="1" x1="145" x2="145" y1="19" y2="70" /><line opacity="0.8" stroke="red" stroke-width="1" x1="82" x2="94" y1="68" y2="70" /><line opacity="0.8" stroke="red" stroke-width="1" x1="145" x2="94" y1="70" y2="70" /><line opacity="0.8" stroke="red" stroke-width="1" x1="94" x2="74" y1="70" y2="238" /><line opacity="0.8" stroke="red" stroke-width="1" x1="160" x2="181" y1="165" y2="165" /><line opacity="0.8" stroke="red" stroke-width="1" x1="160" x2="161" y1="165" y2="197" /><line opacity="0.8" stroke="red" stroke-width="1" x1="161" x2="145" y1="197" y2="197" /><line opacity="0.8" stroke="red" stroke-width="1" x1="145" x2="140" y1="197" y2="214" /><line opacity="0.8" stroke="red" stroke-width="1" x1="140" x2="140" y1="214" y2="236" /><line opacity="0.8" stroke="red" stroke-width="1" x1="140" x2="74" y1="236" y2="238" /><circle cx="131" cy="6" fill="white" opacity="0.8" r="2" stroke="green" stroke-width="1" /><circle cx="112" cy="7" fill="white" opacity="0.8" r="2" stroke="green" stroke-width="1" /><circle cx="181" cy="18" fill="white" opacity="0.8" r="2" stroke="green" stroke-width="1" /><circle cx="131" cy="19" fill="white" opacity="0.8" r="2" stroke="green" stroke-width="1" /><circle cx="90" cy="19" fill="white" opacity="0.8" r="2" stroke="green" stroke-width="1" /><circle cx="145" cy="19" fill="white" opacity="0.8" r="2" stroke="green" stroke-width="1" /><circle cx="113" cy="20" fill="white" opacity="0.8" r="2" stroke="green" stroke-width="1" /><circle cx="82" cy="68" fill="white" opacity="0.8" r="2" stroke="green" stroke-width="1" /><circle cx="145" cy="70" fill="white" opacity="0.8" r="2" stroke="green" stroke-width="1" /><circle cx="94" cy="70" fill="white" opacity="0.8" r="2" stroke="green" stroke-width="1" /><circle cx="160" cy="165" fill="white" opacity="0.8" r="2" stroke="green" stroke-width="1" /><circle cx="181" cy="165" fill="white" opacity="0.8" r="2" stroke="green" stroke-width="1" /><circle cx="161" cy="197" fill="white" opacity="0.8" r="2" stroke="green" stroke-width="1" /><circle cx="145" cy="197" fill="white" opacity="0.8" r="2" stroke="green" stroke-width="1" /><circle cx="140" cy="214" fill="white" opacity="0.8" r="2" stroke="green" stroke-width="1" /><circle cx="140" cy="236" fill="white" opacity="0.8" r="2" stroke="green" stroke-width="1" /><circle cx="74" cy="238" fill="white" opacity="0.8" r="2" stroke="green" stroke-width="1" /></g></svg>