<?xml version="1.0" encoding="utf-8" ?>
<svg baseProfile="full" height="256" version="1.1" width="256" xmlns="http://www.w3.org/2000/svg" xmlns:ev="http://www.w3.org/2001/xml-events" xmlns:xlink="http://www.w3.org/1999/xlink"><defs /><g fill="black" id="shape"><line opacity="0.8" stroke="red" stroke-width="1" x1="109" x2="155" y1="55" y2="56" /><line opacity="0.8" stroke="red" stroke-width="1" x1="109" x2="108" y1="55" y2="73" /><line opacity="0.8" stroke="red" stroke-width="1" x1="155" x2="154" y1="56" y2="73" /><line opacity="0.8" stroke="red" stroke-width="1" x1="76" x2="108" y1="72" y2="73" /><line opacity="0.8" stroke="red" stroke-width="1" x1="76" x2="77" y1="72" y2="88" /><line opacity="0.8" stroke="red" stroke-width="1" x1="108" x2="118" y1="73" y2="76" /><line opacity="0.8" stroke="red" stroke-width="1" x1="154" x2="184" y1="73" y2="74" /><line opacity="0.8" stroke="red" stroke-width="1" x1="154" x2="144" y1="73" y2="75" /><line opacity="0.8" stroke="red" stroke-width="1" x1="184" x2="181" y1="74" y2="118" /><line opacity="0.8" stroke="red" stroke-width="1" x1="144" x2="144" y1="75" y2="86" /><line opacity="0.8" stroke="red" stroke-width="1" x1="144" x2="136" y1="75" y2="87" /><line opacity="0.8" stroke="red" stroke-width="1" x1="118" x2="107" y1="76" y2="88" /><line opacity="0.8" stroke="red" stroke-width="1" x1="118" x2="116" y1="76" y2="117" /><line opacity="0.8" stroke="red" stroke-width="1" x1="144" x2="136" y1="86" y2="87" /><line opacity="0.8" stroke="red" stroke-width="1" x1="144" x2="149" y1="86" y2="116" /><line opacity="0.8" stroke="red" stroke-width="1" x1="136" x2="107" y1="87" y2="88" /><line opacity="0.8" stroke="red" stroke-width="1" x1="77" x2="78" y1="88" y2="117" /><line opacity="0.8" stroke="red" stroke-width="1" x1="107" x2="102" y1="88" y2="107" /><line opacity="0.8" stroke="red" stroke-width="1" x1="102" x2="106" y1="107" y2="118" /><line opacity="0.8" stroke="red" stroke-width="1" x1="149" x2="181" y1="116" y2="118" /><line opacity="0.8" stroke="red" stroke-width="1" x1="149" x2="149" y1="116" y2="127" /><line opacity="0.8" stroke="red" stroke-width="1" x1="78" x2="106" y1="117" y2="118" /><line opacity="0.8" stroke="red" stroke-width="1" x1="106" x2="109" y1="118" y2="127" /><line opacity="0.8" stroke="red" stroke-width="1" x1="109" x2="149" y1="127" y2="127" /><line opacity="0.8" stroke="red" stroke-width="1" x1="109" x2="110" y1="127" y2="138" /><line opacity="0.8" stroke="red" stroke-width="1" x1="149" x2="147" y1="127" y2="139" /><line opacity="0.8" stroke="red" stroke-width="1" x1="78" x2="110" y1="136" y2="138" /><line opacity="0.8" stroke="red" stroke-width="1" x1="78" x2="72" y1="136" y2="180" /><line opacity="0.8" stroke="red" stroke-width="1" x1="147" x2="178" y1="139" y2="139" /><line opacity="0.8" stroke="red" stroke-width="1" x1="178" x2="179" y1="139" y2="183" /><line opacity="0.8" stroke="red" stroke-width="1" x1="72" x2="102" y1="180" y2="181" /><line opacity="0.8" stroke="red" stroke-width="1" x1="102" x2="98" y1="181" y2="199" /><line opacity="0.8" stroke="red" stroke-width="1" x1="145" x2="179" y1="182" y2="183" /><line opacity="0.8" stroke="red" stroke-width="1" x1="145" x2="147" y1="182" y2="192" /><line opacity="0.8" stroke="red" stroke-width="1" x1="147" x2="148" y1="192" y2="200" /><line opacity="0.8" stroke="red" stroke-width="1" x1="98" x2="148" y1="199" y2="200" /><circle cx="109" cy="55" fill="white" opacity="0.8" r="2" stroke="green" stroke-width="1" /><circle cx="155" cy="56" fill="white" opacity="0.8" r="2" stroke="green" stroke-width="1" /><circle cx="76" cy="72" fill="white" opacity="0.8" r="2" stroke="green" stroke-width="1" /><circle cx="108" cy="73" fill="white" opacity="0.8" r="2" stroke="green" stroke-width="1" /><circle cx="154" cy="73" fill="white" opacity="0.8" r="2" stroke="green" stroke-width="1" /><circle cx="184" cy="74" fill="white" opacity="0.8" r="2" stroke="green" stroke-width="1" /><circle cx="144" cy="75" fill="white" opacity="0.8" r="2" stroke="green" stroke-width="1" /><circle cx="118" cy="76" fill="white" opacity="0.8" r="2" stroke="green" stroke-width="1" /><circle cx="144" cy="86" fill="white" opacity="0.8" r="2" stroke="green" stroke-width="1" /><circle cx="136" cy="87" fill="white" opacity="0.8" r="2" stroke="green" stroke-width="1" /><circle cx="77" cy="88" fill="white" opacity="0.8" r="2" stroke="green" stroke-width="1" /><circle cx="107" cy="88" fill="white" opacity="0.8" r="2" stroke="green" stroke-width="1" /><circle cx="102" cy="107" fill="white" opacity="0.8" r="2" stroke="green" stroke-width="1" /><circle cx="149" cy="116" fill="white" opacity="0.8" r="2" stroke="green" stroke-width="1" /><circle cx="78" cy="117" fill="white" opacity="0.8" r="2" stroke="green" stroke-width="1" /><circle cx="116" cy="117" fill="white" opacity="0.8" r="2" stroke="green" stroke-width="1" /><circle cx="181" cy="118" fill="white" opacity="0.8" r="2" stroke="green" stroke-width="1" /><circle cx="106" cy="118" fill="white" opacity="0.8" r="2" stroke="green" stroke-width="1" /><circle cx="109" cy="127" fill="white" opacity="0.8" r="2" stroke="green" stroke-width="1" /><circle cx="149" cy="127" fill="white" opacity="0.8" r="2" stroke="green" stroke-width="1" /><circle cx="78" cy="136" fill="white" opacity="0.8" r="2" stroke="green" stroke-width="1" /><circle cx="110" cy="138" fill="white" opacity="0.8" r="2" stroke="green" stroke-width="1" /><circle cx="147" cy="139" fill="white" opacity="0.8" r="2" stroke="green" stroke-width="1" /><circle cx="178" cy="139" fill="white" opacity="0.8" r="2" stroke="green" stroke-width="1" /><circle cx="72" cy="180" fill="white" opacity="0.8" r="2" stroke="green" stroke-width="1" /><circle cx="102" cy="181" fill="white" opacity="0.8" r="2" stroke="green" stroke-width="1" /><circle cx="145" cy="182" fill="white" opacity="0.8" r="2" stroke="green" stroke-width="1" /><circle cx="179" cy="183" fill="white" opacity="0.8" r="2" stroke="green" stroke-width="1" /><circle cx="147" cy="192" fill="white" opacity="0.8" r="2" stroke="green" stroke-width="1" /><circle cx="98" cy="199" fill="white" opacity="0.8" r="2" stroke="green" stroke-width="1" /><circle cx="148" cy="200" fill="white" opacity="0.8" r="2" stroke="green" stroke-width="1" /></g></svg>