<?xml version="1.0" encoding="utf-8" ?>
<svg baseProfile="full" height="256" version="1.1" width="256" xmlns="http://www.w3.org/2000/svg" xmlns:ev="http://www.w3.org/2001/xml-events" xmlns:xlink="http://www.w3.org/1999/xlink"><defs /><g fill="black" id="shape"><line opacity="0.8" stroke="red" stroke-width="1" x1="69" x2="51" y1="76" y2="105" /><line opacity="0.8" stroke="red" stroke-width="1" x1="69" x2="211" y1="76" y2="120" /><line opacity="0.8" stroke="red" stroke-width="1" x1="51" x2="31" y1="105" y2="132" /><line opacity="0.8" stroke="red" stroke-width="1" x1="51" x2="193" y1="105" y2="147" /><line opacity="0.8" stroke="red" stroke-width="1" x1="211" x2="193" y1="120" y2="147" /><line opacity="0.8" stroke="red" stroke-width="1" x1="31" x2="19" y1="132" y2="137" /><line opacity="0.8" stroke="red" stroke-width="1" x1="31" x2="171" y1="132" y2="176" /><line opacity="0.8" stroke="red" stroke-width="1" x1="189" x2="233" y1="153" y2="167" /><line opacity="0.8" stroke="red" stroke-width="1" x1="189" x2="176" y1="153" y2="169" /><line opacity="0.8" stroke="red" stroke-width="1" x1="233" x2="227" y1="167" y2="183" /><line opacity="0.8" stroke="red" stroke-width="1" x1="176" x2="171" y1="169" y2="176" /><line opacity="0.8" stroke="red" stroke-width="1" x1="176" x2="227" y1="169" y2="183" /><circle cx="69" cy="76" fill="white" opacity="0.8" r="2" stroke="green" stroke-width="1" /><circle cx="51" cy="105" fill="white" opacity="0.8" r="2" stroke="green" stroke-width="1" /><circle cx="211" cy="120" fill="white" opacity="0.8" r="2" stroke="green" stroke-width="1" /><circle cx="31" cy="132" fill="white" opacity="0.8" r="2" stroke="green" stroke-width="1" /><circle cx="19" cy="137" fill="white" opacity="0.8" r="2" stroke="green" stroke-width="1" /><circle cx="193" cy="147" fill="white" opacity="0.8" r="2" stroke="green" stroke-width="1" /><circle cx="189" cy="153" fill="white" opacity="0.8" r="2" stroke="green" stroke-width="1" /><circle cx="233" cy="167" fill="white" opacity="0.8" r="2" stroke="green" stroke-width="1" /><circle cx="176" cy="169" fill="white" opacity="0.8" r="2" stroke="green" stroke-width="1" /><circle cx="171" cy="176" fill="white" opacity="0.8" r="2" stroke="green" stroke-width="1" /><circle cx="227" cy="183" fill="white" opacity="0.8" r="2" stroke="green" stroke-width="1" /></g></svg>